<svg xmlns="http://www.w3.org/2000/svg" viewBox="0 0 338.12 583.2"><defs><style>.cls-1{fill:#c1e4e5;}.cls-2{fill:#e2f2f3;}.cls-3{font-size:26px;}.cls-3,.cls-4,.cls-5{fill:#231815;font-family:CourierNewPSMT, Courier New;}.cls-4{font-size:20px;}.cls-5{font-size:30px;letter-spacing:0.09em;}</style></defs><title>cutcutcutraw</title><g id="レイヤー_2" data-name="レイヤー 2"><g id="レイヤー_2-2" data-name="レイヤー 2"><path class="cls-1" d="M173.19,294.44C110.31,315,51.39,279.8,51.39,279.8S109,334.69,172.18,312.69C231.42,292.06,294,326.54,294,326.54S230.77,275.61,173.19,294.44Z"/><path class="cls-2" d="M167.84,290.36c-57.69,32.4-122.33,9.33-122.33,9.33s67.18,42.64,124.88,8.77c54.1-31.76,122.22-10.12,122.22-10.12S220.65,260.69,167.84,290.36Z"/></g><g id="レイヤー_1-2" data-name="レイヤー 1"><text class="cls-3" transform="translate(93.65 262.65) rotate(-23.84)">h</text><text class="cls-3" transform="translate(109.98 255.55) rotate(-17.81)">a</text><text class="cls-3" transform="translate(126.95 250.22) rotate(-11.76)">i</text><text class="cls-3" transform="translate(144.39 246.71) rotate(-5.69)">r</text><text class="cls-3" transform="translate(162.09 245.06) rotate(0.37)"> </text><text class="cls-3" transform="translate(179.89 245.29) rotate(6.4)">m</text><text class="cls-3" transform="translate(197.57 247.4) rotate(12.35)">a</text><text class="cls-3" transform="translate(214.93 251.31) rotate(18.33)">k</text><text class="cls-3" transform="translate(231.77 257.01) rotate(24.37)">e</text><text class="cls-4" transform="translate(224.16 344.96) rotate(-19.3)">8</text><text class="cls-4" transform="translate(209.7 348.87) rotate(-14.65)">1</text><text class="cls-4" transform="translate(194.97 351.58) rotate(-9.98)">0</text><text class="cls-4" transform="translate(180.06 353.09) rotate(-5.3)">2</text><text class="cls-4" transform="matrix(1, -0.01, 0.01, 1, 165.06, 353.37)"> </text><text class="cls-4" transform="translate(150.13 352.42) rotate(4.08)">e</text><text class="cls-4" transform="matrix(0.99, 0.15, -0.15, 0.99, 135.29, 350.26)">c</text><text class="cls-4" transform="matrix(0.97, 0.23, -0.23, 0.97, 120.69, 346.9)">n</text><text class="cls-4" transform="translate(106.43 342.4) rotate(17.98)">i</text><text class="cls-4" transform="matrix(0.92, 0.38, -0.38, 0.92, 92.56, 336.76)">s</text><text class="cls-5" transform="translate(52.53 302.75)">cut-cut-cut</text></g></g></svg>