<svg xmlns="http://www.w3.org/2000/svg" viewBox="0 0 300 300"><defs><style>.cls-1{fill:#6f86c3;}.cls-2{fill:#b3ddf6;}.cls-3{fill:#73c5b7;}.cls-4{fill:#9cd5de;}.cls-5{fill:#b2bbdf;}.cls-6{fill:#e1a9cb;}.cls-7{fill:#e95c97;}.cls-8{fill:#9aa2d1;}.cls-9{fill:#f6bbc5;}.cls-10{fill:#fce4d3;}.cls-11{fill:#1e499d;}.cls-12{fill:#ad9bca;}.cls-13{fill:#e4c6df;}.cls-14{fill:#f5bbce;}.cls-15{fill:#fdecd3;}.cls-16{fill:#f8dcea;}.cls-17{fill:#f6bbc4;}.cls-18{fill:#d397c1;}.cls-19{fill:#d2ecf8;}.cls-20{fill:#aea5d0;}.cls-21{fill:#d2e5ae;}.cls-22{fill:#d6c5e0;}.cls-23{fill:#b6daab;}.cls-24{fill:#bed8f1;}.cls-25{fill:#d3b1d3;}.cls-26{fill:#c9e6de;}.cls-27{fill:#a7b4dc;}.cls-28{fill:#d18ebc;}.cls-29{fill:#dac6e0;}.cls-30{fill:#a9dcf5;}.cls-31{fill:#ddf1fb;}.cls-32{fill:#f4afc9;}.cls-33{fill:#f6bbc2;}.cls-34{fill:#fcdfc8;}.cls-35{fill:#f6bba7;}.cls-36{fill:#f0bcd6;}.cls-37{fill:#ca90be;}.cls-38{fill:#dc8bb8;}.cls-39{fill:#9e65a7;}.cls-40{fill:#f19aa7;}.cls-41{fill:#f3a6b3;}.cls-42{fill:#fbdbb2;}.cls-43{fill:#f5b092;}.cls-44{fill:#e6a8ca;}.cls-45{fill:#f19aa2;}.cls-46{fill:#e09ec4;}.cls-47{fill:#b19bc9;}.cls-48{fill:#8071b2;}.cls-49{fill:#6dc0ec;}.cls-50{fill:#b0a5d0;}.cls-51{fill:#80a5d7;}.cls-52{fill:#cdb1d4;}.cls-53{fill:#8f85be;}.cls-54{fill:#9ed6f5;}.cls-55{fill:#88caa6;}.cls-56{fill:#7fccdd;}.cls-57{fill:#9c9bcc;}.cls-58{fill:#9576b3;}.cls-59{fill:#debcd9;}.cls-60{fill:#c2b0d5;}.cls-61{fill:#9fc8eb;}.cls-62{fill:#dd9fc5;}.cls-63{fill:#f08f9b;}.cls-64{fill:#eb70a7;}.cls-65{fill:#f19aa9;}.cls-66{fill:#ee859f;}.cls-67{fill:#f3b0cd;}.cls-68{fill:#f8c39d;}.cls-69{fill:#ed7767;}.cls-70{fill:#f5b0a6;}.cls-71{fill:#d68cba;}.cls-72{fill:#a781b8;}.cls-73{fill:#ed7a9e;}.cls-74{fill:#cac4e1;}.cls-75{fill:#95bfe7;}.cls-76{fill:#8ed0d4;}.cls-77{fill:#b994c2;}.cls-78{fill:#f8d0e0;}.cls-79{fill:#e8f5f5;}.cls-80{fill:#6a7bbb;}.cls-81{fill:#b9afd6;}.cls-82{fill:#b2c7e7;}.cls-83{fill:#a180b8;}</style></defs><title>アセット 1</title><g id="レイヤー_2" data-name="レイヤー 2"><g id="レイヤー_1-2" data-name="レイヤー 1"><polygon class="cls-1" points="117.38 50.51 103.17 118.9 149.36 66.5 117.38 50.51"/><polygon class="cls-2" points="149.36 66.5 103.17 118.9 135.96 131.97 149.36 66.5"/><polygon class="cls-3" points="193.29 70.63 149.36 66.5 135.96 131.97 193.29 70.63"/><polygon class="cls-4" points="197.29 147.3 193.29 70.63 135.96 131.97 197.29 147.3"/><polygon class="cls-5" points="197.29 147.3 225.96 59.3 193.29 70.63 197.29 147.3"/><polygon class="cls-6" points="103.17 118.9 68.63 157.3 68.63 215.3 111.29 172.63 103.17 118.9"/><polygon class="cls-7" points="103.17 118.9 111.29 172.63 135.96 131.97 103.17 118.9"/><polygon class="cls-8" points="135.96 131.97 111.29 172.63 143.96 156.63 135.96 131.97"/><polygon class="cls-9" points="143.96 156.63 197.29 147.3 135.96 131.97 143.96 156.63"/><polygon class="cls-10" points="143.96 156.63 111.29 172.63 153.96 199.3 143.96 156.63"/><polygon class="cls-11" points="217.29 167.1 197.29 147.3 143.96 156.63 217.29 167.1"/><polygon class="cls-12" points="95.96 89.97 103.17 118.9 117.38 50.51 95.96 89.97"/><polygon class="cls-13" points="95.96 89.97 38.63 87.97 103.17 118.9 95.96 89.97"/><polygon class="cls-14" points="117.38 50.51 46.63 63.3 95.96 89.97 117.38 50.51"/><polygon class="cls-15" points="70.9 39.97 46.63 63.3 117.38 50.51 70.9 39.97"/><path class="cls-16" d="M70.9,40l-24.9,2A150.94,150.94,0,0,0,34.39,54.43L46.63,63.3Z"/><polygon class="cls-16" points="236.63 115.3 225.96 59.3 197.29 147.3 236.63 115.3"/><polygon class="cls-17" points="242.33 46.19 225.96 59.3 236.63 115.3 242.33 46.19"/><polygon class="cls-18" points="259.96 84.7 243.66 45.13 242.33 46.19 236.63 115.3 259.96 84.7"/><path class="cls-19" d="M243.66,45.13,260,84.71,279.2,73.76a152.35,152.35,0,0,0-14.55-20.48l-19.44-9.4Z"/><polygon class="cls-20" points="197.29 147.3 217.29 167.1 248.29 136.63 236.63 115.3 197.29 147.3"/><polygon class="cls-21" points="111.29 172.63 123.3 215.3 153.96 199.3 111.29 172.63"/><polygon class="cls-22" points="111.29 172.63 68.63 215.3 123.3 215.3 111.29 172.63"/><polygon class="cls-23" points="123.3 215.3 170.63 234.63 153.96 199.3 123.3 215.3"/><polygon class="cls-24" points="170.63 234.63 217.29 239.3 190.63 199.3 170.63 234.63"/><polygon class="cls-25" points="170.63 234.63 190.63 199.3 153.96 199.3 170.63 234.63"/><polygon class="cls-26" points="217.29 239.3 255.29 234.63 190.63 199.3 217.29 239.3"/><polygon class="cls-27" points="190.63 199.3 255.29 234.63 236.63 203.97 190.63 199.3"/><polygon class="cls-28" points="236.63 203.97 255.29 234.63 277.29 172.63 236.63 203.97"/><polygon class="cls-29" points="255.29 234.63 289.29 199.3 277.29 172.63 255.29 234.63"/><path class="cls-30" d="M289.29,199.3l10.51-57c0-.24,0-.48,0-.72l-22.47,31.09Z"/><polygon class="cls-31" points="50.63 125.97 68.63 215.3 68.63 157.3 50.63 125.97"/><polygon class="cls-32" points="29.29 207.97 68.63 215.3 50.63 125.97 29.29 207.97"/><polygon class="cls-33" points="16.63 167.1 29.29 207.97 50.63 125.97 16.63 167.1"/><polygon class="cls-34" points="23.96 95.97 16.63 167.1 50.63 125.97 23.96 95.97"/><path class="cls-35" d="M16.63,167.1,3.9,184.1c.72,3.13,1.55,6.21,2.47,9.26L29.29,208Z"/><path class="cls-36" d="M24,96l-12.28-4.1A148.37,148.37,0,0,0,5,111.61L16.63,167.1Z"/><path class="cls-37" d="M5,111.61A150.88,150.88,0,0,0,3.9,184.1l12.73-17Z"/><polygon class="cls-38" points="68.63 157.3 103.17 118.9 50.63 125.97 68.63 157.3"/><polygon class="cls-39" points="123.3 215.3 68.63 215.3 82 251.97 111.29 249.3 123.3 215.3"/><path class="cls-40" d="M63.68,27.32A150.15,150.15,0,0,0,46,41.92l24.9-2Z"/><polygon class="cls-41" points="103.17 118.9 38.63 87.97 50.63 125.97 103.17 118.9"/><path class="cls-42" d="M68.63,215.3,38.36,250.18q3.6,4,7.47,7.73L82,252Z"/><path class="cls-43" d="M29.29,208v31.08q4.27,5.79,9.07,11.13L68.63,215.3Z"/><path class="cls-44" d="M21,226.61q3.84,6.44,8.27,12.44V208Z"/><path class="cls-45" d="M6.37,193.36A149.37,149.37,0,0,0,21,226.61L29.29,208Z"/><polygon class="cls-45" points="46.63 63.3 38.63 87.97 95.96 89.97 46.63 63.3"/><polygon class="cls-46" points="38.63 87.97 23.96 95.97 50.63 125.97 38.63 87.97"/><polygon class="cls-46" points="111.29 249.3 170.63 234.63 123.3 215.3 111.29 249.3"/><polygon class="cls-46" points="209.63 263.96 217.29 239.3 170.63 234.63 209.63 263.96"/><path class="cls-47" d="M209.63,264l34.53,2.79c2.76-2.23,5.45-4.56,8-7L217.29,239.3Z"/><path class="cls-48" d="M217.29,239.3l34.91,20.48c3.06-2.85,6-5.82,8.82-8.91l-5.73-16.24Z"/><path class="cls-49" d="M261,250.87A150.28,150.28,0,0,0,272.19,237l-16.9-2.39Z"/><path class="cls-50" d="M255.29,234.63l16.9,2.39a149.52,149.52,0,0,0,18.1-33.85l-1-3.87Z"/><path class="cls-51" d="M289.29,199.3l1,3.87A149.53,149.53,0,0,0,300,150q0-3.88-.2-7.74Z"/><polygon class="cls-52" points="153.96 199.3 217.29 167.1 143.96 156.63 153.96 199.3"/><polygon class="cls-53" points="153.96 199.3 190.63 199.3 217.29 167.1 153.96 199.3"/><polygon class="cls-54" points="190.63 199.3 236.63 203.97 217.29 167.1 190.63 199.3"/><polygon class="cls-55" points="236.63 203.97 277.29 172.63 217.29 167.1 236.63 203.97"/><polygon class="cls-56" points="277.29 172.63 248.29 136.63 217.29 167.1 277.29 172.63"/><path class="cls-57" d="M277.29,172.63l22.47-31.09,0-.36-51.44-4.55Z"/><polygon class="cls-58" points="248.29 136.63 259.96 84.7 236.63 115.3 248.29 136.63"/><path class="cls-59" d="M248.29,136.63l51.44,4.55c0-.13,0-.26,0-.39L260,84.71Z"/><path class="cls-60" d="M299.71,140.79a149.21,149.21,0,0,0-20.51-67L260,84.71Z"/><path class="cls-61" d="M264.65,53.28a151.86,151.86,0,0,0-13.57-14.1l-5.87,4.7Z"/><path class="cls-62" d="M46.63,63.3,30.79,59A151.28,151.28,0,0,0,22,71.81L38.63,88Z"/><path class="cls-63" d="M34.39,54.43c-1.23,1.48-2.42,3-3.6,4.53L46.63,63.3Z"/><path class="cls-64" d="M38.63,88,22,71.81c-2,3.21-3.82,6.5-5.54,9.87L24,96Z"/><path class="cls-65" d="M16.43,81.68q-2.56,5-4.75,10.19L24,96Z"/><polygon class="cls-66" points="111.29 249.3 209.63 263.96 170.63 234.63 111.29 249.3"/><path class="cls-67" d="M45.83,257.91A150.17,150.17,0,0,0,82,283.73V252Z"/><path class="cls-68" d="M82,252v31.76c.42.22.85.42,1.27.63L132.63,274Z"/><polygon class="cls-69" points="82 251.97 132.63 273.96 111.29 249.3 82 251.97"/><path class="cls-69" d="M83.27,284.36a148.94,148.94,0,0,0,31.45,11.46L132.63,274Z"/><polygon class="cls-70" points="132.63 273.96 209.63 263.96 111.29 249.3 132.63 273.96"/><path class="cls-71" d="M132.63,274l61,19.59a148.62,148.62,0,0,0,18.55-7L209.63,264Z"/><path class="cls-52" d="M114.72,295.82a150.85,150.85,0,0,0,78.87-2.26l-61-19.59Z"/><path class="cls-72" d="M226.07,279.29a150.07,150.07,0,0,0,18.09-12.53L209.63,264Z"/><path class="cls-73" d="M212.14,286.56a148.37,148.37,0,0,0,13.93-7.27L209.63,264Z"/><polygon class="cls-74" points="193.29 70.63 193.29 33.57 149.36 66.5 193.29 70.63"/><polygon class="cls-61" points="225.96 59.3 193.29 33.57 193.29 70.63 225.96 59.3"/><polygon class="cls-75" points="193.29 33.57 126.27 33.25 149.36 66.5 193.29 33.57"/><polygon class="cls-76" points="149.36 66.5 126.27 33.25 117.38 50.51 149.36 66.5"/><polygon class="cls-77" points="126.27 33.25 70.9 39.97 117.38 50.51 126.27 33.25"/><path class="cls-78" d="M126.27,33.25,77,18.94a147.74,147.74,0,0,0-13.33,8.38L70.9,40Z"/><path class="cls-79" d="M226,59.3l16.37-13.12,1.33-1,1.55-1.25,5.87-4.7a150.77,150.77,0,0,0-22.23-16.8L193.29,33.57Z"/><path class="cls-80" d="M228.85,22.38q-6.33-3.91-13.07-7.22L193.29,33.57Z"/><path class="cls-49" d="M193.29,33.57l22.49-18.41q-6.24-3-12.8-5.52L126.27,33.25Z"/><path class="cls-81" d="M203,9.64A149.45,149.45,0,0,0,150,0c-3.08,0-6.13.1-9.17.29l-14.56,33Z"/><path class="cls-82" d="M140.83.29c-1.18.07-2.36.15-3.54.25L118.67,3.29A148.86,148.86,0,0,0,77,18.94l49.26,14.31Z"/><path class="cls-83" d="M118.67,3.29,137.29.54A148.08,148.08,0,0,0,118.67,3.29Z"/></g></g></svg>