<svg xmlns="http://www.w3.org/2000/svg" viewBox="0 0 210 30.21"><title>blog_title</title><g id="レイヤー_2" data-name="レイヤー 2"><g id="レイヤー_1-2" data-name="レイヤー 1"><path d="M13.72,12.64c-.56.56-1.12,1-1.71,1.57A31.9,31.9,0,0,1,.42,20.65c-.28.07-.42,0-.42-.21s0-.17.17-.28a54.36,54.36,0,0,0,9.6-8.22,33.81,33.81,0,0,0,6-8.16,3.52,3.52,0,0,0,.56-1.36c0-.35-.14-.49-.52-.81A6.84,6.84,0,0,0,15,1.05a.35.35,0,0,1-.25-.31c0-.11.07-.21.25-.28A5.08,5.08,0,0,1,16.87.07a5.73,5.73,0,0,1,2.7,1.19c1.19.81,2.13,1.54,2.13,2.56,0,.42-.21.73-.77.94s-.7.49-1.54,1.51C18.31,7.67,17.19,9,16,10.33a5.58,5.58,0,0,1,.73.56c.81.66,1.23,1,1.23,1.43a1.1,1.1,0,0,1-.25.77c-.21.32-.17.42-.17,1.54,0,5.15.24,9,.24,11.69,0,1.86-.77,2.52-2,2.52-.91,0-1.47-.38-2.07-1.64a8.07,8.07,0,0,1-.8-2.77,2.61,2.61,0,0,1,.35-1.36,3.3,3.3,0,0,0,.31-1.44c.11-2.06.14-5.11.14-8.5Z"/><path d="M52.43,3.85c1.16-.14,1.16-.14,1.79-.8a1.29,1.29,0,0,1,1.12-.63A6.92,6.92,0,0,1,58.21,4.1C59.29,5,60.38,6,60.38,6.93a1.16,1.16,0,0,1-.6,1.12c-.8.56-.87.7-1.26,1.86-1.36,5.11-3.46,9.41-6.75,12.7a22.23,22.23,0,0,1-10.29,5.6,2.38,2.38,0,0,1-.6.11.29.29,0,0,1-.14-.56,24.43,24.43,0,0,0,8.33-7.11A27.6,27.6,0,0,0,54.18,8.54a17.62,17.62,0,0,0,.28-2c0-.38,0-.42-.45-.42s-.95,0-1.19.07c-2.24.35-5.36,1-7.91,1.51.1,1.5.24,3.11.38,4.62.07.7.14,1.47.14,2.13,0,1.37-.28,2.07-1.64,2.07-.74,0-1.3-.49-1.89-1.26A3.37,3.37,0,0,1,41.16,13c0-1.16,0-2.31-.07-3.22,0-.7,0-2-.17-3.08a2.55,2.55,0,0,0-.81-1.75,3.91,3.91,0,0,0-.7-.49c-.21-.11-.31-.21-.31-.35a.4.4,0,0,1,.24-.35,2.06,2.06,0,0,1,1.23-.46,7.3,7.3,0,0,1,2.9,1,2.47,2.47,0,0,1,1.12.91C47.15,4.69,50,4.24,52.43,3.85Z"/><path d="M90.27,7.81a5.17,5.17,0,0,0,.28-1.19c0-.25-.07-.25-.28-.25a6,6,0,0,0-1.19.21c-1,.25-2.77.63-4.73,1.19a6.61,6.61,0,0,0-1.54.7A1.88,1.88,0,0,1,81.48,9a3,3,0,0,1-2-1A4,4,0,0,1,78,5.5a2.87,2.87,0,0,1,.14-.88c.07-.21.18-.31.32-.31a.4.4,0,0,1,.31.14,6.45,6.45,0,0,0,1.09.77,2.91,2.91,0,0,0,1.22.38,16.32,16.32,0,0,0,1.82-.21c1.72-.35,3.75-.77,5.43-1a2.27,2.27,0,0,0,1.75-.84,1.51,1.51,0,0,1,1.15-.59,8.34,8.34,0,0,1,2.94,1.57c1.4,1,2.24,1.93,2.24,2.87a1.12,1.12,0,0,1-.8.91c-.74.35-.74.56-1.26,1.72-1,1.78-2,3.53-3,5.14C94.05,16.94,96,19.43,96,21c0,1.79-1,2.7-2.17,2.7-1,0-1.79-.42-2.66-2.38A10.35,10.35,0,0,0,89,18.24a25.68,25.68,0,0,1-3.54,3.53A26.62,26.62,0,0,1,73,27.23a2.58,2.58,0,0,1-.46.07c-.21,0-.28-.1-.28-.17s.1-.21.25-.28A33.57,33.57,0,0,0,83.2,19.46a28.9,28.9,0,0,0,3.08-3.67,22,22,0,0,0-5.67-3.29c-.18-.07-.28-.18-.28-.28s.14-.28.38-.28a23,23,0,0,1,7.11,1.47A33.57,33.57,0,0,0,90.27,7.81Z"/><path d="M121.38,5.22a20.05,20.05,0,0,0,.18-2.17,1,1,0,0,0-.63-1,8.39,8.39,0,0,0-1-.42c-.21-.07-.31-.18-.31-.32a.58.58,0,0,1,.28-.42,3.27,3.27,0,0,1,1.89-.8,7.87,7.87,0,0,1,2.8.91c1.15.59,1.78,1.12,1.78,1.89a1.07,1.07,0,0,1-.28.7,3.2,3.2,0,0,0-.59,1.4c-.25,1.12-.46,2.2-.7,3.25,1.08-.17,2.17-.31,3.36-.49.63-.1.66-.07,1.29-.73a1.44,1.44,0,0,1,1-.42,6.55,6.55,0,0,1,2.66,1.36c1.26.84,2.14,1.79,2.14,2.52a1.47,1.47,0,0,1-.67,1.12c-.84.53-.84.74-.94,2.14a49,49,0,0,1-1.44,7.73,6.67,6.67,0,0,1-2.06,3.64,4.5,4.5,0,0,1-2.91,1.3,2.13,2.13,0,0,1-2.31-1.89A4,4,0,0,0,124,22.3a17.21,17.21,0,0,0-2-2.07.36.36,0,0,1-.14-.28c0-.17.18-.28.39-.17,1,.38,2.06.84,2.87,1.15a9.36,9.36,0,0,0,2,.46c.59,0,.94-.63,1.29-1.65.84-1.89,1.09-4.48,1.37-7.24.07-.81.1-1.65.1-2.28,0-.38,0-.49-.45-.49a22.84,22.84,0,0,0-2.38.35c-.84.14-1.79.35-2.87.56a33.57,33.57,0,0,1-5,11.31A22.16,22.16,0,0,1,109,30a2.77,2.77,0,0,1-.6.18.22.22,0,0,1-.24-.21.37.37,0,0,1,.17-.32,29.72,29.72,0,0,0,8-9.13,37.73,37.73,0,0,0,3.75-9c-.39.07-.74.17-1,.24a9.61,9.61,0,0,0-2.07.77c-.59.35-.73.6-1.36.6a3.78,3.78,0,0,1-2.35-1.47A4,4,0,0,1,112,9.56a3,3,0,0,1,.14-.88c.07-.21.17-.28.28-.28a.54.54,0,0,1,.35.14,8,8,0,0,0,1.22.84,2.14,2.14,0,0,0,1.19.32,19.54,19.54,0,0,0,2.7-.39c.94-.17,1.89-.31,2.83-.45C121,7.7,121.21,6.51,121.38,5.22ZM136,3.54a2.37,2.37,0,0,1,1.33,2,1.49,1.49,0,0,1-1.37,1.57c-.49,0-.91-.21-1.33-.94a7.39,7.39,0,0,0-2.76-3c-.18-.07-.25-.17-.25-.28s.11-.21.35-.21A7.7,7.7,0,0,1,136,3.54Zm0-3.36a6.84,6.84,0,0,1,3,.56,2.34,2.34,0,0,1,1.47,2,1.34,1.34,0,0,1-1.23,1.47c-.45,0-.8-.14-1.36-.94A7,7,0,0,0,135,.7c-.17-.07-.24-.17-.24-.28s.1-.17.31-.21S135.7.18,136,.18Z"/><path d="M155.37,9.87A1,1,0,0,0,155,9.1a3,3,0,0,0-.84-.7c-.14-.07-.25-.17-.25-.24s.11-.21.28-.32a4.12,4.12,0,0,1,1.51-.45,6.07,6.07,0,0,1,2.83,1.29c1.19.84,2,1.86,2,2.59a1.52,1.52,0,0,1-.73,1.26,4.67,4.67,0,0,0-1.12,1.09A26.91,26.91,0,0,1,151.24,20a24.42,24.42,0,0,1-7.49,3,5.35,5.35,0,0,1-.6.1c-.18,0-.28-.1-.28-.21a.37.37,0,0,1,.17-.28,36.89,36.89,0,0,0,6.62-4.86,31.89,31.89,0,0,0,5.08-6.34A4.4,4.4,0,0,0,155.37,9.87Zm8.26-1.54c0-.14.14-.28.42-.24a13,13,0,0,1,7.66,3.6,7.9,7.9,0,0,1,2.56,5.15c0,1.85-.88,2.8-2.38,2.8s-2.35-1-3.19-3.85a14.47,14.47,0,0,0-2.31-4.69,10.65,10.65,0,0,0-2.59-2.45A.37.37,0,0,1,163.63,8.33Z"/><path d="M195.83,4.17c-.07-1.44-.11-1.79-.84-2.17a5.9,5.9,0,0,0-1.05-.49c-.21-.07-.32-.18-.32-.28a.5.5,0,0,1,.28-.35A4.87,4.87,0,0,1,196.14,0a6.09,6.09,0,0,1,2.56.84c1.29.77,2.06,1.3,2.06,2.1a1.46,1.46,0,0,1-.24.81,2.85,2.85,0,0,0-.35,1.47c-.11,1.22-.18,2.48-.25,3.78.81-.11,1.58-.18,2.31-.25,1-.07,1.09-.17,1.54-.59a2,2,0,0,1,1.4-.46,9.75,9.75,0,0,1,3.26,1c1,.49,1.57,1,1.57,1.92s-.42,1.23-1.33,1.23a14.31,14.31,0,0,1-2.62-.28,19.26,19.26,0,0,0-4.2-.21c-.56,0-1.3.07-2.1.14-.39,4.79-1.47,9.48-5.11,13.09A17.67,17.67,0,0,1,186,29.19a2.77,2.77,0,0,1-.56.11c-.18,0-.28-.11-.28-.21a.32.32,0,0,1,.21-.28A19.43,19.43,0,0,0,192,22.89,21.77,21.77,0,0,0,195.65,12c-1.36.25-2.69.56-3.81.81a4.58,4.58,0,0,0-1.72.77,2.13,2.13,0,0,1-1.36.52,4.26,4.26,0,0,1-2.38-1.29c-.95-.81-1.72-1.79-1.72-2.35a4.78,4.78,0,0,1,.07-.94c.07-.25.14-.35.28-.35a.53.53,0,0,1,.35.14,6.78,6.78,0,0,0,1.37.8,3.31,3.31,0,0,0,1.54.42,27.39,27.39,0,0,0,2.73-.31c1.61-.28,3.18-.53,4.79-.77C195.86,7.77,195.9,6,195.83,4.17Z"/></g></g></svg>