<svg xmlns="http://www.w3.org/2000/svg" viewBox="0 0 980 50"><defs><style>.cls-1{fill:ivory;}</style></defs><title>dai_15</title><g id="レイヤー_2" data-name="レイヤー 2"><g id="レイヤー_1-2" data-name="レイヤー 1"><rect class="cls-1" width="980" height="50"/><path d="M437.41,12.18c-.2-.44-.12-.68.4-.72,3.32-.36,6.32-2,9-2.16,2-.08,3.8.56,4.76,3.32.84,2.4.16,4.72-1.2,6.84-2,3.12-6.32,6.12-11.56,7.12a3.66,3.66,0,0,1-2.48-.4c-1.12,2.2-2.32,4.84-3.72,8.16-.16.4-.36.4-.64.12-.56-.6-1-1.8-.36-4,1-3.64,4.8-11.16,8.28-16.64A3,3,0,0,1,437.41,12.18Zm12.48.8c-.84-2.2-4.84-.12-7.48.64a9,9,0,0,1-1.52,4.4c-1,1.84-2.16,3.68-3.36,5.92C446.49,22.26,451,15.78,449.89,13Z"/><path d="M471.33,34.94c-3.08-.16-4.32-2.84-3.32-6.12.8-2.68,3.32-5.64,5-7.6a9.16,9.16,0,0,1-4.84,1.56,6.14,6.14,0,0,1-5,3.24c-.8,3.4-3.28,7.52-6.24,8.48a4.35,4.35,0,0,1-5.08-1.72c-1.72-2.36-1.12-5.84.6-9,1.52-2.76,4-5,6.44-5.2a2.67,2.67,0,0,1,2.68,1.36c1,1.24,2.12,1.48,1.92,4.4,0,.2-.08.4-.08.64a4.56,4.56,0,0,0,3.12-2.48c-3-1.28,1-6.56,2.56-6.6,1.4,0,.68,2.88-.12,5A10.45,10.45,0,0,0,473.33,19c.52-.36.88-.48,1.2-.08.72.84,1.72,2.72.52,4.08a23.7,23.7,0,0,0-4.52,7c-.76,2.2-.28,3.76,1,3.84,1.6.12,3.64-2.56,4.92-5.48.16-.36.44-.44.6-.08a3.49,3.49,0,0,1-.12,2.6C475.85,33.22,473.53,35.06,471.33,34.94ZM458,21.58a14.78,14.78,0,0,0-3.08,3.76c-1.72,3-2.28,6.68-1.24,7.6s3.52-.52,5.52-4.16a16.75,16.75,0,0,0,1.4-3.28A5,5,0,0,1,458,21.58Zm3.16,0c-.16-1.32-1-1-1.2.16a3,3,0,0,0,1,2.64A9.11,9.11,0,0,0,461.17,21.54Z"/><path d="M480.41,17.62c-.4-.56-.16-.84.44-.8a22.8,22.8,0,0,0,3.32-.16,51.4,51.4,0,0,1,3-5c.36-.52.76-.48,1,0,.44,1.12.44,2.44-.52,4.52a2.5,2.5,0,0,1,2.48,1.2c.28.48.12.76-.48.76a11.93,11.93,0,0,0-3.12.16c-1.56,2.68-3.84,6.56-5.36,9.92-1.32,2.92-.88,5.4.8,5.48S486.05,31,487.53,28c.24-.48.68-.56.84,0a3.35,3.35,0,0,1-.4,2.28c-.52,1.16-3.16,4.68-6.36,4.56-2.64-.08-4.76-3-2.84-7.64.84-2,2.52-5.36,4.24-8.52A3.3,3.3,0,0,1,480.41,17.62Z"/><path d="M494.89,31.5c0,.44,0,.88-.08,1.36A13.76,13.76,0,0,0,499,27.78c.24-.48.64-.52.84,0a4,4,0,0,1-.4,2.4,9.61,9.61,0,0,1-4.8,4.16c-.64,4-2.4,8.48-4.32,10.88-1.36,1.68-2.36,1.84-3.56.8-1-.84-2.2-2.4-1.76-5.8,1.12-8.92,10.32-24.24,14.76-30.88.32-.48.84-.44,1,0,.48,1.36.36,3.08-1.36,6-1.64,2.72-4.4,7.24-6.56,11.44C494.33,27.34,494.93,28.86,494.89,31.5Zm-7.72,13c.88,1.16,3.88-4.36,5.2-9.84a2.84,2.84,0,0,1-2.44-1.6C487.69,38.38,486.25,43.34,487.17,44.5ZM493,30.62c0-1.48-.36-2.72-.64-2.6s-.76,2.28-.8,3.2c0,1.28.32,2.12,1.08,2.28A18.28,18.28,0,0,0,493,30.62Z"/><path d="M517.89,33.62c1.88.12,4.68-2.72,6.19-5.76.25-.52.69-.56.84,0a3.82,3.82,0,0,1-.4,2.44c-.48,1.16-3.43,4.52-6.59,4.4-2.68-.12-4.2-2-3.28-6.24.12-.56.24-1,.4-1.56a7.08,7.08,0,0,1-.92,0,7.93,7.93,0,0,1-1.4-.12c-1,3.24-3.36,6.84-6.08,7.68a4.3,4.3,0,0,1-5.08-1.68c-1.72-2.36-1.12-5.88.68-9,1.56-2.72,3.92-5,6.32-5.2a2.66,2.66,0,0,1,2.72,1.32c1,1.28,2.08,1.52,1.88,4.4a11.37,11.37,0,0,1-.2,1.52,9.83,9.83,0,0,0,1.12.08c.4,0,.84,0,1.24,0a43.62,43.62,0,0,1,9.4-15.76c.56-.6,1.19-.72,1.71-.2a4.22,4.22,0,0,1,.88,4.36,21.8,21.8,0,0,1-3.75,7,15.73,15.73,0,0,1-5.4,4.72C516.53,30.06,516.09,33.5,517.89,33.62Zm-10.2-12a13.38,13.38,0,0,0-3.12,3.72c-1.68,3-2.24,6.72-1.2,7.6s3.56-.52,5.52-4.12a24.35,24.35,0,0,0,1.36-3.08A5.31,5.31,0,0,1,507.69,21.62Zm3.2-.08c-.2-1.28-1-1-1.2.12a3.49,3.49,0,0,0,.88,2.88A7.85,7.85,0,0,0,510.89,21.54Zm12.2-1.64c1.76-2.56,3.35-6.08,2.83-6.44s-3.47,4-6.19,9.16c-.32.6-.6,1.2-.84,1.72A17.75,17.75,0,0,0,523.09,19.9Z"/><path d="M525.41,29a49.38,49.38,0,0,1,5.12-9.72c.36-.48.64-.6,1-.24.6.64.92,2.36,0,4.36-.84,1.76-2.52,4.48-3.36,6.48-1,2.32-.88,3.88.4,3.8,1.8-.08,4-2.72,5.2-5.48.2-.36.48-.32.64,0a2.85,2.85,0,0,1-.28,2.48,7.17,7.17,0,0,1-6,4.16C525.05,34.82,524.29,32.26,525.41,29Zm8.92-10.44a1.44,1.44,0,0,1-2.24-.6,2.48,2.48,0,0,1,.2-3c.64-.68,1.8-.2,2.32.88A2.42,2.42,0,0,1,534.33,18.54Z"/><path d="M548,26.14c-.84,3.4-3.36,7.44-6.32,8.44a4.4,4.4,0,0,1-5-1.76c-1.76-2.32-1.16-5.8.64-9,1.52-2.72,4-5,6.36-5.2A2.73,2.73,0,0,1,546.33,20c.92,1.24,2.12,1.52,1.88,4.4,0,.32,0,.6-.08.92.24,0,.48-.08.8-.08s.28.2.12.4A1.63,1.63,0,0,1,548,26.14Zm-3.4-1a5,5,0,0,1-1.84-3.52,14,14,0,0,0-3.08,3.76c-1.68,3-2.28,6.72-1.24,7.6s3.56-.48,5.52-4.16a21.11,21.11,0,0,0,1.4-3.2A3,3,0,0,1,544.57,25.14Zm1.36-3.56c-.2-1.28-1-1-1.2.12a3.29,3.29,0,0,0,.88,2.84A7.66,7.66,0,0,0,545.93,21.58Z"/></g></g></svg>