<svg xmlns="http://www.w3.org/2000/svg" viewBox="0 0 36 36"><defs><style>.cls-1{fill:#1e90ff;}</style></defs><title>icon_path_2</title><g id="レイヤー_2" data-name="レイヤー 2"><g id="レイヤー_1-2" data-name="レイヤー 1"><polygon class="cls-1" points="13 23 13 13 23 13 18 18 23 23 13 23"/><polygon class="cls-1" points="26 26 26 36 36 36 26 26"/><path class="cls-1" d="M10,10H0V3A3,3,0,0,1,3,0h7Z"/><rect class="cls-1" y="13" width="10" height="10"/><path class="cls-1" d="M10,36H3a3,3,0,0,1-3-3V26H10Z"/><polygon class="cls-1" points="13 10 23 10 23 0 13 10"/><polygon class="cls-1" points="36 0 26 0 26 10 36 0"/><polygon class="cls-1" points="23 36 23 26 13 26 23 36"/></g></g></svg>