<svg xmlns="http://www.w3.org/2000/svg" viewBox="0 0 173.05 20"><defs><style>.cls-1{fill:#fff;}.cls-2{fill:#b4fffd;}.cls-3{fill:#ff94ac;}</style></defs><title>kawanami_icon</title><g id="レイヤー_2" data-name="レイヤー 2"><g id="レイヤー_1-2" data-name="レイヤー 1"><path class="cls-1" d="M29,7.09h3.3v.75h-1L29,10.53l3.06,3.69h.75V15H30.69L27.9,11.23h-.55v3h1.11V15h-3.8v-.75h1.11V4.47H24.5V3.72h2.85v6.91h.52l2.3-2.79H29Z"/><path class="cls-1" d="M40,12.88c0,.23,0,.47,0,.7s0,.45,0,.64h1V15H38.66l-.16-1.43h-.07a1.6,1.6,0,0,1-.28.59,2.06,2.06,0,0,1-.51.51,2.43,2.43,0,0,1-.72.36,3.08,3.08,0,0,1-.93.13,2.77,2.77,0,0,1-.94-.15,2.28,2.28,0,0,1-.75-.42,1.72,1.72,0,0,1-.48-.65,2,2,0,0,1-.18-.86A2.27,2.27,0,0,1,34,11.83a2.07,2.07,0,0,1,.91-.75,5.09,5.09,0,0,1,1.5-.4,17.69,17.69,0,0,1,2.1-.14,3.4,3.4,0,0,0,0-.45V9.67a2.57,2.57,0,0,0-.32-1.4,1.24,1.24,0,0,0-1.12-.49l-.64,0a1.55,1.55,0,0,0-.63.18V9.34H34.42V7.68a7.54,7.54,0,0,1,1.29-.51,5.94,5.94,0,0,1,1.73-.23,3.76,3.76,0,0,1,1.38.22,2.06,2.06,0,0,1,.8.57,1.71,1.71,0,0,1,.36.8,4.28,4.28,0,0,1,.09.87c0,.63,0,1.24,0,1.81S40,12.34,40,12.88Zm-3.32,1.25a1.84,1.84,0,0,0,.65-.11,1.88,1.88,0,0,0,.5-.29,2,2,0,0,0,.38-.38,3.93,3.93,0,0,0,.26-.41V11.16a7.52,7.52,0,0,0-1.58.13,3.05,3.05,0,0,0-1,.33,1.2,1.2,0,0,0-.47.51,1.59,1.59,0,0,0-.12.62,1.43,1.43,0,0,0,.35,1A1.37,1.37,0,0,0,36.67,14.13Z"/><path class="cls-1" d="M44.17,15l-1.9-7.13h-.9V7.09h3.54v.75h-1l1.24,5.06.18,1.15h.09l.23-1.17,1.8-5.59h1.18l1.53,5.26.33,1.5h.08l.28-1.47L52,7.84h-.93V7.09H54v.75h-1l-2,7.13H49.32l-1.2-4.49a.62.62,0,0,1,0-.21c0-.14-.06-.29-.1-.46s-.09-.41-.15-.65h-.09l-.18.65-.13.45a1.53,1.53,0,0,0-.06.22L45.83,15Z"/><path class="cls-1" d="M60.83,12.88c0,.23,0,.47,0,.7s0,.45,0,.64h1V15h-2.4l-.15-1.43h-.08a1.75,1.75,0,0,1-.27.59,2.46,2.46,0,0,1-.51.51,2.62,2.62,0,0,1-.73.36,3,3,0,0,1-.93.13,2.85,2.85,0,0,1-.94-.15,2.34,2.34,0,0,1-.74-.42,1.86,1.86,0,0,1-.49-.65,2.13,2.13,0,0,1-.17-.86,2.19,2.19,0,0,1,.31-1.22,2,2,0,0,1,.91-.75,4.92,4.92,0,0,1,1.5-.4,17.51,17.51,0,0,1,2.09-.14,3.42,3.42,0,0,0,0-.45V9.67A2.57,2.57,0,0,0,59,8.27a1.26,1.26,0,0,0-1.13-.49l-.64,0a1.64,1.64,0,0,0-.63.18V9.34H55.26V7.68a7.41,7.41,0,0,1,1.28-.51,6,6,0,0,1,1.74-.23,3.76,3.76,0,0,1,1.38.22,2.13,2.13,0,0,1,.8.57,1.94,1.94,0,0,1,.36.8,5.12,5.12,0,0,1,.08.87c0,.63,0,1.24,0,1.81S60.83,12.34,60.83,12.88Zm-3.32,1.25a1.93,1.93,0,0,0,.65-.11,2.25,2.25,0,0,0,.5-.29,1.9,1.9,0,0,0,.37-.38,2.76,2.76,0,0,0,.26-.41V11.16a7.59,7.59,0,0,0-1.58.13,3,3,0,0,0-1,.33,1.09,1.09,0,0,0-.47.51,1.44,1.44,0,0,0-.13.62,1.39,1.39,0,0,0,.36,1A1.37,1.37,0,0,0,57.51,14.13Z"/><path class="cls-1" d="M72.13,15H68.46v-.75h1V10.45a3.9,3.9,0,0,0-.36-1.84A1.37,1.37,0,0,0,67.77,8a2.11,2.11,0,0,0-.77.13,2.16,2.16,0,0,0-.63.36,2.2,2.2,0,0,0-.48.53,2.31,2.31,0,0,0-.31.63v4.62h1V15H62.9v-.75H64V7.84H62.9V7.09h2.68V8.65h0a3.29,3.29,0,0,1,1-1.21,2.62,2.62,0,0,1,1.61-.5,4.38,4.38,0,0,1,1.2.15,1.82,1.82,0,0,1,.88.51,2.62,2.62,0,0,1,.54,1,5.88,5.88,0,0,1,.19,1.6v4h1.1Z"/><path class="cls-1" d="M79.41,12.88c0,.23,0,.47,0,.7s0,.45,0,.64h1V15H78.08l-.16-1.43h-.07a1.6,1.6,0,0,1-.28.59,2.06,2.06,0,0,1-.51.51,2.37,2.37,0,0,1-.73.36,3,3,0,0,1-.92.13,2.77,2.77,0,0,1-.94-.15,2.28,2.28,0,0,1-.75-.42,1.72,1.72,0,0,1-.48-.65,2,2,0,0,1-.18-.86,2.27,2.27,0,0,1,.31-1.22,2.07,2.07,0,0,1,.91-.75,5.09,5.09,0,0,1,1.5-.4,17.69,17.69,0,0,1,2.1-.14,3.4,3.4,0,0,0,0-.45V9.67a2.57,2.57,0,0,0-.32-1.4,1.24,1.24,0,0,0-1.12-.49l-.64,0A1.55,1.55,0,0,0,75.2,8V9.34H73.84V7.68a7.54,7.54,0,0,1,1.29-.51,5.94,5.94,0,0,1,1.73-.23,3.76,3.76,0,0,1,1.38.22,2.06,2.06,0,0,1,.8.57,1.71,1.71,0,0,1,.36.8,4.28,4.28,0,0,1,.09.87c0,.63,0,1.24,0,1.81S79.41,12.34,79.41,12.88Zm-3.32,1.25a1.74,1.74,0,0,0,1.15-.4,2,2,0,0,0,.38-.38,3.93,3.93,0,0,0,.26-.41V11.16a7.52,7.52,0,0,0-1.58.13,3.05,3.05,0,0,0-1,.33,1.2,1.2,0,0,0-.47.51,1.59,1.59,0,0,0-.12.62,1.43,1.43,0,0,0,.35,1A1.37,1.37,0,0,0,76.09,14.13Z"/><path class="cls-1" d="M90.18,15H86.57v-.75h1V10.57a9.5,9.5,0,0,0,0-1.12,2.34,2.34,0,0,0-.21-.83,1.06,1.06,0,0,0-.46-.5A1.58,1.58,0,0,0,86.05,8a1.54,1.54,0,0,0-.65.13,1.62,1.62,0,0,0-.54.35,2.39,2.39,0,0,0-.42.52,3.14,3.14,0,0,0-.27.62v4.65h1V15H81.48v-.75h1.11V7.84H81.48V7.09h2.69V8.68h0a2.56,2.56,0,0,1,.91-1.23,2.49,2.49,0,0,1,1.6-.51,4,4,0,0,1,.77.08,2.14,2.14,0,0,1,.7.28,1.89,1.89,0,0,1,.54.58,2.63,2.63,0,0,1,.33,1,3.16,3.16,0,0,1,.39-.72A3.1,3.1,0,0,1,90,7.52a3.22,3.22,0,0,1,.75-.42,2.73,2.73,0,0,1,.92-.16,3.73,3.73,0,0,1,1.07.15,1.71,1.71,0,0,1,.77.52,2.36,2.36,0,0,1,.45,1,6.65,6.65,0,0,1,.15,1.62v4h1.12V15H91.56v-.75h1V10.29a7.57,7.57,0,0,0-.06-1,1.85,1.85,0,0,0-.23-.73,1,1,0,0,0-.46-.45A1.67,1.67,0,0,0,91,8a1.55,1.55,0,0,0-1.23.49,2.81,2.81,0,0,0-.64,1.28v4.5h1.05Z"/><path class="cls-1" d="M100,15h-3.8v-.75H97.3V7.84H96.19V7.09h2.69v7.13H100ZM97,4.66A.9.9,0,0,1,97.28,4a1.21,1.21,0,0,1,.79-.25,1.16,1.16,0,0,1,.8.25.88.88,0,0,1,.29.69.84.84,0,0,1-.29.69,1.17,1.17,0,0,1-.8.26,1.21,1.21,0,0,1-.79-.26A.85.85,0,0,1,97,4.66Z"/><path class="cls-1" d="M100.6,17.07h6.9v.84h-6.9Z"/><path class="cls-1" d="M111.81,18H108v-.75h1.11V7.84H108V7.09h2.69V8.67h0a3,3,0,0,1,.94-1.26,2.58,2.58,0,0,1,1.6-.47,2.92,2.92,0,0,1,2.3.92,4.43,4.43,0,0,1,.82,3,5.24,5.24,0,0,1-.28,1.78A3.76,3.76,0,0,1,115.3,14a3.39,3.39,0,0,1-1.25.85,4.23,4.23,0,0,1-1.63.29h-.53l-.43,0a2.62,2.62,0,0,1-.38-.09l-.38-.13v2.37h1.11Zm.85-10a1.75,1.75,0,0,0-1.28.46,2.69,2.69,0,0,0-.68,1.29v4.4a1.71,1.71,0,0,0,.67.26,5.12,5.12,0,0,0,1,.07,1.92,1.92,0,0,0,1-.26,2.25,2.25,0,0,0,.73-.74,3.56,3.56,0,0,0,.46-1.12,6,6,0,0,0,.16-1.45,6.15,6.15,0,0,0-.11-1.18,2.87,2.87,0,0,0-.33-.91,1.65,1.65,0,0,0-.63-.6A1.89,1.89,0,0,0,112.66,8Z"/><path class="cls-1" d="M117.72,11A5,5,0,0,1,118,9.28,3.62,3.62,0,0,1,118.8,8a3.55,3.55,0,0,1,1.26-.79,4.78,4.78,0,0,1,1.64-.27,4.94,4.94,0,0,1,1.81.3,3.17,3.17,0,0,1,1.23.82,3.38,3.38,0,0,1,.71,1.29,5.62,5.62,0,0,1,.23,1.69,5.23,5.23,0,0,1-.27,1.75,3.44,3.44,0,0,1-.8,1.27,3.3,3.3,0,0,1-1.25.79,4.86,4.86,0,0,1-1.66.27,5,5,0,0,1-1.77-.29,3.38,3.38,0,0,1-1.24-.83,3.3,3.3,0,0,1-.73-1.28A5.5,5.5,0,0,1,117.72,11Zm1.68,0a6.19,6.19,0,0,0,.13,1.33,3,3,0,0,0,.45,1.07,2.11,2.11,0,0,0,.8.71,2.41,2.41,0,0,0,1.19.26,1.72,1.72,0,0,0,1.46-.81A4.51,4.51,0,0,0,124,11a6.28,6.28,0,0,0-.13-1.34,3.3,3.3,0,0,0-.43-1.08,2.15,2.15,0,0,0-.75-.72,2.29,2.29,0,0,0-1.12-.25,1.84,1.84,0,0,0-1.58.81A4.39,4.39,0,0,0,119.4,11Z"/><path class="cls-1" d="M130.63,8.44a2.34,2.34,0,0,0-.57.42,3.67,3.67,0,0,0-.48.69v4.67h1.31V15h-4v-.75H128V7.84H126.9V7.09h2.68V8.61h.06a3.66,3.66,0,0,1,.6-.86,4.13,4.13,0,0,1,.78-.66h1.44V8.44Z"/><path class="cls-1" d="M133.12,7.09h1.34V5.22H136V7.09h2.49v1H136v4.38a2.72,2.72,0,0,0,.24,1.34.85.85,0,0,0,.78.39,1.86,1.86,0,0,0,.81-.17,5.3,5.3,0,0,0,.62-.36l.37.59a2.37,2.37,0,0,1-.36.29,3.43,3.43,0,0,1-.54.29,3.93,3.93,0,0,1-.66.23,3.22,3.22,0,0,1-.76.09A2.11,2.11,0,0,1,135,14.6a2.33,2.33,0,0,1-.53-1.72V8.05h-1.34Z"/><path class="cls-1" d="M144.34,3.72a4.41,4.41,0,0,1,.94.09,5.27,5.27,0,0,1,.62.16V5.43h-1.44v-1a3.66,3.66,0,0,0-.86.09,1.23,1.23,0,0,0-.61.34,1.66,1.66,0,0,0-.36.7,4.58,4.58,0,0,0-.12,1.16v.33h1.92v1h-1.92v6.17h1.61V15h-4.29v-.75h1.11V8.05h-1.28v-1h1.28V6.85a2.93,2.93,0,0,1,.91-2.32A3.59,3.59,0,0,1,144.34,3.72Z"/><path class="cls-1" d="M145.59,11a5,5,0,0,1,.28-1.76,3.62,3.62,0,0,1,.8-1.28,3.55,3.55,0,0,1,1.26-.79,4.78,4.78,0,0,1,1.64-.27,4.94,4.94,0,0,1,1.81.3,3.17,3.17,0,0,1,1.23.82,3.38,3.38,0,0,1,.71,1.29,5.62,5.62,0,0,1,.23,1.69,5.23,5.23,0,0,1-.27,1.75,3.44,3.44,0,0,1-.8,1.27,3.3,3.3,0,0,1-1.25.79,4.86,4.86,0,0,1-1.66.27,5,5,0,0,1-1.77-.29,3.38,3.38,0,0,1-1.24-.83,3.3,3.3,0,0,1-.73-1.28A5.5,5.5,0,0,1,145.59,11Zm1.68,0a6.19,6.19,0,0,0,.13,1.33,3.14,3.14,0,0,0,.45,1.07,2.11,2.11,0,0,0,.8.71,2.41,2.41,0,0,0,1.19.26,1.72,1.72,0,0,0,1.46-.81,4.51,4.51,0,0,0,.57-2.56,6.28,6.28,0,0,0-.13-1.34,3.3,3.3,0,0,0-.43-1.08,2.15,2.15,0,0,0-.75-.72,2.29,2.29,0,0,0-1.12-.25,1.84,1.84,0,0,0-1.58.81A4.39,4.39,0,0,0,147.27,11Z"/><path class="cls-1" d="M158.71,15h-3.79v-.75H156V4.47h-1.28V3.72h2.85v10.5h1.11Z"/><path class="cls-1" d="M163.8,15H160v-.75h1.11V7.84H160V7.09h2.69v7.13h1.11Zm-3-10.31a.9.9,0,0,1,.31-.69,1.21,1.21,0,0,1,.79-.25,1.16,1.16,0,0,1,.8.25.88.88,0,0,1,.29.69.84.84,0,0,1-.29.69,1.17,1.17,0,0,1-.8.26,1.21,1.21,0,0,1-.79-.26A.85.85,0,0,1,160.78,4.66Z"/><path class="cls-1" d="M165.09,11a5,5,0,0,1,.28-1.76,3.62,3.62,0,0,1,.8-1.28,3.55,3.55,0,0,1,1.26-.79,4.78,4.78,0,0,1,1.64-.27,4.94,4.94,0,0,1,1.81.3,3.17,3.17,0,0,1,1.23.82,3.38,3.38,0,0,1,.71,1.29,5.62,5.62,0,0,1,.23,1.69,5.23,5.23,0,0,1-.27,1.75,3.44,3.44,0,0,1-.8,1.27,3.3,3.3,0,0,1-1.25.79,4.86,4.86,0,0,1-1.66.27,5,5,0,0,1-1.77-.29,3.38,3.38,0,0,1-1.24-.83,3.3,3.3,0,0,1-.73-1.28A5.5,5.5,0,0,1,165.09,11Zm1.68,0a6.19,6.19,0,0,0,.13,1.33,3.14,3.14,0,0,0,.45,1.07,2.11,2.11,0,0,0,.8.71,2.41,2.41,0,0,0,1.19.26,1.72,1.72,0,0,0,1.46-.81,4.51,4.51,0,0,0,.57-2.56,6.28,6.28,0,0,0-.13-1.34,3.3,3.3,0,0,0-.43-1.08,2.15,2.15,0,0,0-.75-.72,2.29,2.29,0,0,0-1.12-.25,1.84,1.84,0,0,0-1.58.81A4.39,4.39,0,0,0,166.77,11Z"/><circle class="cls-2" cx="5.86" cy="5.86" r="5.86"/><circle class="cls-3" cx="5.86" cy="14.14" r="5.86"/><path class="cls-2" d="M20,14.14A5.83,5.83,0,0,0,18.29,10,5.87,5.87,0,0,1,10,10a5.86,5.86,0,1,0,10,4.14Z"/><path class="cls-3" d="M14.14,0A5.83,5.83,0,0,0,10,1.71,5.87,5.87,0,0,1,10,10,5.86,5.86,0,1,0,14.14,0Z"/></g></g></svg>