<svg xmlns="http://www.w3.org/2000/svg" viewBox="0 0 148.56 14.25"><defs><style>.cls-1{fill:#fff;}</style></defs><title>kawanami_portfolio</title><g id="レイヤー_2" data-name="レイヤー 2"><g id="レイヤー_1-2" data-name="レイヤー 1"><path class="cls-1" d="M4.53,3.38h3.3v.74h-1L4.54,6.81,7.61,10.5h.75v.75H6.2L3.41,7.52H2.85v3H4v.75H.17V10.5H1.28V.75H0V0H2.85V6.92h.53l2.29-2.8H4.53Z"/><path class="cls-1" d="M15.5,9.17c0,.23,0,.46,0,.69s0,.45,0,.64h1v.75h-2.4L14,9.83h-.08a1.79,1.79,0,0,1-.27.58,2.46,2.46,0,0,1-.51.51,2.62,2.62,0,0,1-.73.36,3,3,0,0,1-.93.14,3.14,3.14,0,0,1-.94-.15,2.55,2.55,0,0,1-.74-.42,1.9,1.9,0,0,1-.49-.66,2.13,2.13,0,0,1-.17-.86,2.15,2.15,0,0,1,.31-1.21,1.92,1.92,0,0,1,.91-.76,4.92,4.92,0,0,1,1.5-.4A15.78,15.78,0,0,1,14,6.83a3.73,3.73,0,0,0,0-.46V6a2.57,2.57,0,0,0-.32-1.4,1.26,1.26,0,0,0-1.13-.49l-.64,0a1.64,1.64,0,0,0-.63.18V5.62H9.93V4a7.41,7.41,0,0,1,1.28-.51A6,6,0,0,1,13,3.23a3.78,3.78,0,0,1,1.38.21,2,2,0,0,1,.79.57,1.84,1.84,0,0,1,.37.8,5.24,5.24,0,0,1,.08.88c0,.62,0,1.23,0,1.8S15.5,8.62,15.5,9.17Zm-3.32,1.24a1.93,1.93,0,0,0,.65-.11,2.25,2.25,0,0,0,.5-.29,1.9,1.9,0,0,0,.37-.38,3.34,3.34,0,0,0,.26-.4V7.44a7.59,7.59,0,0,0-1.58.13,3.25,3.25,0,0,0-1,.33,1.09,1.09,0,0,0-.47.51,1.44,1.44,0,0,0-.13.62,1.39,1.39,0,0,0,.36,1A1.37,1.37,0,0,0,12.18,10.41Z"/><path class="cls-1" d="M19.68,11.25l-1.9-7.13h-.9V3.38h3.54v.74h-1l1.25,5.06.17,1.15h.09l.23-1.16L23,3.57h1.18l1.54,5.26.33,1.5h.07l.29-1.46,1.18-4.75h-.93V3.38H29.5v.74h-.94l-2,7.13H24.83L23.62,6.77l-.05-.22c0-.14-.06-.29-.1-.46s-.09-.4-.14-.65h-.09c-.07.26-.14.47-.19.65l-.13.45a1.49,1.49,0,0,0-.06.23l-1.53,4.48Z"/><path class="cls-1" d="M36.33,9.17c0,.23,0,.46,0,.69s0,.45,0,.64h1v.75H35l-.16-1.42h-.07a1.63,1.63,0,0,1-.28.58,2.06,2.06,0,0,1-.51.51,2.37,2.37,0,0,1-.73.36,3,3,0,0,1-.92.14,3,3,0,0,1-.94-.15,2.48,2.48,0,0,1-.75-.42,1.76,1.76,0,0,1-.48-.66A2,2,0,0,1,30,9.33a2.24,2.24,0,0,1,.31-1.21,2,2,0,0,1,.91-.76A5.09,5.09,0,0,1,32.7,7a15.94,15.94,0,0,1,2.1-.13,3.67,3.67,0,0,0,0-.46V6a2.57,2.57,0,0,0-.32-1.4,1.24,1.24,0,0,0-1.12-.49l-.64,0a1.55,1.55,0,0,0-.63.18V5.62H30.76V4a7.54,7.54,0,0,1,1.29-.51,6,6,0,0,1,1.73-.22,3.78,3.78,0,0,1,1.38.21A2.06,2.06,0,0,1,36,4a1.71,1.71,0,0,1,.36.8,4.38,4.38,0,0,1,.09.88c0,.62,0,1.23,0,1.8S36.33,8.62,36.33,9.17ZM33,10.41a1.74,1.74,0,0,0,1.15-.4,2,2,0,0,0,.38-.38c.1-.14.19-.28.26-.4V7.44a7.52,7.52,0,0,0-1.58.13,3.33,3.33,0,0,0-1,.33,1.2,1.2,0,0,0-.47.51,1.59,1.59,0,0,0-.12.62,1.43,1.43,0,0,0,.35,1A1.37,1.37,0,0,0,33,10.41Z"/><path class="cls-1" d="M47.64,11.25H44V10.5h1V6.73a3.89,3.89,0,0,0-.37-1.84,1.34,1.34,0,0,0-1.31-.66,2,2,0,0,0-.78.14,2.45,2.45,0,0,0-.63.36,2.65,2.65,0,0,0-.48.52,3.07,3.07,0,0,0-.31.63V10.5h1v.75H38.4V10.5h1.11V4.12H38.4V3.38h2.68V4.94h0a3.3,3.3,0,0,1,1-1.22,2.63,2.63,0,0,1,1.61-.49,4.35,4.35,0,0,1,1.2.14,1.8,1.8,0,0,1,.88.51,2.44,2.44,0,0,1,.54,1,5.59,5.59,0,0,1,.19,1.61v4h1.11Z"/><path class="cls-1" d="M54.92,9.17c0,.23,0,.46,0,.69s0,.45,0,.64h1v.75h-2.4l-.15-1.42h-.08a1.79,1.79,0,0,1-.27.58,2.46,2.46,0,0,1-.51.51,2.62,2.62,0,0,1-.73.36,3,3,0,0,1-.93.14,3.14,3.14,0,0,1-.94-.15,2.55,2.55,0,0,1-.74-.42,1.9,1.9,0,0,1-.49-.66,2.13,2.13,0,0,1-.17-.86,2.15,2.15,0,0,1,.31-1.21,1.92,1.92,0,0,1,.91-.76,4.92,4.92,0,0,1,1.5-.4,15.67,15.67,0,0,1,2.09-.13,3.73,3.73,0,0,0,0-.46V6a2.57,2.57,0,0,0-.32-1.4A1.26,1.26,0,0,0,52,4.06l-.64,0a1.64,1.64,0,0,0-.63.18V5.62H49.35V4a7.41,7.41,0,0,1,1.28-.51,6,6,0,0,1,1.74-.22,3.78,3.78,0,0,1,1.38.21,2,2,0,0,1,.79.57,1.84,1.84,0,0,1,.37.8,5.24,5.24,0,0,1,.08.88c0,.62,0,1.23,0,1.8S54.92,8.62,54.92,9.17ZM51.6,10.41a1.93,1.93,0,0,0,.65-.11,2.25,2.25,0,0,0,.5-.29,1.9,1.9,0,0,0,.37-.38,3.34,3.34,0,0,0,.26-.4V7.44a7.59,7.59,0,0,0-1.58.13,3.25,3.25,0,0,0-.95.33,1.09,1.09,0,0,0-.47.51,1.44,1.44,0,0,0-.13.62,1.39,1.39,0,0,0,.36,1A1.37,1.37,0,0,0,51.6,10.41Z"/><path class="cls-1" d="M65.68,11.25H62.07V10.5h1V6.85c0-.41,0-.79-.05-1.12a2.87,2.87,0,0,0-.21-.83,1.23,1.23,0,0,0-.46-.5,1.61,1.61,0,0,0-.78-.17,1.59,1.59,0,0,0-.66.13,1.73,1.73,0,0,0-.54.35,2.09,2.09,0,0,0-.41.52,2.67,2.67,0,0,0-.28.62V10.5h1v.75H57V10.5h1.1V4.12H57V3.38h2.68V5h0a2.67,2.67,0,0,1,.91-1.23,2.53,2.53,0,0,1,1.6-.5A3.94,3.94,0,0,1,63,3.3a2.06,2.06,0,0,1,.7.28,2.19,2.19,0,0,1,.55.58,2.63,2.63,0,0,1,.32,1,3.2,3.2,0,0,1,.4-.72,3,3,0,0,1,.58-.61,3.29,3.29,0,0,1,.76-.42,2.67,2.67,0,0,1,.91-.15,3.52,3.52,0,0,1,1.08.15,1.66,1.66,0,0,1,.76.51,2.37,2.37,0,0,1,.46,1,7.25,7.25,0,0,1,.15,1.62v4h1.11v.75H67.07V10.5h1V6.57a7.68,7.68,0,0,0,0-1,2,2,0,0,0-.23-.73,1.07,1.07,0,0,0-.47-.45,1.63,1.63,0,0,0-.79-.16,1.58,1.58,0,0,0-1.24.49A2.91,2.91,0,0,0,64.63,6v4.5h1.05Z"/><path class="cls-1" d="M75.49,11.25H71.7V10.5h1.11V4.12H71.7V3.38h2.68V10.5h1.11ZM72.48.94a.86.86,0,0,1,.31-.69A1.16,1.16,0,0,1,73.57,0a1.21,1.21,0,0,1,.81.25.91.91,0,0,1,.29.69.87.87,0,0,1-.29.69,1.16,1.16,0,0,1-.81.26,1.12,1.12,0,0,1-.78-.26A.82.82,0,0,1,72.48.94Z"/><path class="cls-1" d="M76.11,13.35H83v.84h-6.9Z"/><path class="cls-1" d="M87.31,14.25H83.52V13.5h1.11V4.12H83.52V3.38H86.2V5h0a3,3,0,0,1,.94-1.26,2.52,2.52,0,0,1,1.59-.46,3,3,0,0,1,2.31.91,4.49,4.49,0,0,1,.81,3,5.46,5.46,0,0,1-.27,1.78,3.62,3.62,0,0,1-.8,1.35,3.24,3.24,0,0,1-1.24.85,4.26,4.26,0,0,1-1.63.3l-.53,0a2.68,2.68,0,0,1-.43-.05l-.38-.08-.39-.14V13.5h1.11Zm.86-10a1.73,1.73,0,0,0-1.28.46A2.62,2.62,0,0,0,86.2,6v4.4a1.77,1.77,0,0,0,.67.26,5.19,5.19,0,0,0,1,.07,1.92,1.92,0,0,0,1-.26,2.27,2.27,0,0,0,.74-.74A3.81,3.81,0,0,0,90,8.59a6.52,6.52,0,0,0,.15-1.45A6.18,6.18,0,0,0,90.09,6a2.65,2.65,0,0,0-.34-.91,1.56,1.56,0,0,0-.62-.6A1.89,1.89,0,0,0,88.17,4.23Z"/><path class="cls-1" d="M93.22,7.32a5.07,5.07,0,0,1,.29-1.76,3.57,3.57,0,0,1,.8-1.28,3.24,3.24,0,0,1,1.26-.78,4.52,4.52,0,0,1,1.64-.27,4.85,4.85,0,0,1,1.8.29,3.21,3.21,0,0,1,1.24.82A3.67,3.67,0,0,1,101,5.63a6,6,0,0,1,.23,1.69,5,5,0,0,1-.28,1.75,3.31,3.31,0,0,1-2,2.06,4.76,4.76,0,0,1-1.65.27,5,5,0,0,1-1.77-.29,3.28,3.28,0,0,1-2-2.11A5.5,5.5,0,0,1,93.22,7.32Zm1.68,0A6.1,6.1,0,0,0,95,8.65a3.13,3.13,0,0,0,.44,1.07,2.19,2.19,0,0,0,.8.71,2.47,2.47,0,0,0,1.2.26,1.72,1.72,0,0,0,1.46-.81,4.49,4.49,0,0,0,.57-2.56A6.26,6.26,0,0,0,99.37,6a3.09,3.09,0,0,0-.43-1.08,1.89,1.89,0,0,0-.75-.71,2.26,2.26,0,0,0-1.12-.26,1.85,1.85,0,0,0-1.58.81A4.46,4.46,0,0,0,94.9,7.32Z"/><path class="cls-1" d="M106.14,4.73a2.11,2.11,0,0,0-.57.42,3.91,3.91,0,0,0-.48.68V10.5h1.3v.75h-4V10.5h1.11V4.12H102.4V3.38h2.69V4.89h.06a3.66,3.66,0,0,1,.6-.86,3.74,3.74,0,0,1,.78-.65H108V4.73Z"/><path class="cls-1" d="M108.63,3.38H110V1.5h1.58V3.38H114v1h-2.49V8.71a2.7,2.7,0,0,0,.24,1.34.85.85,0,0,0,.78.39,1.66,1.66,0,0,0,.8-.17,4.56,4.56,0,0,0,.62-.35l.38.58a2.07,2.07,0,0,1-.37.29,2.42,2.42,0,0,1-.53.29,3.75,3.75,0,0,1-.67.23,3.16,3.16,0,0,1-.76.09,2.07,2.07,0,0,1-1.53-.52A2.28,2.28,0,0,1,110,9.17V4.33h-1.33Z"/><path class="cls-1" d="M119.85,0a4.48,4.48,0,0,1,.94.09l.62.16V1.71H120v-1a3.6,3.6,0,0,0-.86.09,1.2,1.2,0,0,0-.61.35,1.56,1.56,0,0,0-.36.69A4.58,4.58,0,0,0,118,3v.34h1.92v1H118V10.5h1.6v.75h-4.29V10.5h1.11V4.33h-1.27v-1h1.27V3.13a3,3,0,0,1,.91-2.32A3.63,3.63,0,0,1,119.85,0Z"/><path class="cls-1" d="M121.09,7.32a5.07,5.07,0,0,1,.29-1.76,3.57,3.57,0,0,1,.8-1.28,3.24,3.24,0,0,1,1.26-.78,4.52,4.52,0,0,1,1.64-.27,4.85,4.85,0,0,1,1.8.29,3.21,3.21,0,0,1,1.24.82,3.67,3.67,0,0,1,.71,1.29,6,6,0,0,1,.23,1.69,5,5,0,0,1-.28,1.75,3.31,3.31,0,0,1-2,2.06,4.76,4.76,0,0,1-1.65.27,5,5,0,0,1-1.77-.29,3.28,3.28,0,0,1-2-2.11A5.5,5.5,0,0,1,121.09,7.32Zm1.68,0a6.1,6.1,0,0,0,.14,1.33,3.13,3.13,0,0,0,.44,1.07,2.19,2.19,0,0,0,.8.71,2.47,2.47,0,0,0,1.2.26,1.72,1.72,0,0,0,1.46-.81,4.49,4.49,0,0,0,.57-2.56A6.26,6.26,0,0,0,127.24,6a3.09,3.09,0,0,0-.43-1.08,1.89,1.89,0,0,0-.75-.71,2.26,2.26,0,0,0-1.12-.26,1.85,1.85,0,0,0-1.58.81A4.46,4.46,0,0,0,122.77,7.32Z"/><path class="cls-1" d="M134.22,11.25h-3.8V10.5h1.11V.75h-1.27V0h2.85V10.5h1.11Z"/><path class="cls-1" d="M139.3,11.25h-3.79V10.5h1.11V4.12h-1.11V3.38h2.68V10.5h1.11Zm-3-10.31a.86.86,0,0,1,.31-.69,1.16,1.16,0,0,1,.78-.25,1.21,1.21,0,0,1,.81.25.91.91,0,0,1,.29.69.87.87,0,0,1-.29.69,1.16,1.16,0,0,1-.81.26,1.12,1.12,0,0,1-.78-.26A.82.82,0,0,1,136.29.94Z"/><path class="cls-1" d="M140.59,7.32a5.07,5.07,0,0,1,.29-1.76,3.57,3.57,0,0,1,.8-1.28,3.24,3.24,0,0,1,1.26-.78,4.52,4.52,0,0,1,1.64-.27,4.85,4.85,0,0,1,1.8.29,3.21,3.21,0,0,1,1.24.82,3.67,3.67,0,0,1,.71,1.29,6,6,0,0,1,.23,1.69,5,5,0,0,1-.28,1.75,3.31,3.31,0,0,1-2.05,2.06,4.76,4.76,0,0,1-1.65.27,5,5,0,0,1-1.77-.29,3.28,3.28,0,0,1-2-2.11A5.5,5.5,0,0,1,140.59,7.32Zm1.68,0a6.1,6.1,0,0,0,.14,1.33,3.13,3.13,0,0,0,.44,1.07,2.19,2.19,0,0,0,.8.71,2.47,2.47,0,0,0,1.2.26,1.72,1.72,0,0,0,1.46-.81,4.49,4.49,0,0,0,.57-2.56A6.26,6.26,0,0,0,146.74,6a3.09,3.09,0,0,0-.43-1.08,1.89,1.89,0,0,0-.75-.71,2.26,2.26,0,0,0-1.12-.26,1.85,1.85,0,0,0-1.58.81A4.46,4.46,0,0,0,142.27,7.32Z"/></g></g></svg>