<svg xmlns="http://www.w3.org/2000/svg" viewBox="0 0 980 50"><defs><style>.cls-1{fill:#fff;}</style></defs><title>profile</title><g id="レイヤー_2" data-name="レイヤー 2"><g id="レイヤー_1-2" data-name="レイヤー 1"><rect class="cls-1" width="980" height="50"/><path d="M448.66,12.16c-.2-.44-.12-.68.4-.72,3.32-.36,6.31-2,9-2.16,2-.08,3.8.56,4.76,3.32.84,2.4.16,4.72-1.2,6.84-2,3.12-6.32,6.12-11.55,7.12a3.66,3.66,0,0,1-2.48-.4c-1.12,2.2-2.32,4.84-3.72,8.16-.16.4-.36.4-.64.12-.56-.6-1-1.8-.36-4,1-3.64,4.8-11.16,8.28-16.64A3,3,0,0,1,448.66,12.16Zm12.47.8c-.84-2.2-4.84-.12-7.48.64a9,9,0,0,1-1.52,4.4c-1,1.84-2.15,3.68-3.35,5.92C457.73,22.24,462.21,15.76,461.13,13Z"/><path d="M472.65,19.72c.48-.32.8-.4,1.08-.08.76.84,1.72,2.6.56,3.92-1.8,2-3.76,4.56-4.4,6.64s-.16,3.64,1,3.68c1.56.08,3.48-2.4,4.76-5.28.16-.32.4-.36.56,0A3.49,3.49,0,0,1,476,31,6,6,0,0,1,470.65,35c-2.88-.12-4-2.76-3-5.76.88-2.64,3.19-5.48,4.79-7.32a8.67,8.67,0,0,1-4.68,1.52c-1.51,2.8-5.35,8.48-6.11,12.12-.08.36-.32.56-.68.2-1.16-1.2-1.16-3-.08-5.08.92-1.76,3.6-5.52,5.08-7.64-2.28-1.48,1.2-6.2,2.67-6.24,1.24,0,.92,2.28-.07,4.8A9.48,9.48,0,0,0,472.65,19.72Z"/><path d="M489.73,26.12c-.84,3.4-3.36,7.44-6.32,8.44a4.39,4.39,0,0,1-5-1.76c-1.76-2.32-1.16-5.8.64-9,1.52-2.72,4-5,6.35-5.2A2.73,2.73,0,0,1,488.09,20c.92,1.24,2.12,1.52,1.88,4.4,0,.32,0,.6-.08.92.24,0,.48-.08.8-.08s.28.2.12.4A1.63,1.63,0,0,1,489.73,26.12Zm-3.4-1a5,5,0,0,1-1.84-3.52,13.78,13.78,0,0,0-3.07,3.76c-1.68,3-2.28,6.72-1.24,7.6s3.55-.48,5.51-4.16a21.11,21.11,0,0,0,1.4-3.2A3,3,0,0,1,486.33,25.12Zm1.36-3.56c-.2-1.28-1-1-1.2.12a3.29,3.29,0,0,0,.88,2.84A7.66,7.66,0,0,0,487.69,21.56Z"/><path d="M498.73,31.48c0,.44,0,.88-.08,1.36a13.76,13.76,0,0,0,4.16-5.08c.24-.48.64-.52.84,0a4,4,0,0,1-.4,2.4,9.61,9.61,0,0,1-4.8,4.16c-.64,4-2.4,8.48-4.32,10.88-1.36,1.68-2.35,1.84-3.55.8-1-.84-2.2-2.4-1.76-5.8,1.12-8.92,10.31-24.24,14.75-30.88.32-.48.84-.44,1,0,.48,1.36.36,3.08-1.36,6-1.64,2.72-4.4,7.24-6.56,11.44C498.17,27.32,498.77,28.84,498.73,31.48Zm-7.71,13c.88,1.16,3.87-4.36,5.19-9.84a2.84,2.84,0,0,1-2.44-1.6C491.54,38.36,490.1,43.32,491,44.48Zm5.79-13.88c0-1.48-.36-2.72-.64-2.6s-.76,2.28-.8,3.2c0,1.28.32,2.12,1.08,2.28A18.28,18.28,0,0,0,496.81,30.6Z"/><path d="M504.29,29a49.38,49.38,0,0,1,5.12-9.72c.36-.48.64-.6,1-.24.6.64.92,2.36,0,4.36-.84,1.76-2.52,4.48-3.36,6.48-1,2.32-.88,3.88.4,3.8,1.8-.08,4-2.72,5.2-5.48.2-.36.48-.32.64,0a2.85,2.85,0,0,1-.28,2.48,7.17,7.17,0,0,1-6,4.16C503.94,34.8,503.17,32.24,504.29,29Zm8.92-10.44a1.44,1.44,0,0,1-2.24-.6,2.48,2.48,0,0,1,.2-3c.64-.68,1.8-.2,2.32.88A2.42,2.42,0,0,1,513.21,18.52Z"/><path d="M517.93,33.6c1.92.16,4.72-2.72,6.28-5.8.28-.52.72-.56.88,0a3.68,3.68,0,0,1-.4,2.48c-.56,1.2-3.48,4.52-6.68,4.44-2.76-.08-4.24-2-3.32-6.32,1.48-7,6-14.2,10.12-18.44.6-.64,1.16-.72,1.72-.2,1.16,1,1.4,2.52.92,4.4-1.24,4.92-5.72,9.72-9.28,12C516.57,30.12,516.13,33.44,517.93,33.6Zm8.16-20.28c-.52-.32-3.48,4.12-6.24,9.24q-.54,1-1,1.92C524.37,20,526.61,13.64,526.09,13.32Z"/><path d="M530.93,33.68c3.32.16,6.24-3,8-5.68.2-.32.52-.32.68,0a3.25,3.25,0,0,1-.68,2.48,10.14,10.14,0,0,1-7.84,4.32c-5.08.08-6.84-4.92-4.24-10.08s6.68-7.24,8.68-6.08a7.44,7.44,0,0,1,2.36,2.08c.72,1,.4,3.4-1.28,5.44-2,2.4-4.64,3.44-7.44,1.16C527.85,31,528.81,33.56,530.93,33.68Zm3.32-9.2c1.28-1.68,2.16-3.76,1.6-4.2-.84-.68-4.16,1.72-6,5.52-.12.24-.24.48-.32.68C531.45,27.72,533.09,26,534.25,24.48Z"/></g></g></svg>