<svg xmlns="http://www.w3.org/2000/svg" viewBox="0 0 748.46 353.61"><defs><style>.cls-1{fill:#b4fffd;}.cls-2{font-size:70px;font-family:MicrosoftSansSerif, Microsoft Sans Serif;letter-spacing:0.2em;}</style></defs><title>top_title_1</title><g id="レイヤー_2" data-name="レイヤー 2"><g id="レイヤー_1-2" data-name="レイヤー 1"><circle class="cls-1" cx="598.46" cy="150" r="150"/><path d="M512.91,130l62.81,108.8H450.09L512.91,130m0-2L448.36,239.8h129.1L512.91,128Z"/><path d="M508.72,129,445.91,237.61,383.09,129H508.72m1.74-1H381.36l64.55,111.61L510.46,128Z"/><path d="M378.7,130l62.82,108.8H315.89L378.7,130m0-2L314.15,239.8h129.1L378.7,128Z"/><path d="M575.72,242.8,512.91,351.61,450.09,242.8H575.72m1.74-1H448.36l64.55,111.81L577.46,241.8Z"/><path d="M445.91,244l62.81,108.61H383.09L445.91,244m0-2L381.36,353.61h129.1L445.91,242Z"/><path d="M441.52,242.8,378.7,351.61,315.89,242.8H441.52m1.73-1H314.15L378.7,353.61,443.25,241.8Z"/><text class="cls-2" transform="translate(0 123.29)">PORTFOLIO</text></g></g></svg>