<svg xmlns="http://www.w3.org/2000/svg" viewBox="0 0 824.08 469.86"><defs><style>.cls-1{fill:none;stroke:#000;stroke-miterlimit:10;stroke-width:6px;}.cls-2{fill:#b4fffd;}.cls-3{fill:#ff94ac;}.cls-4{font-size:100px;font-family:MicrosoftSansSerif, Microsoft Sans Serif;letter-spacing:0.1em;}</style></defs><title>top_sp</title><g id="レイヤー_2" data-name="レイヤー 2"><g id="レイヤー_1-2" data-name="レイヤー 1"><polygon class="cls-1" points="335.38 85.61 648.25 463.94 819.46 3.82 335.38 85.61"/><circle class="cls-2" cx="464.42" cy="176.5" r="86.77"/><circle class="cls-3" cx="464.42" cy="299.13" r="86.77"/><path class="cls-3" d="M587.05,89.73a86.47,86.47,0,0,0-61.31,25.38,86.77,86.77,0,0,1,0,122.78A86.77,86.77,0,1,0,587.05,89.73Z"/><path class="cls-2" d="M673.82,299.13a86.51,86.51,0,0,0-25.38-61.32,86.74,86.74,0,0,1-122.78,0,86.77,86.77,0,1,0,148.16,61.32Z"/><text class="cls-4" transform="translate(0 338.32)">PORTFOLIO</text></g></g></svg>