<svg id="レイヤー_1" data-name="レイヤー 1" xmlns="http://www.w3.org/2000/svg" viewBox="0 0 2560 1440"><defs><style>.cls-1{fill:ivory;}.cls-2,.cls-4,.cls-5,.cls-6{opacity:0.5;}.cls-3{fill:#fff2d4;}.cls-4,.cls-8{fill:#ffd6d4;}.cls-5,.cls-9{fill:#d9d4ff;}.cls-6,.cls-7{fill:#b4e2ff;}.cls-10{font-size:60px;font-family:SignPainter-HouseScript, SignPainter;letter-spacing:0.08em;}.cls-11{fill:none;stroke:#000;stroke-miterlimit:10;}</style></defs><title>top_web</title><rect class="cls-1" width="2560" height="1438"/><g class="cls-2"><path class="cls-3" d="M764.6,1822.07v-.87c-.41-1.46-3.05-2.34-9.73-2.28l-1.8,3.58c2.86-18.54-18.32-36.66-23.35-55.31,15.7-5.93,2.59,10.75,21.31,5.06,5.23-13.63-9.4-25.68-5-40.45,2.13,2.16,4,1.47,5.13,2.5,9.34-15.06-15.92,2.88-14.42-9.34,8,0,9.93-.72,13.77-5l-13.1-2.57c2-.74,11.94-1.38,16,.09-17.26-4.06-6.78-20.9-22.85-24.15,4-1.33,19.06.75,25-1.28,4.38-6.63-2.19-10.62-8.45-14.58-8.12.34-8-2.13-7-5.33-2.09-2.34-2.8-5-.08-8.23,2.28,2.5.93,5.6.08,8.23a35.68,35.68,0,0,0,7,5.33s.06,0,.06,0c10.93-5.09,8.87-15.87,10.85-13.65,4.84-11.65-9-1.4-19.13-9.75l-6.85,9.51-4.18-16.16,8,6.16c6-7.67-8.12-14.85-8-23.58l-9.13,4.25-5.9-9.83c19-1.45,4-12.81,26.07-7.85,9-18.11-14.63-29.47-17-45.79.78,1.72,4.12.91,6.78,1.41,4.23-9.75-5.59-15.57-15.45-21.46,5.94,1.21,7.89,3.54,13,3.59.25-11.52-10.84-7-16.47-19.81,7.92,3.58,12,2.49,14.06-1-7,.48-11.91-2.49-13.86-4.84,37.71,9.85,15.52-14.06,45.38-7.76-8-.69-24.27-20.54-39.48-15.11l2.78,3.48c-10.41.27-6.25-4.37-7-7.93-2.3-2.54-3.37-4.85-.63-1.44a2.84,2.84,0,0,1,.63,1.44c1.72,1.86,4,3.83,6.17,3.91-12.28-18.15-.44-36.77-9.53-57,3.9,1.82,10.57,10,13.79,5,5.89-19.79-13.57-31.75-22.68-51.91,24.13-.42,3.05,21.69,26,22.93-5-21.2-13-43-25-66.65,35.43-7.52-14-23.09,13.75-37.11-11.85,1.17-16-6.12-16.2-14l-.25,0,.27-1.17a26.8,26.8,0,0,1,2.28-10.69l-2.28,10.69a9.61,9.61,0,0,0,0,1.2c9.59,2.87,10-5.44,16.9-3-10.7-7.09-14.92-27.08,8.1-25.93-22.26-2.16,1.25-14.81-14.43-20.73-1.94,2.07-4.9,4.05-10,5.89l6.29-7.2a16,16,0,0,1,3.68,1.31c8.46-8.59-4.41-18.75,2.46-29.57-12.87,3.32-7.76-8.44-11.14-13.68,1,1,2.29,1.92,3.62,1.56,12.19-3.11-10.49-12.72-3.2-18.79,5.1-2.72,12.94.86,14.14-3.65-10-.24-21.41-17-9.14-23-.09,2.84,4.95,3,8.81,4.73-16.82-29.3,4.36-60.13-15.54-90l16.76,5.43c21.8-18.37-27.54-12.45-25-27.15,8.41-40.17,32.93-81.83,22.15-121.19-4.91-2.91-6,1.63-13.06,2.08,2.08-3.41,16.16-4.31,7.29-9l-9.07,1c24.62-17.84-16.41-51.88,22.1-65-14.41-17.22,10.49-29.26-11.22-50.17,8.07-6.57,15.59,7.68,17.86-1.21l-14.12-19.36c-23.73-18.75,31.44-48.65,12.22-71.68l1.34,1c6.27.54,13.88-4.29,11.72-8.08-4.44-1.32-6.75,1.23-12.1,3.5-10.61-20.87-11.09-25.44-13.22-41.94,9.36,7.11,8.13-6.62,21.15-7.35-8.5-4.34-13.49,2.51-20.62-7.14-1.22-13.74,10-26.43,14.56-37.86-11.58-4.6-8.42-10.68-22.74-10.95-.88-15.52-6.61-24.15-6.53-43.21l4.93-.5c-17.9-5.06,9-16.56-1.31-20.07,6.31.5,8.93,2.52,13.89,2l-5.78-8.64c5.4,4.07,22.35,6.34,24.24-.8-12.56-7.36-8.55,2.08-18.78-1.49l16.54-2.31c-1.82-5.59-20.56-7.08-25.58-.22.15-19.07-7.89-37.86-5.23-54.86L711.71,491c-4.05-9.39-4-22.1,5.43-27.75-3.17-.23-9-2.51-12.52-1C691,452,718,459.64,709.09,451.1c2.65,2.39,5.06,4.68,9.85,5L705.56,433.3c8-.28,26-14.32,18.85-24-4.53-.34-10.63,2.48-11.54,4.95l1.73,2.46c-1.64-.63-2.05-1.5-1.73-2.46l-4.06-6.17,18.72-4.9L711,394.34l-3.61.06.43-1.79,3.18,1.73,15.69-.27c-3.18-6.59-23.31-9.07-22-14.43,9.87-20.09,15.25-16.06,30-30.39-30-1.37,1-22.64-20.59-26.09,22.44-19.18,8.53-46.59,14.8-71.55l2.67,2c13.84-10.77-22.85-11.91-16.88-23.44l4.46,2.84c15.88-14.89,1.07-40.61-11.73-54.47,4.51,2.82,14.12,1.27,13-3.23-5.91-3.75-21,3.92-15.39-4.06,2.92,1.92,9.48.31,9.64-1.5l-15-7.62c10.08-20.43,20.61-44.47,11.77-65.46,5.26-4,10.7-1.17,15.85-.3-3.3-16.68-16-33.18-18.85-48.24l17.3-1.73c-.08-7.39-26.57-4.28-11.23-14.07,2.3-2.17,1.18,6.35,8.89,8.9,13-15-17-8.58-15.18-22.78L727.91,22c11.46-11-10.43-12.29-22-16.11C682.75-9.16,743.51-5.44,726-26c-9.63-3.18-14.2,1.26-23.84-1.92,4.89-14.67-9-16.24-4.1-30.95,29.09-8.16.08,7.46,27.26-1.38L718.88-49c15.26-9.78,4,8.68,21.26,7,4.91-7.25-9.83-18-15.68-27.34,13.08-.15,1.65,10.89,19.27,6.34l-5.4-4.75c3.85,1.28,8.81,1.45,8.48,4.27,12.27-1.88.67-5.67.3-10.26a131.16,131.16,0,0,0-25.77,1.76A17.83,17.83,0,0,0,726-73.35c-18.87-9.18-4.83-25.25-19.87-33.14,3.89,1.25,5,.13,8.1-.33.67-5.71-16.65-11.35-21.7-18.93,9.56-4.28,28.81,2,23.35-10.11-10.82-2-29.57,3.63-29.28-6.63,0,0,8.94,8.84,16.53,4-7.7-10,3.44-3.3,15.63-12.62-15.38-5.06,5.29-10.11-19.66-10.9,16.49-3.47,10.37-2.52,22.2-9-13.42,3-13.57-11.82-29.72-11.2,18.45-2.83,22.77,10.42,41.92,1.9-12.37-5.51-17.05-16-37-16.59,4.4-4.28,11.35-6.38,13.5-12.75.12.95,3.17,1.95,4.8,2.5-8.39-7.33-6.5-17-9.63-24.81h-251v16.34c2,.57,4.32,1.12,7,1.65l4.13-3.52-6.49,13.14.33-.56a25.68,25.68,0,0,1,4.7-7.12l-4.7,7.12c-1.62,4.15.14,5.58-5,9.39v39.06a18.19,18.19,0,0,0,4.57-.31,10.86,10.86,0,0,1,3.57-1.68,8.43,8.43,0,0,1-3.57,1.68c-1.35.85-2.9,1.93-4.57,3v8.65c1.35-.79,3.33-1.45,8.32-2.38l7.42,18.11c.12,2.06-6.07-1.17-6.29-3.76-31.48,23.59,29.91,42.35-8.34,69,9.94-3.31,9,1.29,16.05,3.27-2.78,8.11.39,20-5.45,27.65l-7.05-2C468.17-16.74,479.73-4.25,476,8.44c3,.46-10,.4-12.08-1.76,13.14,8.6-26.63,21.56.45,22.79L466.3,26c-3.59,18.4,16.63,37.66,20.7,56.36-16,5.11-2.07-10.78-21-6.09-5.89,13.32,8.17,26,3.26,40.41-2-2.23-4-1.62-5-2.69-9.88,14.57,16-2.22,14.07,9.8-8-.32-9.94.34-13.93,4.47l13,3c-2,.66-12,1-16-.63,17.1,4.61,6.19,20.91,22.21,24.47-4,1.23-19-1.16-25.05.71-4.5,6.5,2,10.6,8.22,14.61,8.14-.22,7.94,2.21,7,5.36,2.08,2.33,2.77,4.91,0,8.12-2.26-2.49-.9-5.54,0-8.12a36.61,36.61,0,0,0-7-5.36s0,0,0,0c-11,4.87-9,15.66-11,13.42-4.89,11.56,9,1.48,19.11,9.78l6.88-9.34,4.17,15.91L477.8,194c-6,7.57,8.14,14.65,8.12,23.22L495,213l6,9.58c-19,1.6-4,12.65-26,8-8.89,18.11,14.95,28.94,17.68,45a2,2,0,0,1,.19.91c0-.31-.13-.61-.19-.91-.81-1.68-4.13-.79-6.8-1.22-4,9.77,6,15.28,16,20.78-6-1-8-3.25-13-3.15.05,11.42,11,6.63,17,19.08-8-3.27-12.08-2.06-14,1.43,7-.72,12,2.05,14,4.31-38-8.45-15.05,14.53-45.09,9.37,8,.4,25,19.54,40,13.54l-2.91-3.36c10.39-.67,6.4,4.11,7.25,7.61,2.39,2.44,3.54,4.68.68,1.41A2.73,2.73,0,0,1,505,344c-1.8-1.78-4.18-3.64-6.32-3.64,12.9,17.55,2,36.57,11.72,56.43-3.95-1.66-10.9-9.59-13.95-4.36-5.22,20,14.67,31.19,24.44,51.12-24.08,1.38-3.78-21.69-26.75-22,5.74,21.06,14.46,42.67,27.2,66-35.16,8.8,14.78,22.76-12.53,37.8C520.62,523.82,525,531,525.45,539h.25l-.23,1.19A27,27,0,0,1,523.53,551l1.94-10.84a9.65,9.65,0,0,0,0-1.2c-9.68-2.59-9.8,5.78-16.79,3.55,11,6.8,15.55,26.8-7.47,26.29,22.3,1.55-.94,14.91,14.86,20.45,1.89-2.14,4.81-4.21,9.84-6.2l-6.15,7.41a16.1,16.1,0,0,1-3.69-1.21c-8.29,8.85,4.78,18.74-1.86,29.8,12.8-3.65,7.93,8.3,11.42,13.5a15,15,0,0,1,1.28,1.35,4.83,4.83,0,0,1-1.28-1.35c-1-1-2.32-1.88-3.65-1.49-12.12,3.4,10.75,12.58,3.59,18.84-5,2.85-13-.59-14.06,4,10,0,21.72,16.64,9.55,22.9,0-2.86-5-2.88-8.9-4.6,8.67,14.58,7.84,29.73,7.39,44.94s-.72,30.48,9.37,45.42l-16.81-5.27c-21.62,18.7,27.66,12.21,25.24,27.05-8.24,40.57-32.18,82.52-21.55,122,4.9,2.92,6-1.64,13.07-2.09-2.1,3.42-16.17,4.33-7.32,9l9.07-1c-24.67,17.89,16.26,52.24-22.28,65.32,14.37,17.39-10.61,29.31,11,50.48-8.11,6.53-15.56-7.84-17.88,1.08l14,19.57c23.51,19.1-32,48.5-13.06,71.81l-1.32-1c-6.26-.63-13.94,4.11-11.84,7.94,4.44,1.39,6.78-1.14,12.16-3.34,10.32,21.1,10.74,25.7,12.64,42.3-9.26-7.29-8.22,6.52-21.25,7,8.44,4.49,13.53-2.3,20.52,7.51,1,13.83-10.37,26.36-15.08,37.73,11.49,4.84,8.2,10.88,22.51,11.44.56,15.6,6.11,24.39,5.63,43.52l-4.94.4c17.79,5.49-9.35,16.42.89,20.18-6.3-.65-8.87-2.74-13.84-2.33l5.6,8.81c-5.32-4.22-22.21-6.89-24.25.22,12.4,7.68,8.58-1.88,18.74,2L492,1304.82c1.71,5.65,20.42,7.6,25.58.84-.54,19.13,7.07,38.2,4,55.2l-10.79-2c3.84,9.53,3.53,22.29-6.06,27.68,3.17.33,8.9,2.78,12.49,1.35,13.39,10.74-13.41,2.27-4.77,11.08l.84.79c.53.49,1.06,1,1.79,1.56-.64-.5-1.23-1-1.79-1.56-.3-.27-.6-.55-.84-.79-2.58-2.48-4.93-4.84-9.71-5.33l12.76,23.28c-8,.06-26.37,13.6-19.49,23.47,4.52.49,10.7-2.15,11.68-4.61l-1.66-2.51c1.61.68,2,1.57,1.66,2.51l3.89,6.32-18.86,4.34,16.26,9.39,3.6.06-.48,1.78-3.12-1.84-15.69-.21c3,6.7,23,9.82,21.54,15.15-10.44,19.83-15.7,15.62-30.88,29.49,30,2.37-1.6,22.66,19.83,26.84-22.92,18.46-9.95,46.39-17,71.16l-2.6-2.11c-14.19,10.27,22.44,12.76,16.09,24.1l-4.36-3c-16.37,14.32-2.41,40.63,9.9,55-4.41-3-14.07-1.83-13.14,2.72,5.77,4,21.09-3.1,15.23,4.68-2.85-2-9.46-.69-9.68,1.12l14.74,8.22c-10.75,20.09-22.16,43.72-14.11,65.1-5.4,3.76-10.73.73-15.85-.36,2.69,16.84,14.73,33.88,17,49.08l-17.35,1c-.2,7.4,26.38,5.41,10.69,14.57-2.38,2.07-.94-6.41-8.55-9.29-13.55,14.46,16.63,9.3,14.31,23.45l-19.43-4.33c-11.87,10.52,10,12.74,21.35,17.07,22.59,16-38,9.66-21.3,31,9.51,3.61,14.24-.63,23.74,3-5.45,14.46,8.3,16.65,2.87,31.15-29.4,6.87.22-7.46-27.29.17l6.93-10.93c-15.64,9.11-3.64-8.86-21-7.92-5.21,7,9.09,18.46,14.56,28-13.07-.43-1.21-11-19-7.2l5.2,5c-3.8-1.45-8.75-1.84-8.31-4.65a22.45,22.45,0,0,0-3.3.57v5.32c1.25,1.36,2.53,2.84,2.59,4.36a131.24,131.24,0,0,0,25.82-.6,17.67,17.67,0,0,0-4.69,1.07,21.52,21.52,0,0,1,6.69,5.39H754.93c.36-4.81,3-9.87,9.67-15.37v-1.37c-6.89,1.68-7-2.07-13.28-3.62,2.59-8.06-1-19.62,4.6-27.43l7.11,1.67c-10-17.89-22.08-29.64-18.86-42.42-3-.3,9.93-.91,12.13,1.12C746.75,1836,763.58,1826.87,764.6,1822.07ZM739,1754.88l4.43,7.09-12.09-1.3ZM721.19-72a71.37,71.37,0,0,0-12.83,3.28C707.29-80.77,711-70.87,721.19-72ZM477.12,94.09,473,86.85l12,1.88Zm5.6,1828.43a70.73,70.73,0,0,0,12.94-2.71C496.25,1931.88,492.92,1921.8,482.72,1922.52Z"/></g><path class="cls-4" d="M916,1883c-9.82,3.54-9-1-16.06-2.77,2.58-8.07-1-19.64,4.59-27.47l7.08,1.67c-10-17.9-22-29.66-18.79-42.46-3-.3,9.9-.92,12.08,1.12-13.43-7.85,25.57-22.91-1.42-22.69l-1.79,3.59c2.84-18.56-18.25-36.71-23.26-55.38,15.63-5.94,2.58,10.76,21.23,5.07,5.21-13.64-9.36-25.71-5-40.5,2.12,2.16,4,1.47,5.11,2.5,9.3-15.07-15.87,2.89-14.37-9.34,8,0,9.89-.73,13.72-5L886,1688.73c2-.74,11.89-1.39,16,.09-17.18-4.07-6.75-20.93-22.75-24.19,4-1.33,19,.76,24.93-1.28,4.37-6.64-2.17-10.62-8.41-14.59-8.09.34-8-2.14-7-5.34-2.08-2.35-2.79-5-.08-8.24,2.26,2.51.93,5.61.08,8.24a35.82,35.82,0,0,0,7,5.34s.06,0,.06,0c10.89-5.09,8.83-15.9,10.81-13.67,4.82-11.66-9-1.4-19.06-9.76l-6.83,9.52-4.16-16.18,8,6.17c6-7.67-8.09-14.87-8-23.61l-9.09,4.26-5.88-9.84c18.88-1.45,4-12.83,26-7.86,9-18.13-14.57-29.5-17-45.85a2.12,2.12,0,0,1-.17-.93c0,.32.12.62.17.93.77,1.72,4.1.92,6.75,1.42,4.22-9.76-5.57-15.59-15.39-21.49,5.92,1.21,7.86,3.55,12.9,3.6.25-11.54-10.8-7-16.4-19.84,7.89,3.58,12,2.5,14-1-7,.48-11.87-2.49-13.81-4.85,37.56,9.86,15.47-14.08,45.2-7.76-8-.7-24.17-20.57-39.32-15.14l2.77,3.49c-10.37.27-6.23-4.38-6.94-7.93-2.29-2.55-3.35-4.86-.63-1.45a2.79,2.79,0,0,1,.63,1.45c1.72,1.86,4,3.83,6.16,3.91-12.24-18.17-.45-36.82-9.5-57.07,3.88,1.83,10.53,10.05,13.74,5,5.87-19.81-13.52-31.78-22.6-52,24-.41,3,21.72,25.89,23-5-21.22-13-43.07-24.92-66.73,35.29-7.53-14-23.11,13.69-37.15-11.8,1.17-15.94-6.13-16.13-14l-.25,0,.27-1.18a26.88,26.88,0,0,1,2.27-10.7l-2.27,10.7a9.65,9.65,0,0,0,0,1.2c9.56,2.88,9.94-5.44,16.83-3-10.66-7.1-14.86-27.11,8.07-26-22.17-2.16,1.25-14.83-14.37-20.76-1.94,2.08-4.88,4.06-9.93,5.9l6.27-7.2a16.19,16.19,0,0,1,3.66,1.3c8.43-8.59-4.39-18.76,2.45-29.6-12.82,3.32-7.73-8.45-11.1-13.69-.49-.49-.94-1-1.25-1.37a4.65,4.65,0,0,1,1.25,1.37c1,1,2.28,1.92,3.6,1.56,12.15-3.11-10.44-12.74-3.18-18.81,5.09-2.73,12.89.86,14.08-3.66-9.92-.24-21.32-17-9.1-23-.09,2.85,4.93,3,8.78,4.74-16.76-29.33,4.34-60.2-15.48-90.15l16.7,5.44c21.71-18.4-27.44-12.48-24.92-27.19,8.38-40.22,32.81-81.92,22.07-121.34-4.9-2.91-6,1.64-13,2.09,2.08-3.41,16.1-4.31,7.26-9l-9,1c24.53-17.86-16.34-51.94,22-65.11-14.36-17.24,10.44-29.3-11.18-50.23,8-6.58,15.53,7.69,17.79-1.22L861,770.14c-23.63-18.78,31.33-48.72,12.18-71.77l1.33,1c6.25.54,13.83-4.3,11.68-8.09-4.43-1.32-6.73,1.23-12.06,3.5-10.57-20.89-11-25.47-13.16-42,9.32,7.12,8.1-6.62,21.07-7.35-8.47-4.34-13.44,2.51-20.55-7.15-1.22-13.76,10-26.46,14.5-37.9-11.53-4.61-8.38-10.7-22.65-11-.87-15.55-6.58-24.18-6.5-43.26l4.91-.51c-17.83-5.07,9-16.57-1.3-20.09,6.29.5,8.89,2.53,13.83,2l-5.76-8.65c5.38,4.07,22.26,6.34,24.15-.8-12.51-7.37-8.51,2.08-18.71-1.5l16.48-2.3c-1.81-5.6-20.48-7.09-25.49-.22.16-19.09-7.85-37.91-5.2-54.93l10.79,1.75c-4-9.4-4-22.13,5.4-27.78-3.16-.23-8.93-2.52-12.47-1-13.62-10.34,13.3-2.64,4.46-11.19l-.85-.75c-.54-.48-1.08-.95-1.83-1.52.65.49,1.25,1,1.83,1.52l.85.75c2.63,2.4,5,4.69,9.81,5.05l-13.33-22.86c8-.29,25.9-14.35,18.78-24-4.51-.35-10.59,2.48-11.5,5l1.72,2.46c-1.63-.63-2-1.51-1.72-2.46l-4-6.18L876.25,373l-16.46-8.88-3.58.06.42-1.79,3.16,1.73,15.63-.27c-3.16-6.6-23.22-9.08-21.88-14.44,9.84-20.12,15.2-16.08,29.92-30.43-29.9-1.37.95-22.67-20.51-26.12,22.35-19.2,8.49-46.65,14.74-71.64l2.66,2c13.79-10.78-22.76-11.93-16.82-23.47l4.45,2.84c15.81-14.9,1.06-40.65-11.69-54.53,4.49,2.82,14.07,1.27,13-3.23-5.89-3.76-20.89,3.92-15.32-4.07,2.9,1.93,9.43.31,9.59-1.5l-14.95-7.63c10-20.46,20.54-44.53,11.73-65.54,5.24-4,10.66-1.16,15.79-.29-3.29-16.71-15.91-33.22-18.78-48.3l17.23-1.73c-.08-7.41-26.46-4.29-11.19-14.09,2.3-2.18,1.18,6.35,8.86,8.91,12.94-15-16.9-8.59-15.12-22.81l19.5,3.49c11.41-11-10.38-12.3-21.9-16.12-23.09-15,37.44-11.3,20-31.89-9.6-3.18-14.15,1.26-23.75-1.92,4.88-14.69-8.91-16.26-4.08-31,29-8.17.08,7.47,27.16-1.38l-6.47,11.23c15.21-9.8,4,8.69,21.19,7,4.89-7.26-9.79-18-15.62-27.37,13-.16,1.64,10.9,19.19,6.35L887-98.56c3.83,1.27,8.77,1.44,8.44,4.27,12.23-1.88.67-5.68.3-10.28a130.16,130.16,0,0,0-25.67,1.76,17.28,17.28,0,0,0,4.62-1.28c-18.8-9.19-4.81-25.28-19.79-33.18,3.88,1.25,5,.13,8.07-.34.67-5.71-16.59-11.36-21.62-18.94,9.52-4.29,28.7,2.05,23.26-10.13-10.78-2-29.46,3.63-29.16-6.63,0,0,8.89,8.85,16.46,4-7.68-10,3.42-3.31,15.56-12.64-15.31-5.06,5.28-10.12-19.58-10.91,16.43-3.48,10.33-2.52,22.12-9-13.37,3-13.51-11.83-29.61-11.21,18.39-2.84,22.68,10.43,41.76,1.9-12.32-5.52-17-16-36.85-16.61,4.37-4.29,11.31-6.39,13.44-12.76a.53.53,0,0,1,.2-.49c-.05.18-.14.32-.2.49.12,1,3.16,2,4.79,2.5a19.68,19.68,0,0,1-5.71-8.61H598.3c.67,10.31-.17,20.57-4.92,30.65a8.51,8.51,0,0,0,4.78-2.12c-33.87,30.46,40.52,48.13,11.13,76l-5.71-2c3,14.43-5.72-2-14.17,8.52,18.7,2,14.5,18.35,21.37,26.68-3.85-1.3-3.44-4.16-6.12-6.57-4.21,1.55-15.33,2.17-11.89,6.34,26.77,9.23,24,29.09,32,43.75-12.25,1.75-23,14.41-42.88,21,4.42,1.53,13.83,4.24,23,6.71a28.36,28.36,0,0,1,3.21-1.91c.12.6.73.86,1,1.32-.6-3.19-1.29-4.86-2.29-4.1,11.76-5.88,9.47.4,23.73,0-.54,4.8,4.42,14.73-6.36,15.83-.18,2.88-1.77,4.78-3.91,7.77,2.19,1.83,3.4,3.77,2.1,5.93l-1.46-1a23,23,0,0,0-4.51,1.24c-6.13,9.38,15.21,22.6,25,30.33-18-7.67-20.27,2-33.3,2,1,.9,1.81-8.7,2.15-20.61-1.41.85-3.75,1.53-8.43,1.74C588,11.13,614.06,18.44,604.44,33.44a12.43,12.43,0,0,0-9.28-2.19c-3.69,5.29,6.73,10.2,14.51,11.41C596.9,44,587.66,55.36,593.33,61c10.52,4.94,15.36,4.23,14.26,13.2l-9-3.94c-7.21,10.12,11.5,8.81,6.57,16.35.91-2.49-6.77-2.51-8.41-.17,5,11,9.93,11.29,28,19.2l-14.12-1.46c8.44,9.37,25.71,27.07,6.56,27.26,29.41-2.95,15.46,20.46,14.9,28.62-.87-2.81-7.06-3.32-10.2-3.6,19.42,17.14.6,34.69.93,52l-21.42,2.75c.83,9.17,43.18,11.8,42.22,21.74l-10.26-3.6c3.42,17.63,1.61,24.74-2.06,39l-14.35-.28c6.68,5.1,6.6,11.48,13.3,16.63-34.89,11.62,18.35,46.19-20.6,67.5l26.77,1.35c-.54,8.16,4.79,18.6-15.29,22.42l.39-1.81c-20.47-.82-.45,8.16-5,13.24,2.24,3.84,15.58,7.7,19.63,4.39-13.58,21.64.48,53.81-23.75,67.27,8.75,21.71,30,38.08,27.23,61.52l-3.15-.28c-3.62,7.9-10.88,23.74-33.19,23.68,5.19,16.88,35.88,27.65,26,47.77l-8.53-4.36c-4.42,5.1,6.25,13.29,8.86,15.33-.45,1.78-4.88.48-8,.23-7.63,4.82,4.41,7.67,6.6,11.52l-7.57-1.57c-15.34,16,14.89,41.34,11.14,62-2.24-3.8-10.72-1.79-14.3-.26,24.9,8.47,18.94,31.69,24.69,40.34l-9.75-5.33c16.33,16.86-26.18,14.55-9.7,31.29l14.3-9.59c-4.23,6.81.55,12.61,11.64,11-8.25,7.92-19,.95-21.4,12.92-6.95.49-4.75-8.64-13.78-4.73L594.87,767h.1c14.16-11.44,17.74,8.6,30.49,1-8.3,9.49-24.92-2.07-30.49-1l-1.47,1.18,1.3-1.14c-2,.51-2.46,2.6-.52,8,31-1.35,1.64,13.74,31.85,5.51,2.21,23.55-18.34,43.27-4.15,63.6-30.19,8-1.51,40.11-40.3,37.57-.48,11.38,7.13,20.72,22.74,28,3.12-2.23-1.74-5.22-3.63-7.57,9.82,3.15,11.25,17,11,22.7-8.67-7.7-16.09-20-30.83-26.07,3.6,10.39,17.91,25.12,22.6,31l-20.06,2.22c14.5,9.06-16.27,6.94,3.27,16.15l6-1.52c-1.8,16,18.15,16.72,20.31,31.79l-7.88-.89c-3.28,5,15.23,13.28-3,17.7l-.48-9.79c-14,.56-20.35,7.8-27.52,10.9,3.35,10.42,22.72,4.42,24.41,9.66-13.15,1.73-7,.28-19.81-3.75,4.34,11.67,9.31,27.38,25.81,36.34a13.8,13.8,0,0,1-5-.28c-2.84,11.89,20.4,23.66,8.87,30.5l-1.83-2.43c-19.63,8.63,17,25.94-16,26.1-6.34,4.2,1.81-10.24-14.71-3.85-11.08,13.61,27.16,11,17.21,23,1.13-1.66-.89-1.23-3.85-2,.25,9.11,2.82,21.35,5.61,31.55a29.38,29.38,0,0,1,2.93-1.08l-2.29,3.28c-.21-.71-.4-1.51-.64-2.2-27.44,10.54,4.51,38-27.49,49.92,11.32-3.73,12.63,4.38,17.58,4.73a13.31,13.31,0,0,0-4.95-.35c-1.13,5.06,9.3,6.39,13.57,8.6a8.65,8.65,0,0,1,1.78-.58c1.2,1.64.66,2.38-.17,3.18a4.17,4.17,0,0,1-1.24,1.31,9.23,9.23,0,0,1,1.24-1.31c.59-1.08-.22-1.89-1.61-2.6-9.73,3.56,9.39,14.85,3,17.08,6.92.53,4.85,4.5,4.49,9-7.24-9.64-14.68-3.93-25.3-8.75-4.2,13.41,29.54,17.65,23.34,31.42l-13.6,7c19.86,2.87,11,15.43,18.48,15.6a26.66,26.66,0,0,1,6.32-1.32,17.66,17.66,0,0,1-6.32,1.32c-6.36,2-10.18,5.34-20.15,4.2,4.52,6-6.15,13.79,5.61,16.83l5.5-5.3c-8.45,17,19.73,29,5.81,41.66l-29.91-1.81c-12.65,8.38,15.71,17.35-2.71,24.24,10.13-2.26,7.15-3,16.78,3.18,2.21-3.28-5.34-9.89-4.92-15.54l17.08,12.8-7.72-19c11.42,8.58,8.5,7.84,20.72,5.18,9.14,11.74-14.84,11.52-3.61,22.79-4.28,3.72-14.93-.75-21.19,3.45,10.35,10-22.17,17.56-6.52,25-3.15,2.12-.8-4-7.81-3.7,2.66,6.33,1.37,10.77,10.3,12.84l3.45-5.23a5.43,5.43,0,0,1,2-3l-2,3c-.94,4.65,11.23,5.76,4,14.45,6.82,5.31,21.6,8.52,21.86,3,1.89,2.29-6.25,7-15.22,5.09-.58,13.83,31.86,7.22,17.39,20.21,1,1.15,1.31,2.21-.28.32a1.56,1.56,0,0,1,.28-.32,4.41,4.41,0,0,0-4.2-1.43,7.8,7.8,0,0,0-1.54,5.83,6,6,0,0,1,1.13,2.51,5.46,5.46,0,0,1-1.13-2.51c-5-6.72-22.45,4.63-17.33-8-16,1.29-3.45,10.59-9.63,15,10.67,6.92,22.9,1,30.73,4.46-5-.1-5.11,2.7-7.19,6l12-3.13c0,2.8-.11,5.56,2.77,8.93l-4.85-5.65c-2.13,6.06-21.34,15.38-9.73,26.11-4.91-2.83-14.67-8.53-20.87-1.27,7.69,11.83-5,2.77-14.2,9.55,2.69,11.83,21.39,1.88,14.21,19.37,0,1.88,7,0,10.29-1.88a20.81,20.81,0,0,1,1.1-2.33c1.27.53.43,1.43-1.1,2.33-5.33,11.22,1.91,17.47-4.31,27.9,2.88-4,6.59-6.09,11.63-.38-9.92-2.68-9.12,9.63-15.14,14.25l6,1c-6.42,3.73-9.11,0-11.37-2.86a3.59,3.59,0,0,1-3.63-2.5c1.45-.43,2.5.89,3.63,2.5,2,0,3.93-1.06,3.39-3.2-3-3.38-12.64-3.74-20.23-1.45v14c6.71,1.64,14.45.41,18.2-.73-6,13.12,27.94,11.19,19,23.74.07,2.79-24,13-25.82,22.2,14,4,9.85-11.6,21.84-6.91-33.7,16.39,22.33,29.52,2.67,50l-17-1.53c-.87,4.6-1.75,9.14.39,14.15l8.81-7.22c4.06,4.32,1.32,15.18-11.67,12.46,14.2,9.46,6.31,12.08,2.51,21.94.81-10.23,2.33-.32-6.79-7.19-7.66,11.2-2,11.68,2.17,18.8-5.21-.71-12.54,2.58-14.31,5.34v1.48c10.71,6.24,9.29,18,15.53,27.16l-5,.35c7.36,15.66-14.48,35.18,1.51,50.28a6.34,6.34,0,0,0,2-1.06l1.81-2.59c1-3.13-.68-6.62,4.8-6.65l-4.8,6.65a4.3,4.3,0,0,1-1.81,2.59l-.29.45c15.46-7,12.07,11.67,19.12,16-4,1.45-10.88,2.6-10.72,5.42,14.92-1.2,8.25,5.58,15.36,7.26-4.67,6.07-17.91.94-16.39,10.48,1.6,3.6,9.39,3.3,15,2.32a19.88,19.88,0,0,1,5-1.19,29.33,29.33,0,0,1-5,1.19c-7.37,2.74-12.79,9.44-14.16,14.69-4.06-1.34.8-4.61-.26-5.67-8,.12-4.82,3.27-14.8,4.14-.72,4.63,14,.47,9.36,6.62l-12.21-4.09c-2.81,2.56,2.37,5,3.36,6-1.29-1.3-4.09-1.76-7.39-1.8v6.68c10.12-.69,22-6,30.29-6.34-8.15,13.28,8.27,21.46,9.89,31l-14-.38c2.54,4.47,5.87,6.39,12,7.47l-.19-1.88,7.12,2.73c-2.64-.22-5-.49-6.93-.85l.74,7.2c-5.36-3.63-9.82-4.56-21-3.69,3.27,5.26,2.94,12.41,9.54,16H904C902.26,1899,904.33,1891.51,916,1883Zm-28.29-156.71,4.41,7.09-12-1.3Zm-17.78-1829a69.8,69.8,0,0,0-12.78,3.28C856.08-111.53,859.8-101.61,869.93-102.78ZM629.77,342.1l.89-3.59,4.45,7.66ZM601.71,948.78c-2-2.38,4.32-6.79,5.5-11.34C615,941.14,609.75,946.76,601.71,948.78Zm-8,204.89,16-.53C614.29,1159.24,596.41,1157.34,593.75,1153.67Zm-11.24,545.94c8,.08,10.83-5.17,13-.21Zm21.24-85-3.11-6.11,5.05,8.24Z"/><path class="cls-5" d="M1093.83-10.1a126.74,126.74,0,0,0-25.09,1.41,17,17,0,0,0,4.53-1.2c-18.26-9.24-4.43-24.83-19-32.76,3.77,1.27,4.87.19,7.88-.23.71-5.59-16.07-11.34-20.91-18.84,9.35-4.08,28,2.38,22.83-9.63-10.5-2.14-28.8,3.19-28.4-6.87,0,0,8.59,8.79,16,4.09-7.38-9.87,3.39-3.2,15.35-12.18-14.9-5.16,5.26-9.85-19-10.94,16.08-3.2,10.11-2.34,21.7-8.55-13.09,2.76-13.06-11.76-28.79-11.36,18-2.55,22,10.51,40.75,2.4-12-5.57-16.39-15.89-35.79-16.75,4.32-4.15,11.12-6.11,13.27-12.33.11.93,3.06,2,4.65,2.51-13-11.78,0-29.13-23.45-35.79,28,2.38,3.43-25,29.54-16-.47-2.6-4-6-8.08-8.86H742.53c2.42,2.62,7.4,4.81,18.07,6.26l3.82-3.68-5.57,13.23.3-.57A25.3,25.3,0,0,1,763.3-194l-4.15,7.23c-1.92,5.65,2.08,6-12.63,15.07-3.95-2.65-4.45-7.09-8.42-9.73-12.45,8.17,12.41,12.31,13.9,19.54-10.86.94-4.57-7.15-17.51-3.44-1.19,5.38,7.15,8.86,10.68,13.32h-6c-12.35,14.38,30,1.64,10.7,13.35,3.51-.7,7.48.07,10.9-.91a10.51,10.51,0,0,1,3.41-1.82,8.15,8.15,0,0,1-3.41,1.82c-6,4.23-15.91,13.58-24.26,6.33.45,4.45,6.18,8.94,13.16,10.49,8.48-4.75,3.9-5.2,15.13-7.89l8,17.42c.2,2-6-.88-6.28-3.4-29.79,24.44,30.59,40.35-5.59,68,9.54-3.59,8.82.94,15.73,2.64-2.4,8.05,1.15,19.58-4.43,27.3l-6.89-1.72c9.51,17.77,21,29.74,17.65,42.3,3,.38-9.68.64-11.78-1.41,13,8.12-25.42,21.74.94,22.32l1.82-3.47c-3.07,18.1,16.59,36.61,21,55-15.44,5.25-2.21-10.57-20.58-5.66-5.49,13.13,8.4,25.35,3.88,39.57-2-2.17-3.87-1.55-4.94-2.59-9.42,14.37,15.6-2.34,13.78,9.48-7.75-.25-9.67.42-13.54,4.5l12.66,2.82c-1.95.67-11.64,1-15.57-.49,16.64,4.38,6.06,20.45,21.65,23.88-3.89,1.21-18.52-1.06-24.37.8-4.36,6.38,2,10.37,8,14.28,7.92-.23,7.73,2.15,6.78,5.24,2,2.29,2.7,4.82,0,8-2.21-2.44-.89-5.43,0-8a36.21,36.21,0,0,0-6.78-5.24s0,0,0,0c-10.72,4.8-8.7,15.35-10.64,13.16-4.73,11.31,8.77,1.44,18.61,9.58l6.67-9.16,4.08,15.64-7.83-6c-5.73,7.41,7.78,14.4,7.67,22.83l8.89-4.12,5.71,9.46c-18.45,1.47-3.89,12.42-25.34,7.73-8.71,17.68,14.44,28.52,17,44.33a2,2,0,0,1,.17.9c0-.31-.12-.6-.17-.9-.78-1.66-4-.83-6.62-1.29-3.9,9.54,5.58,15.1,15.24,20.68-5.79-1.09-7.7-3.33-12.62-3.31-.16,11.23,10.61,6.69,16.2,19.07-7.74-3.37-11.7-2.25-13.66,1.14,6.79-.58,11.61,2.24,13.55,4.51-36.82-9-14.91,14-44,8.3,7.79.54,23.94,19.7,38.64,14.16l-2.77-3.37c10.12-.43,6.15,4.18,6.91,7.65,2.28,2.46,3.36,4.7.64,1.41a2.74,2.74,0,0,1-.64-1.41c-1.71-1.79-4-3.68-6.07-3.72,12.37,17.58.93,36,9.91,55.88-3.8-1.76-10.36-9.78-13.45-4.73-5.59,19.52,13.48,31.15,22.46,51.22C801,450.93,821.31,429,799,427.86A333.05,333.05,0,0,0,823.09,494c-34.54,7,13.44,23.17-13.73,36.64,11.56-.93,15.42,6.41,15.41,14.26l.24,0-.29,1.16a27.13,27.13,0,0,1-2.49,10.59l2.49-10.59a9.4,9.4,0,0,0,0-1.19c-9.26-3.07-9.84,5.17-16.51,2.59,10.25,7.27,13.76,27.31-8.58,25.45,21.58,2.83-1.63,14.6,13.45,21,1.94-2,4.87-3.85,9.85-5.51l-6.32,6.94a15.53,15.53,0,0,1-3.53-1.43c-8.46,8.2,3.77,18.79-3.43,29.24,12.65-2.74,7.17,8.71,10.22,14.08a14.36,14.36,0,0,1,1.16,1.42,5.1,5.1,0,0,1-1.16-1.42c-.93-1-2.13-2-3.44-1.72-12,2.51,9.63,13.14,2.28,18.83-5.07,2.44-12.53-1.51-13.89,2.9,9.68.73,20,18,7.82,23.26.22-2.81-4.67-3.21-8.34-5.2,15,30.1-7.85,59.19,9.68,90.37L798.12,759c-22.27,16.44,25.85,14.52,22.26,29-5.73,19.62-15.36,39.17-22.66,58.73s-12.65,39.09-9.41,59c4.46,3.4,6-.93,12.85-.59-2.36,3.11-16.06,2.43-7.95,8l8.87,0c-25.58,14.71,10.61,52.66-27.94,61,12.2,18.4-13.13,27.2,5.75,49.91-8.47,5.44-14.3-9.21-17.39-.86l11.73,20.27c21.14,20.63-35,43.5-18.4,67.68l-1.21-1.09c-6-1.15-13.81,2.77-12,6.62,4.2,1.7,6.65-.53,12-2.19,8.52,21,8.67,25.41,9.48,41.34-8.55-7.58-8.36,5.63-21,5.27,8,4.84,13.26-1.29,19.51,8.49.24,13.17-11.42,24.39-16.43,35.07,11,5.13,7.62,10.72,21.51,11.82,0,14.76,5.24,23.23,4.44,41.27l-4.81.28c17.15,5.5-9.32,15.37.62,19.12-6.13-.7-8.61-2.72-13.45-2.39l5.38,8.45c-5.14-4.05-21.55-6.83-23.58,0,12,7.47,8.36-1.72,18.21,2l-16.15,1.7c1.62,5.44,19.8,7.37,24.87,1-.67,18.19,6.86,36.27,4.07,52.45l-10.52-1.81c3.86,9.06,3.73,21.2-5.52,26.58,3.08.24,8.72,2.45,12.18,1,13.31,9.93-13,2.48-4.33,10.72l.77.67c.54.47,1.09.93,1.83,1.49-.65-.48-1.25-1-1.83-1.49-.26-.23-.55-.46-.77-.67-2.58-2.31-4.93-4.52-9.6-4.88l13,21.93c-7.85.27-25.22,13.94-18.16,23.21,4.4.28,10.32-2.5,11.18-4.88l-1.71-2.36c1.6.6,2,1.43,1.71,2.36l4,5.9L741.34,1423l16.14,8.33,3.5-.1-.4,1.73-3.1-1.63-15.26.48c3.17,6.34,22.81,8.41,21.58,13.58-9.28,19.53-14.64,15.75-28.68,30,29.22.6-.42,22,20.6,24.72-21.3,19.23-7,45.41-12.24,69.86l-2.66-1.85c-13.07,11,22.63,10.65,17.25,22.08l-4.44-2.57c-14.92,15.13.54,39.54,13.52,52.39-4.5-2.52-13.78-.57-12.54,3.76,5.9,3.37,20.22-4.8,15.12,3.23-2.91-1.74-9.22.14-9.3,1.91l14.9,6.69c-9,20.36-18.14,44.32-8.63,64.38-4.93,4.13-10.34,1.66-15.39,1.07,4,16.12,17,31.61,20.42,46.18L755,1769.74c.4,7.23,26,2.87,11.52,13.2-2.14,2.23-1.42-6.14-9-8.26-12,15.3,16.85,7.54,15.74,21.5l-19.18-2.43c-10.65,11.31,10.66,11.48,22.06,14.65,23.17,13.51-36,12.87-18.17,32.1,9.5,2.63,13.75-1.92,23.25.71-4.12,14.57,9.39,15.43,5.3,30-27.91,9.4-.39-7.28-26.43,2.68l5.83-11.27c-14.41,10.3-4.25-8.28-21-5.77-4.46,7.33,10.32,17.12,16.4,25.94-12.7.79-2.06-10.55-19-5.25l5.45,4.37c-3.8-1-8.63-1-8.42-3.75-11.85,2.43-.41,5.57.14,10a126.55,126.55,0,0,0,25-3,17.37,17.37,0,0,0-4.46,1.48c7.89,3.39,10.14,8.25,11.24,13.27h305.56c-8-13.06-15.29-23-12.44-33.35-3-.38,9.68-.63,11.77,1.43-12.93-8.16,25.51-21.8-.84-22.41l-1.84,3.48c3.14-18.15-16.64-36.78-21-55.23,15.43-5.24,2.21,10.62,20.58,5.74,5.42-13.16-8.29-25.5-3.62-39.77,2,2.18,3.86,1.57,4.91,2.61,9.52-14.38-15.55,2.28-13.75-9.58,7.75.28,9.67-.38,13.52-4.45l-12.68-2.91c1.95-.66,11.65-1,15.58.58-16.73-4.49-6-20.59-21.58-24.15,3.91-1.19,18.51,1.21,24.37-.62,4.41-6.37-1.91-10.43-7.92-14.41-7.91.16-7.7-2.24-6.73-5.34-2-2.32-2.67-4.87,0-8,2.19,2.48.85,5.47,0,8a36.28,36.28,0,0,0,6.73,5.34c.05,0,.05,0,.05,0,10.76-4.73,8.82-15.33,10.75-13.12,4.84-11.31-8.78-1.52-18.46-9.82l-6.82,9.14-3.8-15.79,7.71,6.12c5.94-7.4-7.64-14.59-7.46-23.09l-8.91,4-5.66-9.63c18.47-1.22,4-12.47,25.4-7.41,8.89-17.64-13.91-29-16.23-45,.75,1.68,4,.92,6.58,1.43,4.11-9.53-5.38-15.34-14.87-21.22,5.76,1.25,7.63,3.55,12.55,3.65.39-11.34-10.47-7-15.8-19.68,7.67,3.61,11.65,2.58,13.68-.8-6.8.41-11.57-2.57-13.45-4.92,36.61,10.13,15.19-13.7,44.18-7.12-7.83-.75-23.42-20.55-38.26-15.43l2.66,3.48c-10.13.13-6-4.42-6.66-8-2.19-2.55-3.2-4.85-.59-1.44a2.73,2.73,0,0,1,.59,1.44c1.66,1.87,3.88,3.86,6,4-11.72-18.18.16-36.4-8.23-56.7,3.75,1.92,10.07,10.23,13.31,5.26,6.18-19.42-12.42-31.81-20.61-52.24,23.44.45,2.28,21.69,24.55,23.64-4.26-21.14-11.26-43.07-22-67,34.73-5.83-12.71-23.47,14.87-36-11.56.58-15.3-6.81-15.15-14.56l-.24,0,.31-1.14a26.32,26.32,0,0,1,2.67-10.4l-2.67,10.4a9.18,9.18,0,0,0-.07,1.17c9.2,3.29,9.92-4.85,16.54-2.13-10.11-7.5-13.29-27.27,9-25-21.53-3.22,1.87-14.42-13.11-21-2,1.93-4.94,3.72-9.94,5.27l6.43-6.72a15.75,15.75,0,0,1,3.51,1.45c8.6-8-3.49-18.5,3.63-28.72-12.64,2.63-7.21-8.56-10.3-13.8.94,1,2.15,2,3.46,1.68,12-2.49-9.71-12.82-2.42-18.36,5.06-2.43,12.55,1.38,13.87-3-9.66-.67-20.21-17.26-8.08-22.58-.18,2.74,4.71,3,8.41,4.91-15.36-28.9,6-58.1-12.86-87.58l16.21,5.62c21.49-17.42-26.55-12.64-23.88-26.8,8.86-38.68,32.86-79.14,22.52-117.64-4.77-2.86-5.87,1.57-12.72,2,2-3.32,15.74-4.16,7.13-8.75l-8.82.94c24-17.37-15.9-50.66,21.52-63.56-14.06-16.85,10.18-28.68-11-49.17,7.85-6.45,15.18,7.52,17.38-1.21l-13.76-19c-23.07-18.4,30.51-47.8,11.86-70.4l1.31,1c6.09.54,13.5-4.2,11.41-7.92-4.33-1.3-6.58,1.2-11.78,3.42-10.29-20.5-10.75-25-12.8-41.2,9.1,7,7.92-6.49,20.59-7.18-8.27-4.27-13.13,2.44-20.06-7-1.16-13.5,9.78-25.94,14.22-37.14-11.25-4.55-8.15-10.51-22.08-10.82-.8-15.25-6.35-23.74-6.21-42.46l4.8-.48c-17.39-5,8.82-16.23-1.2-19.72,6.14.52,8.68,2.52,13.5,2l-5.59-8.51c5.24,4,21.71,6.32,23.58-.67-12.19-7.29-8.32,2-18.27-1.55l16.1-2.19c-1.75-5.5-20-7.05-24.88-.33.2-18.73-7.52-37.23-4.84-53.91l10.52,1.78c-3.88-9.25-3.79-21.73,5.43-27.21-3.08-.25-8.71-2.53-12.17-1.06-13.25-10.21,13-2.5,4.4-10.94,2.57,2.37,4.9,4.63,9.56,5l-12.9-22.5c7.82-.24,25.36-13.9,18.47-23.41-4.41-.37-10.36,2.35-11.26,4.78l1.67,2.42c-1.59-.63-2-1.49-1.67-2.42l-3.91-6.09,18.25-4.68-16-8.82-3.51,0,.44-1.76,3.07,1.73,15.26-.15c-3-6.5-22.61-9.08-21.27-14.33,9.74-19.65,15-15.65,29.42-29.6-29.19-1.59,1.08-22.22-19.85-25.78,22-18.64,8.65-45.66,15-70.1l2.58,2c13.55-10.44-22.13-11.9-16.23-23.16l4.32,2.82c15.57-14.46,1.36-39.84-11-53.58,4.36,2.81,13.73,1.39,12.72-3-5.71-3.74-20.44,3.63-14.93-4.15,2.82,1.92,9.22.41,9.38-1.37l-14.52-7.63c10-19.95,20.46-43.43,12.06-64.13,5.15-3.83,10.42-1,15.42-.11-3.06-16.41-15.22-32.73-17.86-47.55l16.84-1.5c0-7.25-25.79-4.5-10.78-13.94,2.26-2.1,1.09,6.25,8.56,8.84,12.79-14.57-16.41-8.61-14.53-22.52l19,3.64c11.26-10.66-10-12.17-21.21-16.06-22.39-15,36.67-10.63,19.89-31-9.34-3.23-13.83,1.06-23.17-2.17C1054.56,20,1041.12,18.33,1046,4c28.38-7.65,0,7.32,26.53-1l-6.44,10.92c15-9.41,3.8,8.57,20.61,7.1,4.86-7.06-9.36-17.8-15-27,12.72,0,1.48,10.7,18.67,6.45l-5.2-4.72C1089-3,1093.78-2.8,1093.43,0,1105.38-1.73,1094.14-5.59,1093.83-10.1ZM785.51,106l-4.11-7,11.71,1.67ZM764.64,1885.22a69,69,0,0,0,12.32-3.83C778.51,1893.08,774.46,1883.59,764.64,1885.22Zm297.23-103,4.08,7.09-11.72-1.71ZM1056.08-5.6c-.91-11.81,2.62-2.05,12.51-3.07A68.28,68.28,0,0,0,1056.08-5.6Z"/><path class="cls-6" d="M567.41-87v-6.16c-6.65,1.73-13.25,3.94-18.36,4.17,7.93-12.65-7.9-20.33-9.56-29.31l13.43.29c-2.48-4.22-5.69-6-11.54-7l.21,1.78-6.86-2.55c2.53.19,4.78.44,6.65.77l-.77-6.82c5.15,3.41,9.46,4.26,20.13,3.37-4.41-6.88-2.07-17.28-20-17.12l3,0c5.37-10.4,7.07-31.13,13-31.2-6.93-9.7,1.66-24.19-15.88-22.25,1.22,1.34,4,2.24,9.72,2.48-6,.11-19.62,1.24-19.23-.51a64.47,64.47,0,0,1,9.51-2c-4.93-5.63,20.74-19-1.79-20.56,10.77-8.9,4.69-1,18-.48,6.38-5.32-1.84-8.72-4.25-11.84H291c-1.5,20.93,42.93,35.65,20,57.82l-5.5-1.79c3.07,13.71-5.5-1.82-13.49,8.28,18,1.69,14.08,17.32,20.75,25.18-3.7-1.2-3.34-3.93-5.94-6.19-4,1.53-14.66,2.25-11.32,6.18,25.74,8.48,23.33,27.45,31.13,41.33-11.73,1.81-21.9,14-40.88,20.46,4.25,1.41,13.29,3.89,22.1,6.14a26.25,26.25,0,0,1,3.05-1.85c.13.57.71.81,1,1.24-.6-3-1.28-4.61-2.23-3.88,11.21-5.73,9.07.28,22.73-.25-.46,4.58,4.4,14-5.93,15.16-.15,2.74-1.66,4.57-3.68,7.45,2.12,1.72,3.29,3.55,2.07,5.63L323.47-52a22.79,22.79,0,0,0-4.31,1.23c-5.78,9,14.78,21.38,24.25,28.65C326.11-29.24,324-20,311.52-19.91c1,.84,1.66-8.31,1.88-19.67-1.35.83-3.59,1.49-8.07,1.75-13.2,10,11.82,16.66,2.73,31.06a11.93,11.93,0,0,0-8.91-2c-3.49,5.07,6.54,9.65,14,10.73-12.23,1.39-21,12.32-15.5,17.64,10.13,4.6,14.76,3.88,13.8,12.44l-8.69-3.67c-6.82,9.72,11.11,8.29,6.44,15.52a2.46,2.46,0,0,1-.68,1,7.23,7.23,0,0,0,.68-1c.85-2.38-6.51-2.32-8.06-.08,4.87,10.47,9.61,10.66,27,18L314.57,60.6c8.16,8.85,24.85,25.56,6.5,25.93,28.16-3.09,15,19.36,14.51,27.15-.86-2.67-6.79-3.11-9.81-3.35,18.75,16.18.88,33.07,1.3,49.61l-20.52,2.79c.87,8.74,41.46,10.91,40.61,20.4l-9.86-3.36c3.4,16.79,1.72,23.59-1.71,37.21l-13.76-.16c6.44,4.82,6.41,10.9,12.86,15.76-33.33,11.32,17.86,43.94-19.36,64.5L341,298.22c-.48,7.78,4.68,17.71-14.54,21.47l.36-1.73c-19.61-.66-.39,7.78-4.71,12.65,2.17,3.66,15,7.26,18.84,4.09-12.89,20.71.68,51.33-22.5,64.27,8.47,20.66,28.88,36.22,26.31,58.59l-3-.26C338.29,464.85,331.34,480,310,480c5,16.08,34.42,26.3,24.93,45.52l-8.17-4.15c-4.24,4.87,6,12.67,8.5,14.61-.42,1.7-4.67.46-7.67.23-7.31,4.6,4.24,7.31,6.34,11l-7.26-1.48C312,561,340.93,585.11,337.31,604.81c-2.14-3.63-10.27-1.71-13.7-.26,23.86,8.1,18.12,30.25,23.63,38.5L337.9,638c15.63,16.09-25.11,13.83-9.32,29.79l13.71-9.11c-4.06,6.49.52,12,11.15,10.49-7.91,7.52-18.19.88-20.51,12.27-6.67.46-4.54-8.22-13.2-4.51L302,692.58h.1c13.59-10.88,17,8.2,29.22,1-8,9-23.88-2-29.22-1l-1.41,1.12,1.24-1.08c-1.88.48-2.35,2.47-.5,7.63,29.71-1.27,1.56,13.08,30.51,5.26,2.12,22.36-17.57,41.14-3.89,60.38-28.89,7.71-1.28,38.05-38.45,35.89q-.6,16.23,22,26.43c3-2.14-1.71-4.94-3.54-7.14,9.44,2.9,10.91,16,10.73,21.4-8.39-7.19-15.59-18.76-29.77-24.43,3.53,9.86,17.36,23.69,21.95,29.21l-19.2,2.36c14,8.41-15.53,6.82,3.33,15.29l5.74-1.53c-1.48,15.2,17.62,15.57,20,29.76l-7.56-.7c-3.06,4.84,14.79,12.25-2.59,16.81L310,900c-13.4.81-19.37,7.82-26.17,10.93,3.42,9.82,21.85,3.67,23.59,8.59-12.57,2-6.75.44-19.06-3.08,4.36,11,9.54,25.76,25.56,33.72a13.26,13.26,0,0,1-4.76-.12c-2.37,11.35,20.22,21.66,9.43,28.49l-1.84-2.23c-18.51,8.89,17.21,23.81-14.39,25.28-5.93,4.23,1.37-9.78-14.22-3.06-10.12,13.4,26.38,9.3,17.31,21.08,1-1.62-.9-1.12-3.77-1.71.59,8.63,3.53,20.12,6.62,29.67a27.1,27.1,0,0,1,2.77-1.15l-2.06,3.21c-.23-.66-.45-1.42-.71-2.06-25.84,11.29,5.94,35.85-24.16,48.78,10.67-4.1,12.28,3.56,17,3.66a12.73,12.73,0,0,0-4.75-.1c-.87,4.87,9.16,5.64,13.34,7.55a8.08,8.08,0,0,1,1.69-.65c1.21,1.51.73,2.24,0,3a4.08,4.08,0,0,1-1.14,1.31,10.82,10.82,0,0,1,1.14-1.31c.52-1-.29-1.79-1.65-2.39-9.17,3.84,9.6,13.7,3.55,16.14,6.65.18,4.83,4.07,4.66,8.43-7.31-8.88-14.21-3.07-24.57-7.18-3.48,13,29,15.48,23.59,29l-12.75,7.26c19.13,1.89,11.15,14.33,18.27,14.18a25.58,25.58,0,0,1,6-1.52,16.63,16.63,0,0,1-6,1.52c-6,2.21-9.54,5.55-19.13,4.85,4.53,5.53-5.42,13.46,5.95,15.94l5.08-5.3c-7.49,16.65,19.83,27.28,6.81,39.92l-28.7-.86c-11.9,8.36,15.48,16.21-2,23.28,9.66-2.41,6.79-3,16.15,2.65,2-3.21-5.32-9.37-5.06-14.79l16.65,11.86-7.83-18.13c11.15,7.94,8.33,7.33,20,4.42,9,11.09-14,11.5-3,22.09-4,3.68-14.31-.38-20.23,3.79,10.05,9.43-20.91,17.27-5.85,24.15-3,2.09-.81-3.81-7.53-3.41,2.63,6,1.46,10.29,10.05,12.14l3.22-5.07a5.3,5.3,0,0,1,1.87-2.91l-1.87,2.91c-.83,4.47,10.87,5.37,4.05,13.82,6.56,5,20.75,7.92,21,2.59,1.82,2.18-6,6.85-14.56,5.08-.47,13.29,30.56,6.61,16.82,19.23,1,1.09,1.28,2.11-.26.31a1.38,1.38,0,0,1,.26-.31,4.21,4.21,0,0,0-4-1.33,7.48,7.48,0,0,0-1.42,5.6,5.94,5.94,0,0,1,1.11,2.4,5.31,5.31,0,0,1-1.11-2.4c-4.86-6.4-21.47,4.64-16.68-7.5-15.3,1.38-3.22,10.17-9.07,14.4,10.33,6.53,22,.75,29.51,4-4.79-.06-4.85,2.62-6.86,5.8l11.54-3.09c0,2.68-.12,5.32,2.67,8.51l-4.67-5.36c-2,5.8-20.43,14.84-9.2,25-4.73-2.65-14.13-8-20-1,7.48,11.19-4.8,2.68-13.52,9.19,2.68,11.23,20.62,1.62,13.76,18.28,0,1.79,6.71,0,9.86-1.87a19.81,19.81,0,0,1,1.05-2.22c1.22.49.41,1.35-1.05,2.22-5,10.67,1.93,16.5-3.87,26.43,2.69-3.78,6.22-5.84,11.14-.52-9.54-2.4-8.6,9.21-14.28,13.66l5.81.85c-6.11,3.62-8.72.15-10.93-2.51a3.47,3.47,0,0,1-3.54-2.3c1.39-.43,2.42.8,3.54,2.3,2,0,3.74-1.06,3.18-3.07-4.77-5.18-26.81-2.43-28.58,6.32,5.79,9,21.11,6.73,26.8,4.91-5.61,12.52,26.94,10,18.56,21.9.1,2.59-22.58,12.88-24.18,21.62,13.47,3.38,9.18-11.24,20.77-7.17-16,8.14-10.44,15.07-3.2,22.26s16.23,14.73,7.19,24.86l-16.29-.84c-.7,4.4-1.42,8.76.76,13.45l8.24-7.19c4,4,1.71,14.42-10.81,12.29,13.89,8.51,6.42,11.31,3.11,20.87.43-9.81,2.21-.4-6.75-6.64-7,11-1.54,11.22,2.68,17.89-5.78-.59-14.17,4-13.93,6.74,10.86,5.55,9.66,17.1,15.94,25.82l-4.77.45c7.49,14.95-13.34,33.93,2.1,48.31a6.28,6.28,0,0,0,1.87-1l1.72-2.5c.92-3-.71-6.38,4.54-6.45l-4.54,6.45a4.15,4.15,0,0,1-1.72,2.5l-.28.43c14.77-6.78,11.68,11.3,18.3,15.63-3.81,1.37-10.44,2.42-10.32,5.15,14.31-1,7.85,5.52,14.65,7.28-4.54,5.83-17.14.61-15.85,9.87,1.46,3.51,8.94,3.41,14.35,2.59a18.94,18.94,0,0,1,4.84-1.05,25.84,25.84,0,0,1-4.84,1.05c-7.11,2.5-12.43,8.85-13.84,13.88-3.87-1.42.86-4.44-.14-5.49-7.64-.1-4.69,3-14.27,3.58-.79,4.4,13.47.86,8.82,6.63l-11.59-4.3c-2.73,2.36,2.14,4.82,3.06,5.84-2.93-3.12-14.39-1.9-21.07-1,9,12,30.58.53,43,.37-8.24,12.54,7.23,21.12,8.35,30.49l-13.4-1.08c2.25,4.43,5.35,6.47,11.14,7.86l-.11-1.84,6.71,3.05c-2.52-.36-4.75-.76-6.6-1.21l.39,7c-4.94-3.84-9.21-5-19.91-4.76,4.05,7.26,1,17.59,18.91,18.82l-3-.18c-5.95,10.21-9.26,31-15.16,30.52,3.54,6.07,1.68,13.2,2.89,18.14H521.19c-8.12-8.44-13.39-17.21-2.67-28.55l5.57,1.51c-3.67-13.51,5.58,1.53,13.11-8.93-18-.78-14.84-16.54-21.84-24,3.75,1,3.5,3.75,6.2,5.87,3.94-1.72,14.55-3,11-6.72-26.1-7.16-24.53-26.17-32.94-39.6,11.63-2.4,21.25-15,39.93-22.45-4.31-1.19-13.46-3.2-22.35-5a26.28,26.28,0,0,1-3,2c-.15-.56-.74-.77-1.06-1.19.73,3,1.48,4.54,2.4,3.76-10.94,6.28-9.08.18-22.7,1.4.26-4.58-5-13.71,5.25-15.4,0-2.74,1.45-4.64,3.34-7.61-2.19-1.6-3.45-3.37-2.32-5.5l1.44.83a22.82,22.82,0,0,0,4.25-1.44c5.37-9.27-15.73-20.55-25.51-27.34,17.6,6.23,19.29-3.06,31.75-3.81-1-.8-1.29,8.38-1,19.7,1.31-.89,3.51-1.67,8-2.14,12.74-10.6-12.55-16-4.11-30.84a11.93,11.93,0,0,0,9,1.53c3.26-5.23-7-9.3-14.48-10,12.16-2,20.43-13.32,14.73-18.37-10.31-4.1-14.91-3.16-14.31-11.76l8.83,3.25c6.4-10-11.43-7.75-7.07-15.2-.75,2.42,6.6,2,8.06-.29-5.31-10.25-10-10.22-27.69-16.82l13.59.65c-8.54-8.46-25.82-24.55-7.51-25.68-28,4.28-15.71-18.83-15.47-26.69.94,2.66,6.89,2.86,9.91,3-19.31-15.54-1.95-33.24-2.84-49.84l20.42-3.44c-1.13-8.71-41.72-9.76-41.11-19.41l9.94,3.13c-3.8-16.86-2.28-23.8.94-37.66l13.76-.09c-6.52-4.74-6.58-10.88-13.11-15.7,16.59-6,12.05-17,7.95-29.24s-7.54-25.81,11-36.13l-25.67-1.24c.49-7.9-4.54-18.11,14.7-21.72l-.38,1.75c19.61.87.46-7.87,4.82-12.77-2.15-3.72-14.88-7.6-18.79-4.42,6.66-10.48,6.7-23.53,8.07-35.58s4.18-23.11,15.95-29.21c-7.64-21.24-27.43-38.26-23.52-61.13l3,.45c3.8-7.54,11.73-22.5,33.07-20.9-3.95-16.54-32.53-29.45-21.49-48.15l7.81,4.94c4.61-4.53-5-13.37-7.27-15.58.57-1.68,4.69,0,7.66.5,7.68-4-3.58-7.78-5.36-11.71l7.1,2.22c15.93-13.94-10.62-41.17-5.07-60.6,1.77,3.88,10,2.85,13.6,1.78-22.93-10.77-15-32.33-19.57-41.19l8.76,6.18c-13.87-17.88,26.39-10.86,12.38-28.58l-14.59,7.45c4.72-6,.76-12-10-11.76,8.66-6.54,18.19,1.28,21.68-9.76,6.67.34,3.65,8.71,12.64,6l19.3-13.45h-.09c-14.64,9.16-16-10.14-28.94-4.44,8.86-8,23.53,4.79,28.94,4.44l1.51-.95-1.34.93c1.91-.26,2.59-2.17,1.29-7.5-29.66-2.28-.19-13.14-29.77-8.83.21-22.34,21.73-38.6,10-59.09,29.54-4.38,4.92-37.24,41.68-31.17,1.43-10.67-5.19-20.17-19.61-28.33-3.13,1.82,1.3,5,3,7.39-9.16-3.81-9.57-16.77-9-22.1,7.78,7.86,14,20,27.66,27-2.72-10.13-15.36-25.12-19.48-31l19.31-.53c-13.26-9.59,16-5.35-2.06-15.42l-5.85,1c2.69-14.87-16.26-16.87-17.52-31l7.49,1.3c3.36-4.53-14-13.21,3.63-16.35l0,9.16c8.54.18,14.23-2.38,19-4.92V713.86c-6.38-1.62-14.34-.87-15.24-4.06,11.16-.87,7.91-.15,15.24,3.06v-8.92c-3.48-9-8.77-18.43-19.82-24.79a13.68,13.68,0,0,1,4.74.44c3.09-11.06-18.81-22.58-7.78-28.65l1.73,2.31c18.9-7.71-16.08-24.38,15.53-24.13,4.41-2.81,1.53,3.45,5.6,4.94V621.17c-6.39-2.34-12.52-4.62-7.9-10-1.09,1.55.84,1.15,3.68,1.87-.22-8.56-2.62-20-5.34-29.6a27.7,27.7,0,0,1-2.8,1l2.15-3.09c.21.66.4,1.42.65,2.06,5-1.95,7.92-4.48,9.56-7.35v-44a4.43,4.43,0,0,0-1-.23s.42.09,1,.18v-4.52c-3-1.32-7.09-2.14-9.38-3.24a8,8,0,0,1-1.7.59c-1.17-1.52-.67-2.22.11-3a4.09,4.09,0,0,1,1.17-1.26,9.56,9.56,0,0,1-1.17,1.26c-.54,1,.25,1.77,1.59,2.4,9.27-3.59-9.26-13.73-3.15-16-6.64-.32-4.79-4.11-4.59-8.39,5.37,6.58,10.58,5.21,17.12,5.8V496c-8.14-5.13-19.38-9.39-15.95-17.59l12.82-7c-19.12-2.06-11-14.22-18.15-14.14a25.53,25.53,0,0,1-6,1.46,17.25,17.25,0,0,1,6-1.46c6-2.13,9.59-5.39,19.17-4.66-4.48-5.48,5.54-13.29-5.81-15.76l-5.13,5.22c7.71-16.45-19.94-26.81-7-39.33l20,.45V381.13c-1.27-.68-2.94-1.74-5.64-3.33-2,3.2,5.39,9.23,5.17,14.62L550.2,380.84l8,17.85c-11.22-7.75-8.39-7.15-20-4.18C529,383.66,552,383,541,372.66c4-3.7,14.31.19,20.2-4-5.62-5.13,1.5-10,6.25-14.4v-9.31c-.26-.12-.42-.25-.7-.38a2.2,2.2,0,0,1,.7-.34v-7.28a16.5,16.5,0,0,0-3.37-1L560.9,341a5.25,5.25,0,0,1-1.81,2.93L560.9,341c.76-4.47-10.95-5.17-4.29-13.7-6.64-4.88-20.86-7.57-21-2.25-1.85-2.14,5.86-6.93,14.49-5.3.28-13.26-30.67-6.09-17.06-18.95-1-1.07-1.31-2.09.26-.3a2.21,2.21,0,0,1-.26.3,4.18,4.18,0,0,0,4.05,1.28,7.52,7.52,0,0,0,1.36-5.64,5.74,5.74,0,0,1-1.13-2.38,5.39,5.39,0,0,1,1.13,2.38c4.93,6.34,21.42-5,16.76,7.25,15.29-1.62,3.1-10.21,8.93-14.54-10.36-6.39-22-.42-29.53-3.6,4.79,0,4.83-2.7,6.82-5.91l-11.52,3.26c0-2.69.06-5.34-2.78-8.52l4.77,5.32c1.92-5.87,20.14-15.15,8.8-25.22,4.76,2.63,14.22,7.9,20,.86-5.73-8.41-.13-5.71,6.69-6.69v-8.76c-5.52-1.54-11.55-1.23-7.13-12.17,0-1.8-6.72,0-9.86,1.93a19.07,19.07,0,0,1-1,2.24c-1.22-.48-.42-1.35,1-2.24,5-10.77-1.88-16.65,3.93-26.65-2.71,3.77-6.27,5.81-11.09.43,9.58,2.46,8.52-9.3,14.24-13.76l-5.81-.91c6.13-3.62,8.72-.08,10.93,2.62a3.49,3.49,0,0,1,3.53,2.35c-1.38.42-2.42-.83-3.53-2.35-2,0-3.75,1-3.19,3.08,1.45,1.58,4.45,2.43,8,2.62V181.86a37,37,0,0,0-6.17,1.25c5.66-12.54-26.86-10.44-18.35-22.5,0-2.62,22.07-12.31,24.52-20.93v-.43c-13.2-3.62-9.38,11.13-20.81,6.74,32.44-15.8-21.38-28.05-2.77-47.62l16.27,1.42c.81-4.39,1.68-8.71-.37-13.47l-8.45,6.89c-3.89-4.1-1.26-14.45,11.19-11.88-13.6-9-6-11.49-2.39-20.89-.78,9.75-2.23.32,6.5,6.84.31-.45.56-.85.83-1.26V53.33a29.67,29.67,0,0,1-2.85-3.94,12.36,12.36,0,0,0,2.85,0V26a35.21,35.21,0,0,0-4.16-8.89l4.16-.29V15.05c-1.3-3.85-1-7.9,0-12V-30.23c-.26-.26-.44-.53-.72-.79a6.09,6.09,0,0,0-1.86,1l-1.71,2.46c-1,3,.62,6.29-4.63,6.33l4.63-6.33A4,4,0,0,1,564.83-30l.27-.43c-14.75,6.64-11.72-11.06-18.43-15.2,3.79-1.38,10.42-2.48,10.26-5.16-14.3,1.17-7.91-5.27-14.73-6.86,4.46-5.76,17.16-.93,15.69-10-1.54-3.41-9-3.11-14.41-2.17a18.6,18.6,0,0,1-4.81,1.15,27.73,27.73,0,0,1,4.81-1.15c7.07-2.61,12.25-9,13.55-14,3.89,1.26-.76,4.38.26,5.38,6.26-.11,5.37-2.13,10.12-3.33v-3.05c-3.52-.37-7.63-.31-4.91-3.85ZM334.6,287.31l.84-3.43,4.31,7.27ZM309.36,865.17c-1.95-2.22,4-6.49,5.13-10.81C322,857.76,317,863.14,309.36,865.17Zm-1.75,194.18,15.33-1.26C327.51,1063.67,310.32,1062.71,307.61,1059.35Zm2.48,520.92c7.63-.18,10.22-5.31,12.43-.62Zm17.71-81.57-3.12-5.65,5,7.59Zm151.49-158.11-.83,3.49-4.32-7.4Zm79.53-768.78-15.36.66C539.05,566.82,556.21,568.39,558.82,571.81ZM546.3,763.18c1.77,2.37-4.55,6-6,10.18C533.12,769.33,538.5,764.51,546.3,763.18Zm-20-971.39c3,0,7.44-7,10.6-1.11C532.83-204.06,531.5-204.87,526.26-208.21ZM559.88,52.36c-7.63-.06-10.41,4.93-12.44.22Zm-20.14,81,3,5.81-4.8-7.83Z"/><path class="cls-3" d="M500.38,1313.87c-.21,1.35,3.15,2,6.46,1.59a24.23,24.23,0,0,1,.54-5.81C504.54,1311.57,502.55,1314.67,500.38,1313.87Z"/><path class="cls-3" d="M507.79,1326.39c-.1-.75-.26-1.93-.45-3.31h-.19C507.52,1324.74,507.68,1325.7,507.79,1326.39Z"/><path class="cls-3" d="M698,1368.75v-.58c-.27-1-2-1.56-6.48-1.53l-1.2,2.39c1.9-12.35-12.21-24.43-15.56-36.85,10.46-4,1.72,7.16,14.2,3.37,3.48-9.08-6.26-17.11-3.37-27,1.42,1.44,2.68,1,3.42,1.67,6.22-10-10.61,1.92-9.61-6.22,5.32,0,6.62-.48,9.18-3.35l-8.73-1.7c1.32-.5,8-.92,10.67.06-11.5-2.71-4.51-13.93-15.22-16.1,2.65-.88,12.7.5,16.68-.85,2.92-4.42-1.46-7.07-5.63-9.71-5.41.22-5.32-1.43-4.67-3.56-1.39-1.56-1.86-3.3-.05-5.48,1.51,1.67.62,3.73.05,5.48a24.37,24.37,0,0,0,4.67,3.56s0,0,0,0c7.29-3.38,5.91-10.57,7.23-9.09,3.23-7.76-6-.93-12.75-6.5l-4.56,6.34-2.79-10.77,5.35,4.11c4-5.11-5.41-9.9-5.31-15.72l-6.08,2.84-3.94-6.55c12.63-1,2.69-8.54,17.38-5.24,6-12.06-9.75-19.63-11.36-30.51.52,1.14,2.75.61,4.52.94,2.82-6.49-3.73-10.37-10.3-14.3,4,.81,5.26,2.36,8.63,2.39.17-7.67-7.22-4.68-11-13.2,5.28,2.39,8,1.66,9.37-.63-4.66.32-7.94-1.66-9.24-3.23,25.13,6.57,10.34-9.37,30.24-5.17-5.34-.46-16.18-13.68-26.31-10.07l1.85,2.32c-6.93.18-4.16-2.91-4.64-5.28-1.53-1.7-2.24-3.23-.42-1a1.75,1.75,0,0,1,.42,1c1.15,1.24,2.7,2.55,4.12,2.6-8.19-12.09-.3-24.5-6.35-38,2.59,1.22,7,6.69,9.19,3.3,3.92-13.19-9-21.15-15.12-34.59,16.08-.28,2,14.45,17.32,15.28a198.5,198.5,0,0,0-16.67-44.42c23.61-5-9.35-15.38,9.16-24.72-7.9.78-10.67-4.08-10.79-9.33l-.17,0,.18-.78a17.93,17.93,0,0,1,1.52-7.13l-1.52,7.13a7.12,7.12,0,0,0,0,.8c6.39,1.91,6.65-3.63,11.26-2-7.13-4.72-10-18,5.39-17.28-14.83-1.43.84-9.86-9.61-13.81a16.4,16.4,0,0,1-6.64,3.93l4.19-4.8a10.45,10.45,0,0,1,2.45.87c5.64-5.72-2.94-12.49,1.64-19.7-8.57,2.21-5.17-5.63-7.42-9.12a2.67,2.67,0,0,0,2.41,1c8.12-2.07-7-8.48-2.13-12.52,3.4-1.81,8.62.58,9.42-2.43-6.64-.16-14.27-11.3-6.09-15.3-.06,1.89,3.3,2,5.87,3.16-11.21-19.53,2.91-40.07-10.35-60l11.16,3.62c14.53-12.24-18.35-8.3-16.66-18.09,5.6-26.77,21.94-54.53,14.76-80.76-3.27-1.94-4,1.09-8.71,1.39,1.39-2.27,10.77-2.87,4.86-6l-6,.65c16.41-11.88-10.94-34.56,14.72-43.33-9.6-11.48,7-19.5-7.47-33.44,5.37-4.37,10.39,5.12,11.9-.8l-9.41-12.9c-15.81-12.49,20.95-32.42,8.14-47.77l.9.67c4.17.36,9.24-2.86,7.81-5.38-3-.88-4.51.82-8.07,2.33-7.07-13.91-7.39-17-8.81-28,6.24,4.74,5.42-4.41,14.1-4.9-5.67-2.89-9,1.68-13.74-4.75-.82-9.16,6.67-17.62,9.7-25.23-7.72-3.07-5.61-7.12-15.16-7.3-.58-10.34-4.4-16.09-4.35-28.79l3.29-.34c-11.93-3.37,6-11-.87-13.37,4.2.34,6,1.68,9.25,1.33l-3.85-5.75c3.6,2.71,14.89,4.22,16.15-.54-8.37-4.9-5.69,1.39-12.51-1l11-1.54c-1.21-3.72-13.7-4.72-17.05-.14.1-12.71-5.25-25.23-3.48-36.56l7.22,1.16c-2.7-6.25-2.69-14.73,3.61-18.49-2.11-.15-6-1.67-8.34-.66-9.11-6.88,8.9-1.75,3-7.44,1.77,1.59,3.37,3.12,6.56,3.36l-8.91-15.22c5.35-.19,17.32-9.55,12.56-16-3-.23-7.09,1.65-7.69,3.3l1.15,1.63c-1.09-.42-1.37-1-1.15-1.63l-2.71-4.12,12.48-3.26-11-5.91-2.4,0,.29-1.19,2.11,1.16,10.46-.18c-2.12-4.39-15.53-6.05-14.64-9.62,6.58-13.38,10.17-10.7,20-20.25-20-.91.64-15.09-13.72-17.38,15-12.78,5.69-31.05,9.87-47.68l1.77,1.34c9.23-7.18-15.22-7.94-11.24-15.62l3,1.89c10.58-9.92.71-27.06-7.82-36.3,3,1.88,9.41.85,8.69-2.15-3.94-2.5-14,2.61-10.25-2.71,1.94,1.29,6.31.21,6.42-1l-10-5.08C661.54,249,668.56,233,662.67,219c3.5-2.65,7.13-.78,10.56-.2-2.2-11.12-10.64-22.11-12.56-32.15l11.53-1.15c-.05-4.92-17.7-2.85-7.49-9.38,1.54-1.44.79,4.23,5.93,5.93,8.66-10-11.3-5.71-10.12-15.17l13.05,2.32c7.63-7.33-7-8.19-14.65-10.73-15.44-10,25.05-7.52,13.41-21.23-6.42-2.11-9.47.84-15.89-1.28,3.26-9.77-6-10.82-2.73-20.62,19.38-5.44,0,5,18.17-.92l-4.33,7.47c10.17-6.52,2.66,5.79,14.17,4.65,3.27-4.84-6.55-12-10.45-18.22,8.72-.11,1.1,7.25,12.84,4.22l-3.59-3.16c2.56.85,5.87,1,5.65,2.84,8.17-1.25.44-3.78.2-6.84a87.21,87.21,0,0,0-17.18,1.18,11.83,11.83,0,0,0,3.1-.86c-12.58-6.12-3.23-16.83-13.24-22.08,2.59.83,3.33.08,5.39-.23.45-3.8-11.09-7.56-14.46-12.61,6.37-2.85,19.2,1.37,15.56-6.74-7.21-1.36-19.7,2.42-19.51-4.41,0,0,6,5.89,11,2.63-5.13-6.64,2.3-2.2,10.42-8.41-10.25-3.37,3.52-6.73-13.1-7.26,11-2.31,6.91-1.68,14.79-6-8.94,2-9-7.87-19.8-7.46,12.3-1.89,15.17,7,27.93,1.27-8.24-3.68-11.36-10.65-24.65-11.06,2.93-2.85,7.56-4.25,9-8.49.08.63,2.11,1.3,3.2,1.67-5.59-4.89-4.33-11.33-6.41-16.54H491.15V10.89c1.35.38,2.88.75,4.68,1.1l2.75-2.35-4.32,8.76.22-.37a17,17,0,0,1,3.12-4.75L494.48,18c-1.09,2.76.09,3.71-3.33,6.25v26a11.76,11.76,0,0,0,3-.21A7.14,7.14,0,0,1,496.57,49a5.49,5.49,0,0,1-2.38,1.12c-.9.57-1.93,1.29-3,2v5.77c.9-.53,2.22-1,5.54-1.59l4.95,12.07c.08,1.37-4.05-.78-4.2-2.51-21,15.72,19.94,28.22-5.55,46,6.62-2.21,6,.86,10.7,2.18-1.86,5.4.25,13.31-3.64,18.42l-4.7-1.31c6.24,12.28,13.95,20.6,11.44,29.06,2,.31-6.64.26-8-1.17,8.75,5.73-17.75,14.36.29,15.18l1.3-2.32c-2.39,12.26,11.09,25.09,13.8,37.55-10.64,3.41-1.38-7.18-14-4.05-3.92,8.87,5.44,17.31,2.17,26.92-1.36-1.48-2.63-1.08-3.35-1.79-6.58,9.71,10.67-1.48,9.38,6.53-5.31-.21-6.63.23-9.29,3l8.67,2c-1.33.44-8,.64-10.66-.43,11.39,3.07,4.12,13.94,14.79,16.31-2.67.82-12.68-.77-16.69.48-3,4.33,1.35,7.06,5.48,9.73,5.42-.14,5.29,1.47,4.63,3.57,1.38,1.56,1.85,3.27,0,5.41-1.51-1.66-.61-3.69,0-5.41a24.75,24.75,0,0,0-4.63-3.57,0,0,0,0,1,0,0c-7.35,3.25-6,10.44-7.3,8.94-3.26,7.71,6,1,12.73,6.52l4.59-6.22,2.77,10.6-5.36-4.05c-4,5,5.42,9.76,5.41,15.47l6-2.82,4,6.38c-12.64,1.07-2.64,8.44-17.35,5.35-5.92,12.07,10,19.28,11.79,30a1.41,1.41,0,0,1,.12.61c0-.2-.09-.4-.12-.61-.54-1.11-2.76-.52-4.53-.81-2.69,6.51,4,10.19,10.63,13.85-4-.67-5.31-2.17-8.68-2.1,0,7.61,7.35,4.42,11.34,12.72-5.34-2.18-8-1.38-9.34.95,4.64-.48,8,1.36,9.34,2.87-25.34-5.63-10,9.68-30,6.24,5.34.27,16.65,13,26.65,9l-1.94-2.24c6.92-.45,4.27,2.74,4.83,5.07,1.59,1.62,2.36,3.12.46.94a1.81,1.81,0,0,1-.46-.94c-1.19-1.18-2.78-2.43-4.21-2.42,8.6,11.69,1.33,24.36,7.81,37.59-2.63-1.1-7.26-6.38-9.29-2.9-3.48,13.35,9.77,20.78,16.28,34.06-16,.92-2.51-14.45-17.82-14.64a202.45,202.45,0,0,0,18.12,44c-23.43,5.86,9.85,15.16-8.35,25.18,7.87-1,10.79,3.77,11.09,9.05l.17,0-.16.79a17.74,17.74,0,0,1-1.29,7.22l1.29-7.22a5.48,5.48,0,0,0,0-.81c-6.45-1.72-6.53,3.86-11.19,2.37,7.33,4.53,10.36,17.86-5,17.52,14.86,1-.63,9.94,9.89,13.62a16.57,16.57,0,0,1,6.56-4.12l-4.09,4.93a10.35,10.35,0,0,1-2.47-.81c-5.52,5.9,3.19,12.49-1.23,19.86,8.52-2.43,5.28,5.54,7.61,9,.33.32.64.65.85.9a3.16,3.16,0,0,1-.85-.9,2.67,2.67,0,0,0-2.43-1c-8.08,2.26,7.16,8.38,2.38,12.55-3.36,1.9-8.63-.39-9.36,2.65,6.64,0,14.47,11.09,6.36,15.26,0-1.9-3.33-1.91-5.93-3.06,5.78,9.71,5.22,19.81,4.93,29.94s-.49,20.32,6.24,30.27l-11.2-3.51c-14.41,12.46,18.43,8.14,16.81,18-5.48,27-21.44,55-14.36,81.33,3.27,1.94,4-1.1,8.72-1.4-1.4,2.28-10.78,2.89-4.88,6l6-.66c-16.44,11.92,10.84,34.81-14.85,43.53,9.58,11.58-7.07,19.53,7.33,33.64-5.41,4.35-10.37-5.23-11.91.71l9.35,13c15.66,12.73-21.3,32.32-8.71,47.86l-.88-.68c-4.17-.42-9.28,2.74-7.89,5.29,3,.92,4.52-.76,8.1-2.23,6.88,14.06,7.16,17.13,8.43,28.19-6.18-4.86-5.48,4.34-14.16,4.68,5.62,3,9-1.53,13.67,5,.69,9.21-6.91,17.56-10.05,25.14,7.66,3.23,5.47,7.25,15,7.62.37,10.4,4.07,16.25,3.76,29l-3.3.27c11.86,3.66-6.23,10.94.59,13.45-4.19-.44-5.91-1.83-9.22-1.56l3.73,5.87c-3.54-2.81-14.8-4.59-16.16.15,8.27,5.12,5.72-1.25,12.49,1.3l-11,1.27c1.13,3.77,13.6,5.07,17,.56-.36,12.75,4.71,25.46,2.68,36.79l-7.19-1.36c2.56,6.34,2.36,14.85-4,18.44,2.11.22,5.94,1.85,8.33.9,8.92,7.16-8.94,1.51-3.18,7.38l.56.53c.35.33.7.65,1.19,1-.43-.34-.82-.69-1.19-1-.2-.18-.4-.36-.56-.53-1.72-1.65-3.29-3.22-6.47-3.55l8.5,15.52c-5.35,0-17.57,9.06-13,15.64,3,.32,7.12-1.44,7.77-3.08l-1.1-1.67c1.07.45,1.33,1,1.1,1.67l2.59,4.21-12.56,2.89,10.83,6.26,2.4,0-.32,1.19-2.08-1.23-10.45-.14c2,4.47,15.35,6.55,14.35,10.1-7,13.21-10.46,10.41-20.57,19.65,20,1.58-1.07,15.1,13.21,17.88-15.27,12.3-6.63,30.91-11.36,47.42l-1.73-1.41c-9.46,6.85,15,8.51,10.72,16.06l-2.91-2c-10.91,9.54-1.6,27.07,6.6,36.66-2.94-2-9.38-1.21-8.76,1.82,3.85,2.65,14.06-2.07,10.15,3.11-1.89-1.36-6.3-.46-6.45.75l9.82,5.48c-7.16,13.38-14.76,29.13-9.4,43.38-3.6,2.5-7.15.48-10.56-.24,1.79,11.22,9.81,22.57,11.35,32.71l-11.56.66c-.14,4.93,17.58,3.61,7.12,9.71-1.59,1.38-.63-4.27-5.69-6.19-9,9.63,11.07,6.2,9.53,15.62l-13-2.88c-7.91,7,6.63,8.49,14.23,11.37,15,10.68-25.31,6.44-14.2,20.66,6.34,2.4,9.49-.42,15.83,2-3.64,9.64,5.52,11.1,1.9,20.76-19.58,4.58.15-5-18.18.11l4.62-7.28c-10.43,6.07-2.43-5.9-14-5.27-3.47,4.69,6.06,12.3,9.7,18.69-8.71-.29-.8-7.31-12.65-4.8l3.46,3.32c-2.53-1-5.83-1.22-5.53-3.09a14.38,14.38,0,0,0-2.2.38v3.54a5.37,5.37,0,0,1,1.73,2.91,88,88,0,0,0,17.2-.41,11.77,11.77,0,0,0-3.12.72,14.27,14.27,0,0,1,4.45,3.59H691.57c.25-3.2,2-6.58,6.45-10.24v-.91c-4.59,1.12-4.66-1.39-8.85-2.41,1.73-5.38-.65-13.08,3.07-18.29l4.73,1.12c-6.66-11.92-14.71-19.75-12.57-28.27-2-.2,6.63-.61,8.09.75C686.13,1378.05,697.34,1371.94,698,1368.75ZM681,1324l3,4.71-8.05-.86ZM669.09,106.59a47.84,47.84,0,0,0-8.55,2.19C659.83,100.77,662.32,107.37,669.09,106.59ZM506.46,217.29l-2.74-4.82,8,1.25Zm3.72,1218.39a45.73,45.73,0,0,0,8.63-1.81C519.2,1441.92,517,1435.2,510.18,1435.68Z"/><path class="cls-7" d="M548.17,101.19v-4.3c-4.63,1.21-9.24,2.75-12.81,2.91,5.54-8.83-5.51-14.19-6.67-20.45l9.37.19c-1.73-2.94-4-4.2-8-4.89l.14,1.24-4.78-1.77c1.76.13,3.33.3,4.64.53l-.54-4.76c3.6,2.38,6.6,3,14,2.35-3.08-4.8-1.45-12.06-14-11.94l2.08,0c3.75-7.26,4.94-21.73,9.09-21.78-4.84-6.77,1.15-16.88-11.08-15.53.85.93,2.81,1.56,6.78,1.73-4.19.08-13.7.87-13.42-.35A44.92,44.92,0,0,1,529.65,23C526.2,19,544.12,9.67,528.39,8.6c7.52-6.21,3.28-.72,12.55-.34,4.45-3.71-1.28-6.08-3-8.26H355.26c-1.06,14.61,30,24.89,13.95,40.36l-3.84-1.25c2.14,9.57-3.84-1.27-9.42,5.78,12.53,1.18,9.83,12.09,14.48,17.57-2.58-.83-2.33-2.74-4.14-4.32-2.8,1.07-10.24,1.57-7.91,4.32,18,5.92,16.29,19.16,21.74,28.84-8.19,1.27-15.29,9.77-28.54,14.29,3,1,9.28,2.71,15.43,4.28a19.83,19.83,0,0,1,2.13-1.29c.09.4.49.57.7.87-.42-2.12-.89-3.22-1.56-2.71,7.83-4,6.34.2,15.87-.17-.32,3.19,3.07,9.76-4.14,10.58-.1,1.91-1.15,3.19-2.57,5.2,1.48,1.2,2.3,2.48,1.45,3.93l-1-.64a15.68,15.68,0,0,0-3,.86c-4,6.29,10.31,14.92,16.93,20-12.08-5-13.55,1.45-22.27,1.54.7.59,1.16-5.8,1.31-13.73-.94.58-2.5,1-5.63,1.22-9.22,7,8.25,11.63,1.91,21.68a8.4,8.4,0,0,0-6.22-1.39c-2.44,3.55,4.56,6.74,9.78,7.49-8.54,1-14.64,8.6-10.82,12.31,7.07,3.22,10.3,2.71,9.63,8.69l-6.06-2.56c-4.76,6.78,7.75,5.78,4.49,10.83a1.77,1.77,0,0,1-.47.68,6,6,0,0,0,.47-.68c.6-1.66-4.54-1.62-5.63-.06,3.41,7.31,6.71,7.45,18.83,12.6l-9.46-.88c5.7,6.17,17.35,17.84,4.54,18.09,19.66-2.15,10.45,13.52,10.12,19-.59-1.87-4.73-2.17-6.84-2.34,13.09,11.29.61,23.09.9,34.63l-14.32,1.95c.61,6.09,28.94,7.61,28.35,14.23l-6.88-2.34c2.37,11.72,1.19,16.47-1.19,26l-9.61-.12c4.5,3.36,4.47,7.61,9,11-23.27,7.9,12.46,30.67-13.52,45l17.92.79c-.34,5.43,3.26,12.36-10.16,15l.26-1.21c-13.69-.47-.27,5.43-3.29,8.83,1.51,2.55,10.45,5.07,13.15,2.85-9,14.46.47,35.84-15.7,44.87,5.9,14.42,20.15,25.28,18.36,40.89l-2.12-.18c-2.39,5.27-7.24,15.83-22.17,15.83,3.49,11.22,24,18.36,17.41,31.77l-5.71-2.89c-3,3.4,4.19,8.84,5.94,10.2-.3,1.18-3.26.32-5.36.15-5.1,3.22,3,5.11,4.43,7.67l-5.07-1c-10.23,10.68,10,27.52,7.46,41.27-1.5-2.53-7.17-1.19-9.57-.18,16.65,5.66,12.65,21.12,16.49,26.88L388,607.24c10.92,11.23-17.52,9.66-6.5,20.8l9.57-6.36c-2.83,4.53.37,8.38,7.78,7.32-5.52,5.25-12.7.61-14.31,8.56-4.66.32-3.17-5.74-9.22-3.14l-12.41,11H363c9.49-7.6,11.86,5.72,20.4.68-5.57,6.3-16.67-1.38-20.4-.68l-1,.78.86-.76c-1.31.34-1.64,1.73-.35,5.33,20.74-.88,1.09,9.13,21.3,3.67,1.48,15.61-12.27,28.72-2.71,42.15-20.17,5.38-.9,26.56-26.84,25.05q-.42,11.34,15.34,18.45c2.07-1.49-1.19-3.45-2.47-5,6.59,2,7.61,11.15,7.49,14.94-5.86-5-10.88-13.09-20.78-17,2.47,6.88,12.11,16.54,15.32,20.39L355.73,755c9.77,5.87-10.84,4.76,2.32,10.67l4-1.06c-1,10.6,12.3,10.86,13.93,20.76l-5.28-.48c-2.13,3.38,10.33,8.54-1.8,11.73l-.44-6.45c-9.36.56-13.53,5.45-18.27,7.62,2.39,6.86,15.25,2.56,16.46,6-8.77,1.36-4.7.31-13.3-2.15,3.05,7.66,6.66,18,17.85,23.54a9.43,9.43,0,0,1-3.33-.09C366.23,833,382,840.19,374.46,845l-1.28-1.56c-12.92,6.2,12,16.62-10.05,17.65-4.13,3,1-6.83-9.92-2.14-7.07,9.35,18.41,6.49,12.08,14.71.71-1.12-.63-.78-2.63-1.19.41,6,2.46,14.05,4.62,20.71a19,19,0,0,1,1.93-.8l-1.44,2.24c-.16-.46-.31-1-.49-1.44-18,7.88,4.14,25-16.86,34.05,7.44-2.86,8.57,2.48,11.88,2.55a8.83,8.83,0,0,0-3.31-.07c-.61,3.41,6.39,3.94,9.31,5.27a5.32,5.32,0,0,1,1.18-.44c.84,1,.51,1.56,0,2.12a2.89,2.89,0,0,1-.79.91,6.08,6.08,0,0,1,.79-.91c.36-.74-.2-1.26-1.15-1.68-6.4,2.69,6.7,9.57,2.47,11.27,4.65.13,3.38,2.84,3.26,5.88-5.11-6.19-9.92-2.13-17.15-5-2.43,9,20.23,10.8,16.47,20.21l-8.91,5.07c13.36,1.32,7.79,10,12.76,9.9a17.62,17.62,0,0,1,4.19-1.07,11.79,11.79,0,0,1-4.19,1.07c-4.2,1.54-6.66,3.87-13.35,3.38,3.16,3.86-3.79,9.39,4.15,11.13l3.55-3.7c-5.23,11.62,13.84,19,4.75,27.86l-20-.6c-8.31,5.83,10.8,11.31-1.42,16.25,6.74-1.68,4.74-2.11,11.27,1.85,1.42-2.24-3.71-6.54-3.53-10.33l11.62,8.28-5.47-12.65c7.79,5.54,5.82,5.12,13.95,3.08,6.31,7.75-9.75,8-2.07,15.42-2.81,2.57-10-.26-14.12,2.65,7,6.59-14.59,12-4.08,16.86-2.09,1.46-.57-2.67-5.26-2.38,1.83,4.2,1,7.18,7,8.47l2.25-3.54a3.73,3.73,0,0,1,1.3-2l-1.3,2c-.58,3.12,7.59,3.75,2.83,9.65,4.58,3.49,14.48,5.53,14.64,1.81,1.27,1.52-4.16,4.78-10.17,3.54-.33,9.28,21.33,4.61,11.74,13.43.71.76.9,1.47-.18.21a.84.84,0,0,1,.18-.21,3,3,0,0,0-2.82-.94,5.25,5.25,0,0,0-1,3.92,4.12,4.12,0,0,1,.78,1.67,3.76,3.76,0,0,1-.78-1.67c-3.39-4.47-15,3.24-11.64-5.24-10.68,1-2.25,7.1-6.33,10,7.21,4.56,15.33.52,20.6,2.81-3.35,0-3.39,1.83-4.79,4l8.06-2.15c0,1.87-.09,3.71,1.85,5.94l-3.25-3.74c-1.41,4-14.27,10.36-6.43,17.41-3.3-1.85-9.86-5.58-14-.73,5.22,7.81-3.35,1.87-9.44,6.42,1.87,7.84,14.4,1.13,9.6,12.76,0,1.24,4.69,0,6.89-1.31a14.14,14.14,0,0,1,.73-1.55c.85.34.29.94-.73,1.55-3.52,7.45,1.34,11.52-2.71,18.45,1.89-2.64,4.35-4.08,7.78-.37-6.66-1.67-6,6.43-10,9.54l4.05.59c-4.27,2.53-6.08.11-7.63-1.75a2.43,2.43,0,0,1-2.47-1.61c1-.29,1.69.56,2.47,1.61,1.37,0,2.61-.74,2.22-2.14-3.33-3.62-18.71-1.7-19.95,4.41,4.05,6.28,14.74,4.69,18.71,3.43-3.92,8.73,18.8,6.94,12.95,15.29.07,1.8-15.76,9-16.87,15.08,9.4,2.36,6.4-7.84,14.5-5-11.17,5.68-7.29,10.52-2.24,15.54s11.33,10.28,5,17.35l-11.38-.59c-.48,3.08-1,6.12.54,9.39l5.75-5c2.79,2.77,1.19,10.07-7.55,8.58,9.7,5.94,4.49,7.9,2.17,14.57.31-6.85,1.55-.28-4.7-4.64-4.88,7.65-1.08,7.83,1.86,12.49-4-.41-9.88,2.8-9.72,4.71,7.58,3.87,6.74,11.93,11.13,18l-3.33.31c5.23,10.44-9.32,23.68,1.46,33.73a4.33,4.33,0,0,0,1.31-.72l1.2-1.75c.64-2.1-.5-4.45,3.17-4.49l-3.17,4.49a2.86,2.86,0,0,1-1.2,1.75l-.2.3c10.31-4.73,8.16,7.89,12.78,10.91-2.66,1-7.29,1.69-7.21,3.6,10-.69,5.48,3.85,10.23,5.08-3.17,4.07-12,.43-11.06,6.89,1,2.45,6.23,2.38,10,1.81a12.63,12.63,0,0,1,3.37-.73,18.72,18.72,0,0,1-3.37.73c-5,1.74-8.68,6.17-9.67,9.68-2.7-1,.6-3.09-.1-3.83-5.33-.07-3.27,2.11-10,2.5-.55,3.07,9.4.6,6.16,4.63l-8.09-3c-1.9,1.64,1.5,3.36,2.13,4.08-2-2.18-10-1.33-14.7-.7,6.25,8.36,21.34.36,30,.25-5.76,8.76,5,14.74,5.82,21.29l-9.35-.76c1.57,3.1,3.74,4.52,7.77,5.49l-.07-1.28,4.68,2.13c-1.75-.26-3.31-.54-4.61-.85l.28,4.9c-3.45-2.67-6.43-3.47-13.9-3.32,2.83,5.07.69,12.28,13.2,13.14l-2.07-.12c-4.16,7.12-6.47,21.66-10.59,21.3,2.48,4.24,1.18,9.21,2,12.66H515.92c-5.67-5.89-9.35-12-1.87-19.93l3.89,1c-2.57-9.42,3.89,1.07,9.15-6.23-12.57-.54-10.36-11.54-15.25-16.78,2.62.71,2.45,2.62,4.33,4.1,2.76-1.2,10.16-2.08,7.71-4.69-18.22-5-17.12-18.27-23-27.64,8.12-1.67,14.83-10.5,27.87-15.67-3-.83-9.4-2.24-15.6-3.49a17.82,17.82,0,0,1-2.08,1.39c-.1-.39-.51-.53-.74-.82.51,2.08,1,3.16,1.68,2.62-7.64,4.38-6.34.12-15.85,1,.19-3.2-3.49-9.57,3.67-10.75,0-1.92,1-3.24,2.33-5.32-1.53-1.12-2.41-2.35-1.62-3.84l1,.58a15.3,15.3,0,0,0,3-1c3.75-6.47-11-14.35-17.81-19.09,12.29,4.36,13.47-2.13,22.17-2.66-.72-.56-.9,5.85-.69,13.76.91-.63,2.45-1.17,5.57-1.5,8.89-7.4-8.76-11.19-2.87-21.53a8.28,8.28,0,0,0,6.27,1.07c2.28-3.65-4.86-6.49-10.1-7,8.49-1.39,14.26-9.3,10.28-12.82-7.2-2.87-10.41-2.21-10-8.21l6.17,2.27c4.46-7-8-5.42-4.94-10.62-.53,1.69,4.6,1.41,5.62-.2-3.7-7.15-7-7.13-19.32-11.74l9.48.46c-6-5.91-18-17.14-5.24-17.93-19.56,3-11-13.14-10.8-18.63.66,1.85,4.81,2,6.92,2.09-13.48-10.85-1.36-23.2-2-34.79l14.25-2.4c-.79-6.08-29.12-6.82-28.69-13.55l6.93,2.19c-2.65-11.78-1.59-16.62.66-26.29l9.61-.07c-4.55-3.31-4.6-7.59-9.16-11,11.58-4.17,8.41-11.85,5.55-20.4s-5.26-18,7.71-25.23l-17.92-.86c.34-5.51-3.17-12.64,10.26-15.16l-.26,1.22c13.68.61.32-5.5,3.36-8.91-1.5-2.6-10.38-5.31-13.12-3.09,4.65-7.31,4.68-16.42,5.64-24.84s2.92-16.12,11.13-20.38c-5.33-14.83-19.14-26.71-16.41-42.67l2.1.32c2.65-5.27,8.18-15.72,23.08-14.6-2.76-11.54-22.71-20.55-15-33.6l5.45,3.45c3.22-3.17-3.47-9.34-5.08-10.88.4-1.17,3.28,0,5.35.35,5.36-2.76-2.5-5.44-3.74-8.18l5,1.55c11.12-9.72-7.42-28.74-3.54-42.3,1.23,2.71,7,2,9.49,1.25-16-7.53-10.44-22.57-13.66-28.75l6.11,4.31c-9.68-12.48,18.42-7.59,8.65-19.95l-10.19,5.2c3.3-4.19.53-8.38-7-8.21,6.05-4.56,12.7.9,15.13-6.81,4.66.24,2.55,6.08,8.83,4.22l13.47-9.39h-.07C517,820.48,516,807,507,811c6.18-5.57,16.42,3.35,20.19,3.1l1.06-.66-.94.65c1.34-.18,1.81-1.51.91-5.24-20.71-1.58-.14-9.17-20.78-6.16.14-15.59,15.16-26.94,7-41.25,20.63-3,3.44-26,29.1-21.75,1-7.45-3.62-14.08-13.69-19.77-2.18,1.26.91,3.51,2.06,5.15-6.4-2.66-6.68-11.7-6.25-15.42,5.43,5.49,9.78,13.93,19.31,18.85-1.9-7.07-10.72-17.53-13.6-21.62l13.48-.37c-9.25-6.69,11.19-3.73-1.44-10.76l-4.08.69C541.2,686,528,684.65,527.09,674.8l5.23.9c2.34-3.16-9.76-9.22,2.53-11.41l0,6.4a25.32,25.32,0,0,0,13.28-3.44v-7c-4.45-1.13-10-.61-10.63-2.83,7.79-.61,5.52-.11,10.63,2.13V653.3c-2.42-6.27-6.11-12.87-13.83-17.3a9.44,9.44,0,0,1,3.31.3c2.16-7.72-13.13-15.76-5.43-20l1.21,1.6c13.19-5.38-11.23-17,10.84-16.84,3.08-2,1.07,2.41,3.9,3.45v-9c-4.45-1.63-8.73-3.22-5.51-7-.76,1.08.59.8,2.57,1.3-.15-6-1.83-14-3.73-20.66-.65.24-1.21.52-2,.72l1.5-2.16c.15.47.28,1,.45,1.44,3.51-1.36,5.53-3.12,6.67-5.13V533.34a3,3,0,0,0-.67-.16l.67.12v-3.15c-2.11-.92-4.94-1.49-6.54-2.26a6.2,6.2,0,0,1-1.18.41c-.82-1.06-.48-1.55.07-2.09a2.8,2.8,0,0,1,.82-.88,7,7,0,0,1-.82.88c-.38.71.17,1.24,1.11,1.68,6.47-2.51-6.46-9.59-2.2-11.17-4.64-.23-3.34-2.87-3.2-5.86,3.74,4.6,7.38,3.64,11.94,4v-6.74c-5.67-3.58-13.52-6.56-11.13-12.28l9-4.9c-13.34-1.44-7.7-9.93-12.67-9.87a17.82,17.82,0,0,1-4.2,1,12,12,0,0,1,4.2-1c4.21-1.48,6.7-3.77,13.39-3.25-3.14-3.83,3.86-9.28-4.06-11l-3.58,3.64c5.38-11.48-13.92-18.71-4.86-27.45l14,.31V428c-.88-.47-2-1.21-3.93-2.32-1.4,2.23,3.76,6.44,3.61,10.2l-11.68-8.08,5.57,12.46c-7.84-5.41-5.86-5-14-2.92-6.38-7.57,9.68-8,1.94-15.25,2.79-2.59,10,.14,14.11-2.81-3.93-3.59,1-7,4.35-10.05v-6.5c-.17-.09-.28-.18-.48-.27a1.77,1.77,0,0,1,.48-.24v-5.07a11.94,11.94,0,0,0-2.35-.73L543.63,400a3.64,3.64,0,0,1-1.26,2.05l1.26-2.05c.53-3.11-7.64-3.61-3-9.56C536,387,526.08,385.11,526,388.82c-1.29-1.49,4.09-4.83,10.12-3.7.19-9.25-21.41-4.25-11.91-13.22-.72-.75-.91-1.46.18-.22-.08.09-.08.12-.18.22a3,3,0,0,0,2.83.89,5.24,5.24,0,0,0,.94-3.94,4,4,0,0,1-.79-1.66,3.64,3.64,0,0,1,.79,1.66c3.44,4.42,15-3.46,11.71,5.06,10.67-1.13,2.16-7.13,6.23-10.15-7.24-4.46-15.33-.29-20.61-2.51,3.34,0,3.37-1.88,4.76-4.12l-8,2.27a7.52,7.52,0,0,0-1.94-5.95l3.32,3.72c1.34-4.1,14.06-10.58,6.15-17.61,3.32,1.84,9.92,5.52,14,.6-4-5.87-.08-4,4.67-4.67v-6.11c-3.84-1.08-8.06-.86-5-8.5,0-1.25-4.69,0-6.88,1.35a14.35,14.35,0,0,1-.73,1.57c-.85-.34-.29-.95.73-1.57,3.51-7.52-1.32-11.62,2.74-18.6-1.89,2.63-4.38,4.06-7.74.3,6.69,1.71,5.94-6.49,9.94-9.61l-4-.63c4.27-2.53,6.08-.06,7.62,1.83a2.43,2.43,0,0,1,2.47,1.64c-1,.29-1.69-.58-2.47-1.64-1.36,0-2.61.73-2.22,2.15,1,1.1,3.1,1.69,5.56,1.83V288.88a26.16,26.16,0,0,0-4.3.87c4-8.75-18.75-7.28-12.81-15.7,0-1.83,15.4-8.59,17.11-14.61v-.3c-9.2-2.53-6.54,7.76-14.52,4.7,22.65-11-14.92-19.58-1.93-33.23l11.35,1c.57-3.06,1.18-6.08-.25-9.4l-5.9,4.81c-2.72-2.86-.88-10.09,7.81-8.29-9.5-6.27-4.22-8-1.67-14.58-.54,6.8-1.55.22,4.54,4.77.21-.31.39-.59.57-.88v-8.86a21.72,21.72,0,0,1-2-2.74,9.47,9.47,0,0,0,2,0V180.08a24.07,24.07,0,0,0-2.89-6.2l2.89-.21v-1.23a15.21,15.21,0,0,1,0-8.41V140.84c-.17-.18-.3-.37-.49-.55a4.32,4.32,0,0,0-1.31.7l-1.19,1.72c-.67,2.07.44,4.39-3.23,4.41l3.23-4.41a2.86,2.86,0,0,1,1.19-1.72l.2-.3c-10.3,4.64-8.18-7.72-12.87-10.61,2.65-1,7.27-1.73,7.16-3.6-10,.81-5.52-3.68-10.28-4.79,3.11-4,12-.65,10.95-7-1.07-2.38-6.29-2.17-10-1.51a13.1,13.1,0,0,1-3.36.8,20.13,20.13,0,0,1,3.36-.8c4.93-1.82,8.54-6.28,9.45-9.76,2.72.88-.53,3.06.18,3.76,4.37-.08,3.75-1.49,7.06-2.33v-2.12c-2.45-.26-5.32-.22-3.42-2.69ZM385.67,362.48l.59-2.39,3,5.08ZM368.06,765.84c-1.37-1.55,2.82-4.53,3.57-7.55C376.87,760.67,373.41,764.42,368.06,765.84Zm-1.23,135.54,10.7-.88C380.72,904.39,368.72,903.72,366.83,901.38Zm1.73,363.6c5.33-.12,7.14-3.7,8.68-.42Zm12.36-56.93-2.17-3.94,3.51,5.29Zm105.75-110.36-.58,2.43-3-5.16Zm55.51-536.62-10.72.46C528.38,557.58,540.36,558.68,542.18,561.07Zm-8.74,133.58c1.24,1.65-3.18,4.21-4.17,7.1C524.24,698.94,528,695.57,533.44,694.65Zm-14-678c2.1,0,5.19-4.92,7.4-.78C524,19.5,523.11,18.94,519.45,16.61Zm23.47,181.88c-5.33-.05-7.26,3.44-8.68.15ZM528.86,255l2.06,4.06-3.35-5.47Z"/><path class="cls-8" d="M866.25,1423.6c-6.57,2.37-6-.69-10.74-1.85,1.72-5.4-.65-13.14,3.06-18.37l4.74,1.11c-6.67-12-14.71-19.84-12.57-28.4-2-.21,6.62-.62,8.08.75-9-5.26,17.11-15.33-1-15.18l-1.2,2.4c1.91-12.42-12.21-24.55-15.56-37,10.46-4,1.73,7.19,14.21,3.39,3.48-9.13-6.27-17.2-3.37-27.1,1.42,1.45,2.67,1,3.42,1.68,6.22-10.08-10.61,1.93-9.61-6.25,5.31,0,6.62-.49,9.17-3.36l-8.73-1.72c1.32-.49,8-.92,10.68.06-11.5-2.72-4.52-14-15.22-16.18,2.65-.89,12.7.51,16.68-.85,2.92-4.45-1.46-7.11-5.63-9.77-5.41.23-5.32-1.42-4.67-3.57-1.39-1.57-1.87-3.31-.06-5.51,1.52,1.68.63,3.75.06,5.51a23.69,23.69,0,0,0,4.67,3.57,0,0,0,0,1,0,0c7.28-3.4,5.91-10.63,7.23-9.14,3.23-7.8-6-.93-12.75-6.53l-4.57,6.37-2.78-10.82,5.35,4.13c4-5.14-5.41-10-5.32-15.8l-6.08,2.85-3.93-6.58c12.62-1,2.69-8.58,17.37-5.26,6-12.13-9.75-19.73-11.35-30.67a1.28,1.28,0,0,1-.11-.62c0,.21.08.42.11.62.51,1.15,2.74.61,4.51,1,2.82-6.53-3.72-10.43-10.29-14.38,4,.82,5.26,2.38,8.63,2.41.16-7.71-7.23-4.7-11-13.27,5.28,2.4,8,1.67,9.37-.64-4.65.33-7.94-1.66-9.24-3.24,25.13,6.6,10.35-9.41,30.24-5.19-5.34-.46-16.17-13.76-26.3-10.12l1.85,2.33c-6.93.18-4.16-2.93-4.64-5.31-1.53-1.7-2.24-3.25-.42-1a1.94,1.94,0,0,1,.42,1c1.15,1.25,2.69,2.56,4.12,2.62-8.19-12.16-.3-24.63-6.36-38.18,2.6,1.23,7,6.73,9.2,3.32,3.92-13.25-9-21.26-15.12-34.77,16.08-.27,2,14.53,17.32,15.36a200.63,200.63,0,0,0-16.67-44.64c23.61-5-9.36-15.46,9.16-24.85-7.9.78-10.67-4.1-10.8-9.38h-.16l.18-.79a17.91,17.91,0,0,1,1.52-7.16l-1.52,7.16a7.18,7.18,0,0,0,0,.8c6.4,1.93,6.65-3.64,11.26-2-7.13-4.75-9.94-18.13,5.4-17.37-14.83-1.44.84-9.91-9.61-13.88a16.4,16.4,0,0,1-6.65,4l4.2-4.82a10.45,10.45,0,0,1,2.45.87c5.64-5.75-2.94-12.55,1.64-19.8-8.58,2.22-5.17-5.65-7.43-9.16a10.25,10.25,0,0,1-.83-.92,3.16,3.16,0,0,1,.83.92,2.69,2.69,0,0,0,2.41,1c8.13-2.08-7-8.52-2.13-12.58,3.4-1.82,8.62.58,9.42-2.45-6.63-.16-14.26-11.35-6.09-15.37-.06,1.9,3.3,2,5.88,3.17-11.22-19.62,2.9-40.26-10.36-60.3l11.17,3.63c14.53-12.3-18.35-8.34-16.67-18.18,5.61-26.91,22-54.8,14.76-81.17-3.27-1.94-4,1.1-8.7,1.4,1.39-2.28,10.77-2.89,4.86-6l-6,.66c16.4-11.94-10.94-34.74,14.72-43.55-9.6-11.54,7-19.6-7.48-33.61,5.38-4.4,10.39,5.15,11.91-.81l-9.42-13c-15.81-12.56,21-32.58,8.15-48l.89.66c4.18.37,9.25-2.87,7.81-5.41-3-.88-4.5.83-8.06,2.35-7.07-14-7.39-17-8.81-28.09,6.24,4.76,5.42-4.44,14.1-4.92-5.67-2.91-9,1.68-13.75-4.78-.81-9.21,6.68-17.71,9.7-25.36-7.71-3.08-5.61-7.15-15.15-7.33-.58-10.4-4.4-16.17-4.35-28.94l3.28-.34c-11.92-3.39,6-11.08-.87-13.44,4.21.34,5.95,1.69,9.26,1.34l-3.85-5.78c3.6,2.72,14.89,4.24,16.15-.54-8.37-4.93-5.7,1.39-12.52-1l11-1.54c-1.21-3.75-13.7-4.74-17-.15.1-12.77-5.26-25.35-3.48-36.74l7.21,1.17c-2.69-6.29-2.68-14.8,3.62-18.58-2.11-.16-6-1.69-8.34-.67-9.11-6.91,8.9-1.76,3-7.48l-.57-.5c-.36-.32-.72-.64-1.22-1,.43.33.83.67,1.22,1,.2.17.41.34.57.5,1.76,1.6,3.37,3.14,6.56,3.38L825,433.7c5.36-.19,17.33-9.59,12.57-16.05-3-.23-7.09,1.66-7.7,3.32l1.16,1.64c-1.09-.42-1.37-1-1.16-1.64l-2.7-4.14,12.48-3.28-11-5.94-2.4,0,.29-1.2,2.11,1.16,10.45-.18c-2.11-4.41-15.53-6.08-14.63-9.66,6.58-13.46,10.16-10.76,20-20.36-20-.92.63-15.16-13.72-17.47,15-12.84,5.68-31.2,9.86-47.92l1.78,1.35c9.22-7.21-15.23-8-11.25-15.7l3,1.9c10.58-10,.71-27.19-7.81-36.48,3,1.89,9.41.86,8.69-2.16-3.94-2.51-14,2.62-10.26-2.72,2,1.29,6.32.21,6.42-1l-10-5.1c6.72-13.69,13.74-29.79,7.85-43.85,3.5-2.66,7.13-.78,10.56-.19-2.2-11.18-10.64-22.22-12.56-32.31l11.52-1.16c0-4.95-17.7-2.87-7.48-9.43,1.54-1.45.79,4.26,5.92,6,8.66-10-11.3-5.75-10.11-15.26l13,2.33c7.63-7.36-6.95-8.22-14.65-10.78-15.45-10,25-7.56,13.4-21.33-6.42-2.13-9.46.84-15.88-1.29,3.26-9.82-6-10.87-2.73-20.72,19.38-5.47.05,5,18.16-.93l-4.32,7.51c10.17-6.55,2.66,5.81,14.17,4.67,3.27-4.86-6.55-12.07-10.45-18.31,8.72-.11,1.1,7.29,12.84,4.25l-3.6-3.19c2.57.86,5.87,1,5.65,2.86,8.18-1.25.45-3.8.2-6.87a87.12,87.12,0,0,0-17.17,1.18,11.67,11.67,0,0,0,3.09-.86C826,88.25,835.4,77.49,825.38,72.2c2.6.84,3.34.09,5.4-.22.45-3.82-11.09-7.6-14.46-12.68,6.37-2.86,19.2,1.38,15.56-6.77-7.21-1.37-19.71,2.43-19.51-4.44,0,0,6,5.92,11,2.65-5.13-6.67,2.29-2.21,10.41-8.45-10.24-3.39,3.53-6.77-13.09-7.3,11-2.32,6.91-1.69,14.79-6-9,2-9-7.91-19.81-7.49,12.3-1.9,15.18,7,27.94,1.27C835.38,19,832.26,12,819,11.63c2.92-2.87,7.56-4.28,9-8.54a.34.34,0,0,1,.13-.33c0,.12-.09.21-.13.33.08.63,2.11,1.31,3.2,1.67A13.2,13.2,0,0,1,827.34-1H653.73c.45,6.9-.11,13.76-3.29,20.5a5.58,5.58,0,0,0,3.19-1.41C631,38.46,680.74,50.28,661.08,68.93l-3.82-1.3c2,9.65-3.83-1.32-9.48,5.7,12.51,1.33,9.7,12.27,14.3,17.84-2.58-.87-2.3-2.78-4.1-4.39-2.81,1-10.25,1.45-8,4.24,17.91,6.17,16.08,19.46,21.43,29.26-8.2,1.18-15.39,9.64-28.69,14,3,1,9.25,2.84,15.38,4.49a17.48,17.48,0,0,1,2.15-1.27c.08.4.48.57.69.88-.39-2.14-.86-3.25-1.53-2.74,7.87-3.94,6.33.26,15.87,0-.35,3.21,3,9.85-4.25,10.59-.12,1.93-1.18,3.2-2.62,5.2,1.47,1.22,2.28,2.52,1.41,4l-1-.65a15.4,15.4,0,0,0-3,.82c-4.1,6.28,10.17,15.12,16.73,20.29-12-5.12-13.56,1.31-22.27,1.31.69.6,1.21-5.82,1.44-13.79-.94.57-2.51,1-5.64,1.16-9.29,6.9,8.13,11.79,1.7,21.82a8.35,8.35,0,0,0-6.21-1.46c-2.47,3.54,4.5,6.83,9.71,7.64-8.55.88-14.73,8.49-10.94,12.26,7,3.31,10.28,2.83,9.55,8.83l-6-2.64c-4.82,6.78,7.69,5.9,4.39,10.94.61-1.66-4.53-1.67-5.62-.11,3.34,7.38,6.64,7.55,18.71,12.84l-9.45-1c5.65,6.26,17.2,18.1,4.39,18.23,19.68-2,10.34,13.69,10,19.15-.58-1.88-4.72-2.23-6.83-2.41,13,11.46.41,23.2.63,34.8l-14.33,1.84c.56,6.14,28.88,7.89,28.24,14.54l-6.86-2.4c2.29,11.79,1.08,16.55-1.38,26.08l-9.6-.18c4.47,3.41,4.42,7.67,8.9,11.12-23.34,7.77,12.27,30.9-13.78,45.15l17.91.91c-.37,5.45,3.2,12.44-10.23,15l.26-1.21c-13.69-.54-.3,5.46-3.34,8.86,1.5,2.57,10.43,5.15,13.13,2.94-9.08,14.47.32,36-15.88,45,5.85,14.52,20.06,25.48,18.21,41.16l-2.11-.19C676.82,517.38,672,528,657,527.93c3.47,11.29,24,18.5,17.36,32L668.69,557c-3,3.41,4.18,8.89,5.93,10.25-.3,1.19-3.26.32-5.36.16-5.1,3.22,3,5.13,4.42,7.7L668.61,574c-10.26,10.73,10,27.65,7.46,41.45-1.5-2.54-7.17-1.19-9.57-.17,16.66,5.67,12.67,21.2,16.52,27l-6.53-3.57C687.42,650,659,648.46,670,659.66l9.57-6.42c-2.83,4.56.37,8.44,7.78,7.37-5.51,5.29-12.7.63-14.31,8.64-4.65.32-3.18-5.78-9.22-3.16l-12.39,11h.07c9.48-7.65,11.87,5.76,20.4.68-5.55,6.34-16.67-1.39-20.4-.68l-1,.79.87-.76c-1.32.34-1.64,1.73-.35,5.36,20.74-.9,1.1,9.2,21.3,3.69,1.49,15.75-12.27,28.94-2.77,42.54-20.19,5.34-1,26.83-27,25.13q-.48,11.43,15.22,18.75c2.08-1.49-1.17-3.49-2.44-5.06,6.58,2.11,7.53,11.34,7.36,15.18-5.8-5.15-10.76-13.36-20.63-17.43,2.41,7,12,16.8,15.12,20.75l-13.42,1.48c9.7,6.06-10.88,4.64,2.19,10.8l4-1c-1.2,10.7,12.14,11.18,13.58,21.26l-5.27-.6c-2.19,3.37,10.19,8.89-2,11.84l-.32-6.54c-9.36.37-13.61,5.21-18.41,7.29,2.24,7,15.2,3,16.33,6.46-8.8,1.16-4.71.19-13.25-2.51,2.9,7.81,6.23,18.32,17.26,24.31a9.12,9.12,0,0,1-3.32-.19c-1.9,8,13.65,15.83,5.94,20.41l-1.23-1.63c-13.13,5.77,11.4,17.35-10.69,17.46-4.24,2.81,1.22-6.85-9.83-2.58-7.42,9.11,18.17,7.36,11.51,15.38.75-1.11-.6-.82-2.58-1.33.17,6.1,1.89,14.29,3.75,21.11.66-.24,1.22-.52,2-.72l-1.54,2.19c-.14-.47-.26-1-.43-1.47-18.35,7,3,25.39-18.38,33.4,7.57-2.5,8.45,2.93,11.75,3.16a8.69,8.69,0,0,0-3.3-.23c-.76,3.38,6.22,4.27,9.07,5.75a5.64,5.64,0,0,1,1.2-.39c.79,1.1.44,1.59-.12,2.13a2.83,2.83,0,0,1-.83.87,5.78,5.78,0,0,1,.83-.87c.39-.72-.15-1.27-1.08-1.74-6.51,2.38,6.28,9.93,2,11.42,4.64.36,3.25,3,3,6-4.84-6.45-9.82-2.63-16.92-5.86-2.81,9,19.75,11.81,15.61,21l-9.1,4.66c13.29,1.92,7.39,10.33,12.36,10.44a18,18,0,0,1,4.23-.88,11.82,11.82,0,0,1-4.23.88c-4.25,1.36-6.81,3.57-13.47,2.81,3,4-4.12,9.22,3.75,11.26l3.68-3.54c-5.66,11.4,13.19,19.41,3.88,27.86l-20-1.21c-8.46,5.6,10.51,11.61-1.81,16.21,6.78-1.51,4.79-2,11.23,2.13,1.47-2.19-3.58-6.61-3.3-10.39L653,1071l-5.16-12.74c7.64,5.74,5.68,5.24,13.86,3.46,6.11,7.85-9.93,7.71-2.42,15.24-2.86,2.5-10-.49-14.17,2.32,6.92,6.69-14.83,11.74-4.36,16.74-2.11,1.41-.54-2.67-5.23-2.48,1.78,4.24.92,7.21,6.89,8.59l2.31-3.5a3.64,3.64,0,0,1,1.33-2l-1.33,2c-.63,3.11,7.51,3.86,2.69,9.67,4.56,3.55,14.45,5.7,14.63,2,1.26,1.53-4.18,4.71-10.18,3.4-.39,9.26,21.31,4.83,11.63,13.53.7.76.88,1.47-.19.21a1.2,1.2,0,0,1,.19-.21,2.91,2.91,0,0,0-2.81-1,5.17,5.17,0,0,0-1,3.89,4.07,4.07,0,0,1,.75,1.68,3.69,3.69,0,0,1-.75-1.68c-3.35-4.49-15,3.1-11.6-5.34-10.69.86-2.3,7.08-6.44,10,7.15,4.63,15.32.65,20.56,3-3.35-.07-3.42,1.81-4.81,4l8.06-2.1a7.66,7.66,0,0,0,1.85,6L664,1141.9c-1.42,4-14.27,10.29-6.51,17.47-3.28-1.9-9.81-5.71-14-.86,5.15,7.92-3.37,1.86-9.5,6.39,1.8,7.91,14.31,1.26,9.51,13,0,1.25,4.69,0,6.88-1.26a15.36,15.36,0,0,1,.74-1.56c.85.36.29,1-.74,1.56-3.56,7.51,1.28,11.69-2.88,18.66,1.93-2.64,4.41-4.07,7.78-.25-6.63-1.8-6.1,6.44-10.13,9.53l4.05.67c-4.29,2.5-6.09,0-7.61-1.91a2.38,2.38,0,0,1-2.42-1.67c1-.29,1.67.6,2.42,1.67,1.37,0,2.63-.7,2.27-2.14-2-2.26-8.45-2.5-13.53-1v9.4a25.45,25.45,0,0,0,12.18-.49c-4,8.78,18.69,7.49,12.68,15.89,0,1.86-16,8.72-17.28,14.84,9.35,2.71,6.59-7.76,14.61-4.62-22.53,11,14.94,19.75,1.79,33.42l-11.35-1c-.57,3.07-1.17,6.11.26,9.46l5.9-4.83c2.72,2.89.88,10.16-7.81,8.34,9.51,6.32,4.23,8.08,1.68,14.68.54-6.85,1.56-.22-4.54-4.81-5.12,7.49-1.37,7.81,1.45,12.57-3.48-.47-8.39,1.72-9.57,3.57v1c7.17,4.18,6.21,12.07,10.39,18.17l-3.34.23c4.92,10.48-9.69,23.54,1,33.64a4.55,4.55,0,0,0,1.31-.71l1.21-1.73c.66-2.1-.46-4.43,3.21-4.45l-3.21,4.45a2.94,2.94,0,0,1-1.21,1.73l-.2.3c10.34-4.67,8.08,7.81,12.79,10.73-2.65,1-7.27,1.74-7.17,3.62,10-.8,5.52,3.74,10.27,4.86-3.12,4.06-12,.63-11,7,1.07,2.41,6.28,2.21,10,1.56a12.7,12.7,0,0,1,3.36-.8,20.13,20.13,0,0,1-3.36.8c-4.93,1.83-8.56,6.31-9.47,9.82-2.72-.9.53-3.08-.17-3.79-5.33.08-3.23,2.18-9.91,2.77-.48,3.09,9.38.31,6.26,4.42l-8.16-2.73c-1.88,1.71,1.58,3.32,2.25,4-.87-.86-2.74-1.17-4.95-1.2v4.47c6.77-.46,14.74-4,20.26-4.24-5.45,8.88,5.54,14.35,6.62,20.7l-9.37-.25c1.7,3,3.92,4.27,8,5l-.13-1.25,4.76,1.82a46.45,46.45,0,0,1-4.63-.57l.49,4.82c-3.58-2.43-6.57-3-14-2.47,2.18,3.52,2,8.3,6.38,10.69H858.22C857.06,1434.3,858.44,1429.31,866.25,1423.6Zm-18.93-104.82,2.95,4.74-8-.87ZM835.43,95.27a47.42,47.42,0,0,0-8.55,2.2C826.17,89.42,828.66,96.06,835.43,95.27ZM674.78,392.87l.6-2.4,3,5.12ZM656,798.69c-1.33-1.59,2.89-4.54,3.68-7.59C664.89,793.58,661.39,797.34,656,798.69Zm-5.32,137,10.72-.35C664.42,939.47,652.47,938.2,650.69,935.74Zm-7.52,365.2c5.32,0,7.24-3.46,8.68-.14Zm14.2-56.86-2.08-4.09,3.39,5.51Z"/><path class="cls-9" d="M1019.51,131.47a86.18,86.18,0,0,0-17.18,1,11.64,11.64,0,0,0,3.1-.82c-12.51-6.33-3-17-13-22.45,2.58.88,3.34.13,5.4-.15.49-3.83-11-7.77-14.32-12.91,6.4-2.79,19.18,1.63,15.63-6.6C992,88,979.42,91.69,979.7,84.8c0,0,5.88,6,11,2.8-5.06-6.77,2.31-2.19,10.51-8.35-10.21-3.53,3.6-6.74-13-7.49,11-2.19,6.93-1.6,14.87-5.86-9,1.89-8.95-8.06-19.72-7.78,12.32-1.74,15.09,7.2,27.91,1.64C1003,56,1000,48.88,986.72,48.29c3-2.84,7.61-4.19,9.09-8.45.07.64,2.09,1.34,3.18,1.73-8.93-8.07,0-20-16.07-24.53,19.19,1.64,2.35-17.13,20.24-11-.32-1.78-2.78-4.1-5.53-6.07H778.85c1.66,1.79,5.07,3.3,12.38,4.29l2.61-2.52L790,10.83l.21-.39a17,17,0,0,1,2.84-4.95l-2.84,4.95c-1.32,3.87,1.43,4.13-8.65,10.33-2.71-1.82-3.05-4.86-5.78-6.67-8.52,5.6,8.51,8.43,9.53,13.38-7.44.65-3.13-4.89-12-2.35-.82,3.68,4.89,6.07,7.31,9.12h-4.14c-8.46,9.85,20.55,1.12,7.33,9.15,2.41-.48,5.12,0,7.47-.63a7.59,7.59,0,0,1,2.33-1.25,5.47,5.47,0,0,1-2.33,1.25c-4.1,2.9-10.9,9.3-16.62,4.34.31,3.05,4.24,6.13,9,7.18,5.81-3.25,2.67-3.56,10.36-5.4l5.46,11.93c.14,1.39-4.08-.6-4.3-2.33-20.41,16.74,21,27.65-3.83,46.57,6.53-2.46,6,.64,10.77,1.81-1.64,5.51.79,13.41-3,18.7l-4.72-1.18c6.51,12.17,14.4,20.38,12.09,29,2,.26-6.63.44-8.07-1,8.88,5.56-17.42,14.9.64,15.29l1.25-2.37c-2.1,12.39,11.37,25.08,14.4,37.64-10.58,3.61-1.51-7.23-14.09-3.87-3.77,9,5.75,17.37,2.65,27.11-1.39-1.49-2.65-1.07-3.39-1.77-6.45,9.84,10.7-1.61,9.45,6.48-5.31-.16-6.63.3-9.28,3.09l8.68,1.93c-1.34.46-8,.72-10.67-.34,11.4,3,4.15,14,14.83,16.36-2.67.84-12.69-.72-16.69.55-3,4.37,1.36,7.11,5.5,9.79,5.42-.16,5.29,1.47,4.64,3.59,1.38,1.57,1.85,3.3,0,5.46-1.51-1.68-.61-3.73,0-5.46a24.47,24.47,0,0,0-4.64-3.59s0,0,0,0c-7.34,3.29-6,10.51-7.29,9-3.24,7.75,6,1,12.75,6.57l4.57-6.28,2.8,10.71-5.37-4.1c-3.92,5.08,5.33,9.86,5.26,15.64L820.5,291l3.91,6.49c-12.64,1-2.67,8.51-17.36,5.29-6,12.12,9.89,19.54,11.68,30.37a1.59,1.59,0,0,1,.12.62c0-.21-.09-.41-.12-.62-.54-1.13-2.76-.57-4.53-.88-2.68,6.54,3.81,10.34,10.43,14.17-4-.75-5.27-2.29-8.64-2.27-.11,7.69,7.26,4.58,11.1,13.06-5.3-2.31-8-1.54-9.36.79,4.65-.4,8,1.53,9.28,3.09-25.22-6.19-10.21,9.57-30.16,5.68,5.33.37,16.4,13.49,26.47,9.7l-1.9-2.31c6.93-.29,4.22,2.87,4.74,5.24,1.56,1.69,2.29,3.22.43,1a1.84,1.84,0,0,1-.43-1c-1.18-1.22-2.74-2.52-4.17-2.55,8.48,12.05.64,24.68,6.8,38.28-2.61-1.2-7.1-6.7-9.22-3.24-3.83,13.38,9.24,21.35,15.39,35.09-16.05.3-2.14-14.75-17.43-15.5A228,228,0,0,0,834,476.8c-23.66,4.8,9.21,15.87-9.4,25.1,7.91-.64,10.56,4.39,10.55,9.77l.17,0-.2.79a18.54,18.54,0,0,1-1.71,7.25l1.71-7.25a7.31,7.31,0,0,0,0-.81c-6.34-2.11-6.74,3.54-11.31,1.77,7,5,9.43,18.71-5.88,17.43,14.79,1.94-1.11,10,9.21,14.4A16.24,16.24,0,0,1,834,541.5l-4.33,4.75a10.72,10.72,0,0,1-2.43-1c-5.79,5.62,2.59,12.87-2.34,20,8.66-1.88,4.91,6,7,9.64.32.35.6.71.8,1a3,3,0,0,1-.8-1,2.68,2.68,0,0,0-2.36-1.17c-8.21,1.71,6.6,9,1.57,12.89-3.48,1.68-8.59-1-9.52,2,6.63.5,13.71,12.34,5.35,15.94.16-1.93-3.2-2.2-5.71-3.56,10.26,20.62-5.38,40.54,6.63,61.9l-10.9-4.58c-15.26,11.25,17.71,9.94,15.25,19.83-3.92,13.45-10.52,26.84-15.52,40.24s-8.67,26.78-6.44,40.39c3,2.33,4.1-.64,8.8-.41-1.62,2.14-11,1.67-5.45,5.49l6.07,0C802.12,774,826.92,800,800.51,805.68c8.35,12.61-9,18.63,3.94,34.19-5.8,3.73-9.8-6.31-11.92-.59l8,13.89c14.48,14.13-24,29.8-12.61,46.36l-.83-.75c-4.13-.78-9.46,1.9-8.24,4.55,2.88,1.16,4.55-.37,8.23-1.5,5.84,14.41,5.94,17.4,6.5,28.31-5.86-5.19-5.73,3.86-14.4,3.61,5.44,3.32,9.08-.88,13.36,5.82.17,9-7.82,16.71-11.26,24,7.54,3.52,5.23,7.35,14.74,8.1,0,10.11,3.59,15.92,3,28.28l-3.29.18c11.75,3.77-6.39,10.54.42,13.1-4.19-.47-5.9-1.86-9.21-1.63l3.69,5.78c-3.53-2.77-14.77-4.67-16.16,0,8.22,5.12,5.73-1.17,12.48,1.39L776,1020c1.11,3.73,13.57,5,17,.68-.46,12.46,4.7,24.85,2.78,35.93l-7.2-1.24c2.64,6.2,2.55,14.52-3.78,18.21,2.11.16,6,1.68,8.34.69,9.12,6.8-8.93,1.7-3,7.34l.53.46c.37.32.74.64,1.25,1-.45-.33-.86-.67-1.25-1-.19-.15-.38-.32-.53-.46-1.77-1.58-3.38-3.1-6.58-3.34l8.93,15c-5.38.19-17.27,9.55-12.44,15.9,3,.2,7.07-1.71,7.66-3.34l-1.17-1.61c1.09.4,1.38,1,1.17,1.61l2.74,4L778,1113.22l11.05,5.71,2.4-.07-.27,1.18-2.13-1.11-10.45.33c2.17,4.34,15.62,5.75,14.78,9.3-6.35,13.38-10,10.78-19.65,20.53,20,.41-.29,15.05,14.12,16.93-14.59,13.18-4.8,31.11-8.39,47.86l-1.82-1.27c-8.95,7.56,15.51,7.3,11.82,15.13l-3-1.76c-10.23,10.36.37,27.09,9.26,35.89-3.08-1.73-9.44-.39-8.59,2.57,4,2.31,13.85-3.28,10.35,2.22-2-1.19-6.31.09-6.37,1.3l10.21,4.59c-6.13,13.94-12.43,30.36-5.91,44.1-3.38,2.84-7.09,1.14-10.54.74,2.7,11,11.62,21.65,14,31.63l-11.46,1.75c.27,4.94,17.8,2,7.89,9-1.47,1.53-1-4.21-6.18-5.66-8.21,10.48,11.54,5.16,10.78,14.73l-13.14-1.67c-7.3,7.75,7.31,7.87,15.11,10,15.87,9.25-24.68,8.81-12.44,22,6.51,1.8,9.41-1.32,15.92.48-2.82,10,6.43,10.57,3.64,20.58-19.13,6.43-.28-5-18.11,1.83l4-7.72c-9.87,7.06-2.91-5.67-14.35-4-3.06,5,7.06,11.73,11.23,17.77-8.7.54-1.41-7.23-13-3.6l3.73,3c-2.6-.72-5.91-.67-5.77-2.57-8.11,1.66-.28,3.81.1,6.87a86.94,86.94,0,0,0,17.11-2,11.28,11.28,0,0,0-3.06,1c5.4,2.32,6.95,5.65,7.7,9.09h209.33c-5.49-9-10.48-15.76-8.53-22.85-2-.26,6.64-.43,8.07,1-8.86-5.6,17.47-14.94-.58-15.36l-1.26,2.39c2.15-12.44-11.4-25.2-14.42-37.84,10.57-3.59,1.52,7.27,14.1,3.93,3.72-9-5.68-17.47-2.48-27.25,1.38,1.5,2.64,1.08,3.37,1.8,6.51-9.86-10.66,1.56-9.43-6.57,5.32.2,6.63-.26,9.27-3l-8.69-2c1.33-.45,8-.67,10.67.4-11.46-3.08-4.13-14.11-14.78-16.55,2.68-.81,12.68.83,16.7-.42,3-4.37-1.31-7.15-5.43-9.88-5.42.11-5.28-1.53-4.61-3.65-1.37-1.59-1.83-3.34,0-5.49,1.49,1.7.58,3.75,0,5.49a24.32,24.32,0,0,0,4.61,3.65s0,0,0,0c7.37-3.24,6-10.5,7.35-9,3.32-7.75-6-1-12.64-6.73l-4.67,6.27-2.61-10.82,5.29,4.19c4.06-5.07-5.24-10-5.11-15.82l-6.1,2.77-3.88-6.6c12.65-.83,2.71-8.54,17.39-5.07,6.09-12.09-9.53-19.85-11.11-30.82.51,1.15,2.74.63,4.51,1,2.81-6.53-3.69-10.51-10.19-14.54,3.95.85,5.22,2.43,8.59,2.5.27-7.77-7.16-4.8-10.82-13.49,5.25,2.48,8,1.77,9.38-.54-4.67.28-7.93-1.76-9.22-3.37,25.08,6.94,10.41-9.39,30.27-4.88-5.36-.52-16-14.08-26.21-10.57l1.82,2.39c-6.94.08-4.12-3-4.56-5.45-1.51-1.75-2.19-3.33-.41-1a1.84,1.84,0,0,1,.41,1c1.13,1.28,2.65,2.64,4.07,2.71-8-12.46.11-24.94-5.63-38.84,2.56,1.31,6.89,7,9.11,3.6,4.24-13.3-8.5-21.79-14.12-35.79,16.06.31,1.56,14.86,16.82,16.2a215.65,215.65,0,0,0-15.05-45.89c23.79-4-8.71-16.07,10.19-24.63-7.92.39-10.48-4.67-10.38-10l-.17,0,.22-.78a17.89,17.89,0,0,1,1.83-7.12l-1.83,7.12a5.51,5.51,0,0,0,0,.81c6.3,2.25,6.8-3.33,11.33-1.46-6.92-5.14-9.1-18.69,6.18-17.15-14.75-2.2,1.28-9.88-9-14.37a16.36,16.36,0,0,1-6.81,3.61l4.4-4.6a11.18,11.18,0,0,1,2.41,1c5.89-5.47-2.39-12.67,2.48-19.67-8.65,1.8-4.94-5.87-7-9.46a2.7,2.7,0,0,0,2.37,1.15c8.2-1.7-6.65-8.78-1.66-12.58,3.47-1.66,8.6,1,9.5-2-6.62-.46-13.84-11.83-5.53-15.47-.13,1.88,3.23,2.08,5.76,3.37-10.52-19.8,4.11-39.81-8.81-60l11.1,3.85c14.72-11.94-18.19-8.66-16.35-18.37,6.06-26.49,22.51-54.21,15.42-80.59-3.26-1.95-4,1.08-8.71,1.37,1.4-2.27,10.78-2.85,4.88-6l-6,.65c16.44-11.9-10.89-34.7,14.74-43.54-9.63-11.55,7-19.65-7.5-33.69,5.37-4.42,10.39,5.15,11.9-.83l-9.42-13c-15.81-12.61,20.9-32.75,8.12-48.23l.89.67c4.18.37,9.25-2.88,7.82-5.42-3-.89-4.5.82-8.07,2.34-7.05-14-7.36-17.12-8.77-28.23,6.24,4.8,5.43-4.44,14.11-4.91-5.67-2.93-9,1.67-13.74-4.83-.8-9.25,6.7-17.77,9.74-25.45-7.71-3.11-5.59-7.2-15.13-7.41-.55-10.45-4.35-16.26-4.25-29.09l3.29-.33c-11.92-3.45,6-11.11-.83-13.5,4.21.35,6,1.72,9.25,1.38l-3.83-5.83c3.59,2.76,14.88,4.33,16.15-.46-8.35-5-5.69,1.37-12.51-1.06l11-1.5c-1.2-3.77-13.68-4.83-17.05-.23.14-12.83-5.14-25.5-3.31-36.93l7.21,1.22c-2.66-6.33-2.6-14.89,3.72-18.64-2.12-.17-6-1.73-8.34-.72-9.07-7,8.91-1.72,3-7.5,1.75,1.62,3.35,3.17,6.54,3.43l-8.83-15.41c5.35-.16,17.37-9.52,12.65-16-3-.26-7.1,1.61-7.71,3.27L994.9,461c-1.09-.43-1.36-1-1.14-1.66l-2.68-4.17,12.5-3.21-11-6-2.4,0,.3-1.2,2.1,1.18,10.46-.1c-2.09-4.45-15.49-6.22-14.57-9.81,6.67-13.47,10.24-10.73,20.15-20.29-20-1.08.74-15.22-13.6-17.65,15-12.77,5.93-31.28,10.25-48l1.76,1.38c9.28-7.15-15.16-8.16-11.12-15.87l3,1.93c10.67-9.9.93-27.29-7.51-36.7,3,1.93,9.41,1,8.71-2.08-3.91-2.56-14,2.49-10.22-2.84,1.93,1.32,6.31.28,6.43-.93l-9.95-5.23c6.84-13.67,14-29.76,8.26-43.94,3.53-2.62,7.13-.7,10.56-.07-2.1-11.25-10.42-22.43-12.23-32.58l11.53-1c0-5-17.67-3.09-7.38-9.55,1.55-1.44.74,4.27,5.86,6,8.76-10-11.24-5.9-10-15.43l13,2.5c7.71-7.31-6.86-8.34-14.54-11-15.34-10.27,25.13-7.28,13.63-21.25-6.4-2.21-9.47.73-15.87-1.49,3.36-9.82-5.84-11-2.5-20.83,19.44-5.25,0,5,18.17-.7l-4.41,7.48c10.25-6.45,2.6,5.87,14.12,4.86,3.33-4.83-6.41-12.19-10.24-18.5,8.71,0,1,7.33,12.79,4.42l-3.56-3.24c2.56.89,5.86,1.05,5.62,2.94C1027.43,137.2,1019.73,134.55,1019.51,131.47ZM808.3,211l-2.82-4.82,8,1.14ZM794,1429.88a47.62,47.62,0,0,0,8.44-2.63C803.5,1435.26,800.73,1428.76,794,1429.88Zm203.62-70.57,2.79,4.86-8-1.18Zm-4-1224.77c-.62-8.08,1.8-1.4,8.57-2.09A47.06,47.06,0,0,0,993.65,134.54Z"/><text class="cls-10" transform="translate(51.94 69.2)">Portfolio</text><line class="cls-11" x1="460" y1="620" x2="905" y2="620"/><line class="cls-11" x1="442.5" y1="631.5" x2="916.5" y2="631.5"/><line class="cls-11" x1="454.5" y1="643.5" x2="1022.5" y2="643.5"/><line class="cls-11" x1="313.5" y1="655.5" x2="928.5" y2="655.5"/><line class="cls-11" x1="460" y1="932" x2="918.5" y2="932"/><line class="cls-11" x1="454.5" y1="943.5" x2="905" y2="943.5"/><line class="cls-11" x1="0.5" y1="955.5" x2="928.5" y2="955.5"/><line class="cls-11" x1="422.5" y1="967.5" x2="1076.5" y2="967.5"/><line class="cls-11" x1="716" y1="805" x2="883.5" y2="805"/><line class="cls-11" x1="711.5" y1="815" x2="894.5" y2="815"/><line class="cls-11" x1="617.5" y1="825" x2="883.5" y2="825"/><line class="cls-11" x1="693.5" y1="835" x2="905.5" y2="835"/><line class="cls-11" x1="595.75" y1="754.25" x2="595.75" y2="938.5"/><line class="cls-11" x1="585.75" y1="732.5" x2="585.75" y2="1011.5"/><line class="cls-11" x1="575.75" y1="743.5" x2="575.75" y2="921.75"/><line class="cls-11" x1="565.75" y1="754.25" x2="565.75" y2="921.75"/><line class="cls-11" x1="699.75" y1="-0.5" x2="699.75" y2="1011.07"/><line class="cls-11" x1="688.41" y1="572.25" x2="688.41" y2="1094.5"/><line class="cls-11" x1="676.58" y1="580.5" x2="676.58" y2="1011.07"/><line class="cls-11" x1="664.75" y1="343.5" x2="664.75" y2="1439.5"/></svg>