<svg xmlns="http://www.w3.org/2000/svg" viewBox="0 0 619.46 353.61"><defs><style>.cls-1{fill:#ff94ac;opacity:0.9;}.cls-2{font-size:70px;font-family:MicrosoftSansSerif, Microsoft Sans Serif;letter-spacing:0.2em;}</style></defs><title>top_prof</title><g id="レイヤー_2" data-name="レイヤー 2"><g id="レイヤー_1-2" data-name="レイヤー 1"><circle class="cls-1" cx="469.46" cy="150" r="150"/><path d="M383.91,130l62.81,108.8H321.09L383.91,130m0-2L319.36,239.8h129.1L383.91,128Z"/><path d="M379.72,129,316.91,237.61,254.09,129H379.72m1.74-1H252.36l64.55,111.61L381.46,128Z"/><path d="M249.7,130l62.82,108.8H186.89L249.7,130m0-2L185.15,239.8h129.1L249.7,128Z"/><path d="M446.72,242.8,383.91,351.61,321.09,242.8H446.72m1.74-1H319.36l64.55,111.81L448.46,241.8Z"/><path d="M316.91,244l62.81,108.61H254.09L316.91,244m0-2L252.36,353.61h129.1L316.91,242Z"/><path d="M312.52,242.8,249.7,351.61,186.89,242.8H312.52m1.73-1H185.15L249.7,353.61,314.25,241.8Z"/><text class="cls-2" transform="translate(0 123.29)">PROFILE</text></g></g></svg>