<svg xmlns="http://www.w3.org/2000/svg" viewBox="0 0 935.99 512"><defs><style>.cls-1{fill:#b4fffd;}.cls-2{fill:#ff94ac;}.cls-3{font-size:150px;font-family:PTSans-CaptionBold, PT Sans Caption;font-weight:700;letter-spacing:0.07em;}</style></defs><title>top_main</title><g id="レイヤー_2" data-name="レイヤー 2"><g id="レイヤー_1-2" data-name="レイヤー 1"><circle class="cls-1" cx="572.46" cy="150" r="150"/><circle class="cls-2" cx="572.46" cy="362" r="150"/><path class="cls-2" d="M784.46,0a149.51,149.51,0,0,0-106,43.87,150,150,0,0,1,0,212.26A150,150,0,1,0,784.46,0Z"/><text class="cls-3" transform="translate(0 210.29)">PORTFOLIO</text><path class="cls-1" d="M639.91,263l52.42,90.8H587.48L639.91,263m0-14L575.36,360.8h129.1L639.91,249Z"/><path class="cls-1" d="M625.32,256l-52.41,90.63L520.49,256H625.32m12.14-7H508.36l64.55,111.61L637.46,249Z"/><path class="cls-1" d="M505.7,263l52.43,90.8H453.28L505.7,263m0-14L441.15,360.8h129.1L505.7,249Z"/><path class="cls-1" d="M692.33,369.8l-52.42,90.81L587.48,369.8H692.33m12.13-7H575.36l64.55,111.81L704.46,362.8Z"/><path class="cls-1" d="M572.91,377l52.41,90.63H520.49L572.91,377m0-14L508.36,474.61h129.1L572.91,363Z"/><path class="cls-1" d="M558.13,369.8,505.7,460.61,453.28,369.8H558.13m12.12-7H441.15L505.7,474.61,570.25,362.8Z"/><path class="cls-1" d="M934.46,362a149.55,149.55,0,0,0-43.87-106,150,150,0,0,1-212.26,0A150,150,0,1,0,934.46,362Z"/></g></g></svg>