<svg xmlns="http://www.w3.org/2000/svg" viewBox="0 0 1239.84 805.16"><defs><style>.cls-1{fill:none;stroke:#000;stroke-miterlimit:10;stroke-width:6px;}.cls-2{fill:#b4fffd;}.cls-3{fill:#ff94ac;}.cls-4{font-size:150px;font-family:MicrosoftSansSerif, Microsoft Sans Serif;letter-spacing:0.1em;}</style></defs><title>top_web_2</title><g id="レイヤー_2" data-name="レイヤー 2"><g id="レイヤー_1-2" data-name="レイヤー 1"><polygon class="cls-1" points="398.38 145.21 939.24 799.24 1235.22 3.82 398.38 145.21"/><circle class="cls-2" cx="621.46" cy="302.33" r="150"/><circle class="cls-3" cx="621.46" cy="514.33" r="150"/><path class="cls-3" d="M833.46,152.33a149.51,149.51,0,0,0-106,43.87,150,150,0,0,1,0,212.26,150,150,0,1,0,106-256.13Z"/><path class="cls-2" d="M983.46,514.33a149.55,149.55,0,0,0-43.87-106,150,150,0,0,1-212.26,0,150,150,0,1,0,256.13,106Z"/><text class="cls-4" transform="translate(0 564.62)">PORTFOLIO</text></g></g></svg>