<svg id="レイヤー_1" data-name="レイヤー 1" xmlns="http://www.w3.org/2000/svg" viewBox="0 0 980 400"><defs><style>.cls-1{fill:ivory;}.cls-2,.cls-4,.cls-5,.cls-6{opacity:0.5;}.cls-3{fill:#fff2d4;}.cls-4,.cls-9{fill:#ffd6d4;}.cls-10,.cls-5{fill:#d9d4ff;}.cls-6,.cls-8{fill:#b4e2ff;}.cls-7{fill:#202020;}.cls-11,.cls-13{fill:#fff;}.cls-12{fill:#231815;}.cls-13{font-size:7px;font-family:Arial-Black, Arial Black;font-weight:800;letter-spacing:0.05em;}</style></defs><title>top_phone</title><rect class="cls-1" width="980" height="400"/><g class="cls-2"><path class="cls-3" d="M554.64,606.06v-.33c-.16-.56-1.17-.9-3.73-.88l-.68,1.38c1.09-7.1-7-14-9-21.18,6-2.27,1,4.11,8.16,1.94,2-5.22-3.59-9.83-1.93-15.49.82.83,1.54.56,2,1,3.57-5.76-6.1,1.11-5.53-3.57,3.06,0,3.81-.27,5.27-1.92l-5-1a15,15,0,0,1,6.13,0c-6.6-1.55-2.59-8-8.74-9.24,1.52-.51,7.29.28,9.58-.49,1.68-2.54-.84-4.07-3.23-5.59-3.11.13-3.06-.81-2.69-2a2.13,2.13,0,0,1,0-3.15c.87,1,.36,2.15,0,3.15a13.7,13.7,0,0,0,2.69,2h0c4.18-1.94,3.39-6.07,4.16-5.22,1.85-4.46-3.47-.54-7.33-3.73l-2.62,3.64-1.6-6.19,3.07,2.36c2.29-2.94-3.11-5.69-3.06-9l-3.49,1.63-2.26-3.76c7.26-.56,1.55-4.91,10-3,3.45-6.93-5.6-11.28-6.52-17.53.3.66,1.58.35,2.59.54,1.62-3.73-2.14-6-5.91-8.22,2.27.47,3,1.36,5,1.38.09-4.41-4.15-2.69-6.31-7.59,3,1.37,4.6,1,5.39-.36a6.44,6.44,0,0,1-5.31-1.86c14.43,3.78,5.94-5.38,17.37-3-3.07-.26-9.29-7.86-15.11-5.78l1.06,1.33c-4,.11-2.39-1.67-2.67-3-.87-1-1.28-1.86-.24-.56a1,1,0,0,1,.24.56,4.09,4.09,0,0,0,2.37,1.49c-4.7-7-.17-14.08-3.65-21.82,1.49.7,4,3.84,5.28,1.89,2.26-7.57-5.19-12.15-8.68-19.87,9.23-.16,1.16,8.3,10,8.78a114.61,114.61,0,0,0-9.58-25.52c13.56-2.88-5.38-8.84,5.26-14.21-4.54.45-6.13-2.34-6.2-5.36H529l.11-.45a10.23,10.23,0,0,1,.87-4.09l-.87,4.09a3.53,3.53,0,0,0,0,.46c3.67,1.1,3.82-2.08,6.47-1.15-4.1-2.72-5.71-10.37,3.1-9.93-8.52-.82.48-5.67-5.52-7.94a9.37,9.37,0,0,1-3.82,2.26l2.41-2.75a6.55,6.55,0,0,1,1.41.49c3.24-3.28-1.69-7.17.94-11.32-4.93,1.27-3-3.23-4.27-5.23a1.54,1.54,0,0,0,1.39.59c4.67-1.19-4-4.87-1.23-7.19,2-1,5,.33,5.42-1.4-3.82-.09-8.2-6.49-3.5-8.79,0,1.09,1.89,1.13,3.37,1.82-6.44-11.22,1.67-23-5.95-34.48l6.42,2.08c8.35-7-10.54-4.77-9.58-10.4,3.22-15.38,12.61-31.32,8.48-46.4-1.88-1.11-2.31.63-5,.8.8-1.3,6.19-1.65,2.79-3.44l-3.47.38c9.43-6.83-6.28-19.87,8.46-24.9-5.51-6.6,4-11.21-4.29-19.21,3.09-2.52,6,2.94,6.84-.47l-5.41-7.41c-9.09-7.18,12-18.63,4.68-27.44l.51.38c2.4.21,5.31-1.64,4.49-3.09-1.7-.51-2.59.47-4.64,1.34-4.06-8-4.24-9.74-5.06-16.06,3.59,2.72,3.12-2.53,8.1-2.81-3.25-1.66-5.16,1-7.89-2.74-.47-5.26,3.83-10.12,5.57-14.49-4.43-1.76-3.22-4.09-8.71-4.19-.33-6-2.53-9.25-2.5-16.55l1.89-.19c-6.85-1.94,3.45-6.34-.5-7.68,2.42.19,3.42,1,5.32.76l-2.21-3.31c2.06,1.56,8.55,2.43,9.28-.3-4.81-2.82-3.28.79-7.19-.57l6.33-.89c-.7-2.14-7.87-2.71-9.8-.08.06-7.3-3-14.5-2-21l4.15.67c-1.55-3.59-1.54-8.46,2.08-10.62-1.22-.09-3.44-1-4.8-.38-5.23-4,5.12-1,1.72-4.28a5.71,5.71,0,0,0,3.77,1.93L532,74.35c3.08-.11,10-5.48,7.22-9.18-1.73-.13-4.07,1-4.42,1.9l.66.94c-.62-.24-.78-.58-.66-.94l-1.55-2.36,7.17-1.88-6.33-3.4-1.38,0,.17-.69,1.21.66,6-.1c-1.21-2.52-8.92-3.47-8.41-5.52,3.78-7.7,5.84-6.15,11.5-11.64-11.49-.52.36-8.67-7.88-10,8.59-7.34,3.26-17.84,5.66-27.39l1,.77c5.3-4.13-8.74-4.56-6.46-9l1.71,1.09c6.08-5.7.41-15.55-4.49-20.85,1.72,1.07,5.4.48,5-1.24-2.26-1.44-8,1.5-5.89-1.56,1.12.74,3.63.12,3.69-.57l-5.75-2.92c3.86-7.82,7.89-17,4.51-25.06,2-1.52,4.09-.45,6.07-.11-1.27-6.39-6.12-12.71-7.22-18.47l6.62-.67c0-2.83-10.17-1.63-4.3-5.38.88-.84.46,2.43,3.41,3.4,5-5.74-6.5-3.28-5.82-8.72l7.5,1.34c4.39-4.22-4-4.71-8.42-6.17-8.87-5.74,14.39-4.32,7.71-12.19-3.69-1.22-5.44.48-9.13-.74,1.87-5.61-3.43-6.22-1.57-11.85,11.14-3.12,0,2.86,10.44-.53l-2.49,4.3c5.85-3.75,1.53,3.32,8.14,2.66,1.89-2.77-3.76-6.89-6-10.46,5-.06.63,4.17,7.38,2.43l-2.07-1.82c1.48.48,3.38.55,3.25,1.63,4.7-.72.26-2.17.11-3.93a50.58,50.58,0,0,0-9.86.67,6.32,6.32,0,0,0,1.77-.49c-7.22-3.51-1.85-9.67-7.6-12.69,1.49.48,1.91,0,3.1-.12.25-2.19-6.38-4.35-8.31-7.25,3.66-1.64,11,.79,8.94-3.87-4.14-.78-11.32,1.39-11.21-2.54,0,0,3.42,3.39,6.33,1.52-3-3.82,1.31-1.27,6-4.84-5.89-1.93,2-3.87-7.53-4.17,6.32-1.33,4-1,8.5-3.45-5.14,1.15-5.19-4.52-11.38-4.28,7.07-1.09,8.72,4,16.05.72-4.73-2.11-6.52-6.11-14.16-6.35,1.68-1.64,4.35-2.44,5.17-4.88,0,.37,1.21.75,1.84,1-3.22-2.81-2.49-6.51-3.69-9.5h-96.1v6.25c.77.22,1.65.44,2.69.64l1.58-1.35-2.49,5,.13-.21a9.91,9.91,0,0,1,1.8-2.73l-1.8,2.73c-.62,1.59.05,2.13-1.91,3.59v15a7.23,7.23,0,0,0,1.75-.12,4.12,4.12,0,0,1,1.37-.65,3.2,3.2,0,0,1-1.37.65c-.52.32-1.11.74-1.75,1.16v3.31A10,10,0,0,1,439-148l2.85,6.93c0,.79-2.33-.45-2.41-1.44-12,9,11.45,16.22-3.19,26.43,3.8-1.26,3.45.5,6.14,1.26-1.07,3.1.15,7.65-2.09,10.58l-2.7-.75c3.59,7.05,8,11.84,6.58,16.7,1.16.17-3.82.15-4.63-.68,5,3.29-10.2,8.26.17,8.73l.75-1.34c-1.37,7,6.37,14.42,7.93,21.58-6.11,2-.8-4.13-8.06-2.33-2.25,5.1,3.13,9.94,1.25,15.47-.78-.85-1.51-.62-1.93-1-3.78,5.58,6.13-.85,5.39,3.75-3.05-.12-3.81.13-5.33,1.71l5,1.14a15,15,0,0,1-6.13-.24c6.54,1.77,2.37,8,8.5,9.37-1.53.47-7.29-.44-9.59.27-1.72,2.49.78,4.06,3.15,5.6,3.11-.09,3,.84,2.66,2a2.09,2.09,0,0,1,0,3.11c-.86-1-.34-2.12,0-3.11a13.84,13.84,0,0,0-2.66-2s0,0,0,0c-4.23,1.86-3.44,6-4.2,5.13-1.87,4.43,3.45.57,7.31,3.75L446.32-21l1.59,6.09-3.08-2.32c-2.28,2.89,3.12,5.6,3.11,8.89L451.42-10l2.28,3.67c-7.26.62-1.52,4.85-10,3.07-3.4,6.94,5.73,11.08,6.78,17.22a.87.87,0,0,1,.07.35c0-.12-.05-.24-.07-.35-.31-.64-1.59-.31-2.61-.47-1.54,3.74,2.28,5.85,6.11,8-2.28-.39-3.05-1.25-5-1.21,0,4.37,4.23,2.54,6.52,7.31-3.07-1.26-4.62-.79-5.37.54a6.51,6.51,0,0,1,5.37,1.65c-14.56-3.23-5.76,5.57-17.27,3.59,3.07.16,9.57,7.48,15.31,5.19l-1.11-1.29c4-.26,2.45,1.57,2.78,2.91.91.94,1.35,1.8.26.54a1,1,0,0,1-.26-.54,4.08,4.08,0,0,0-2.42-1.39c4.94,6.72.76,14,4.49,21.6-1.52-.63-4.18-3.67-5.34-1.67-2,7.67,5.61,11.94,9.35,19.58-9.22.52-1.44-8.31-10.24-8.42A116.37,116.37,0,0,0,461.5,95.13c-13.46,3.37,5.66,8.72-4.79,14.47,4.52-.59,6.2,2.17,6.37,5.2h.09l-.09.45a10.17,10.17,0,0,1-.74,4.15l.74-4.15a3.53,3.53,0,0,0,0-.46c-3.71-1-3.75,2.22-6.43,1.36,4.21,2.6,6,10.26-2.86,10.07,8.54.59-.36,5.71,5.69,7.83a9.41,9.41,0,0,1,3.76-2.38l-2.35,2.84a6.47,6.47,0,0,1-1.41-.46c-3.18,3.38,1.83,7.17-.71,11.41,4.9-1.4,3,3.18,4.37,5.16.19.19.37.38.49.52a1.73,1.73,0,0,1-.49-.52,1.57,1.57,0,0,0-1.4-.57c-4.64,1.31,4.11,4.82,1.37,7.22-1.93,1.09-5-.23-5.38,1.52,3.82,0,8.32,6.37,3.66,8.77,0-1.1-1.92-1.1-3.41-1.76,3.32,5.58,3,11.38,2.83,17.2s-.28,11.67,3.59,17.39l-6.44-2c-8.27,7.16,10.59,4.67,9.66,10.35-3.15,15.53-12.32,31.6-8.25,46.73,1.88,1.12,2.31-.63,5-.8-.81,1.31-6.19,1.66-2.8,3.46l3.47-.38c-9.45,6.85,6.22,20-8.53,25,5.5,6.66-4.07,11.23,4.2,19.33-3.1,2.5-6-3-6.84.41l5.37,7.5c9,7.31-12.23,18.57-5,27.49l-.5-.39c-2.4-.24-5.34,1.57-4.53,3,1.69.53,2.59-.44,4.65-1.28,3.95,8.08,4.11,9.84,4.84,16.2-3.55-2.79-3.15,2.49-8.14,2.69,3.23,1.72,5.18-.88,7.86,2.87.4,5.3-4,10.1-5.77,14.45,4.39,1.85,3.14,4.17,8.61,4.38.22,6,2.34,9.34,2.16,16.66l-1.89.15c6.81,2.11-3.58,6.29.34,7.73-2.41-.25-3.4-1.05-5.3-.89l2.14,3.37c-2-1.61-8.5-2.64-9.28.09,4.75,2.94,3.29-.72,7.17.74l-6.35.73c.66,2.17,7.82,2.91,9.8.32-.21,7.33,2.7,14.63,1.54,21.14l-4.13-.78c1.46,3.65,1.35,8.53-2.33,10.6,1.22.12,3.41,1.06,4.79.51,5.12,4.12-5.14.87-1.83,4.25l.32.3c.2.19.41.37.69.6-.25-.2-.47-.4-.69-.6l-.32-.3a5.79,5.79,0,0,0-3.72-2.05l4.89,8.92c-3.08,0-10.1,5.2-7.46,9,1.73.18,4.09-.83,4.47-1.77l-.64-1c.62.26.77.6.64,1l1.49,2.42-7.23,1.66,6.23,3.6,1.38,0-.19.68-1.19-.7-6-.09c1.15,2.57,8.82,3.76,8.25,5.8-4,7.6-6,6-11.82,11.3,11.47.9-.61,8.67,7.59,10.27-8.78,7.07-3.81,17.76-6.53,27.25l-1-.81c-5.44,3.93,8.59,4.89,6.16,9.22l-1.67-1.15c-6.27,5.49-.92,15.56,3.79,21.07-1.69-1.15-5.39-.7-5,1,2.21,1.53,8.07-1.19,5.83,1.79-1.09-.78-3.62-.26-3.71.43l5.65,3.15c-4.12,7.69-8.49,16.74-5.41,24.92-2.06,1.44-4.11.28-6.06-.13,1,6.44,5.63,13,6.51,18.79l-6.64.38c-.07,2.83,10.1,2.07,4.1,5.57-.92.8-.37-2.45-3.28-3.55-5.18,5.53,6.37,3.56,5.48,9l-7.44-1.66c-4.54,4,3.81,4.88,8.18,6.53,8.65,6.14-14.54,3.7-8.16,11.87,3.64,1.38,5.45-.24,9.09,1.14-2.09,5.54,3.18,6.38,1.1,11.93-11.26,2.63.08-2.86-10.45.06l2.65-4.18c-6,3.49-1.39-3.39-8-3-2,2.7,3.48,7.07,5.57,10.74-5-.17-.46-4.2-7.27-2.76l2,1.91c-1.45-.55-3.35-.7-3.18-1.78a9.64,9.64,0,0,0-1.26.22v2a3,3,0,0,1,1,1.67,50.38,50.38,0,0,0,9.89-.24,6.63,6.63,0,0,0-1.8.42,8.06,8.06,0,0,1,2.56,2.06H550.94c.14-1.84,1.15-3.78,3.7-5.89v-.52c-2.64.65-2.68-.79-5.09-1.38,1-3.09-.37-7.52,1.77-10.51l2.72.64c-3.83-6.85-8.46-11.34-7.22-16.24-1.17-.11,3.8-.35,4.64.43C547.81,611.4,554.25,607.9,554.64,606.06Zm-9.79-25.72,1.7,2.71-4.63-.5ZM538-119.13a27,27,0,0,0-4.91,1.26C532.7-122.47,534.13-118.68,538-119.13ZM444.57-55.52,443-58.29l4.6.72Zm2.15,700a26.51,26.51,0,0,0,4.95-1C451.9,648.1,450.62,644.24,446.72,644.52Z"/></g><path class="cls-4" d="M635.6,628.38c-3.75,1.36-3.45-.39-6.14-1.06,1-3.09-.37-7.52,1.75-10.52l2.71.64c-3.81-6.85-8.42-11.35-7.19-16.26-1.16-.11,3.79-.35,4.63.43-5.15-3,9.78-8.77-.55-8.68l-.68,1.37c1.09-7.11-7-14-8.91-21.2,6-2.27,1,4.12,8.13,1.94,2-5.22-3.59-9.84-1.93-15.51.81.83,1.53.57,2,1,3.56-5.77-6.08,1.11-5.5-3.58,3,0,3.78-.27,5.25-1.92l-5-1a14.73,14.73,0,0,1,6.11,0c-6.58-1.56-2.58-8-8.71-9.26,1.52-.51,7.27.29,9.55-.49,1.67-2.54-.84-4.07-3.22-5.58-3.1.13-3.05-.82-2.68-2.05a2.15,2.15,0,0,1,0-3.15c.87,1,.36,2.14,0,3.15a13.72,13.72,0,0,0,2.68,2.05s0,0,0,0c4.17-2,3.38-6.09,4.14-5.24,1.84-4.46-3.45-.53-7.3-3.73l-2.61,3.64-1.6-6.19,3.06,2.36c2.29-2.94-3.09-5.69-3-9l-3.48,1.63-2.25-3.77c7.23-.55,1.54-4.91,9.94-3,3.44-6.94-5.58-11.29-6.49-17.55a.73.73,0,0,1-.07-.35c0,.12.05.23.07.35.29.66,1.57.35,2.58.54,1.61-3.73-2.13-6-5.89-8.23,2.26.47,3,1.36,4.94,1.38.09-4.41-4.14-2.69-6.28-7.59,3,1.37,4.57.95,5.36-.37a6.38,6.38,0,0,1-5.29-1.85c14.38,3.77,5.92-5.39,17.31-3-3.06-.26-9.26-7.87-15.06-5.79l1.06,1.34c-4,.1-2.38-1.68-2.65-3-.88-1-1.29-1.86-.24-.55a1.12,1.12,0,0,1,.24.55,4,4,0,0,0,2.35,1.5c-4.68-7-.17-14.1-3.63-21.85,1.48.7,4,3.85,5.26,1.89,2.24-7.58-5.18-12.16-8.65-19.89,9.2-.16,1.16,8.31,9.91,8.79A115.06,115.06,0,0,0,610,416.12c13.51-2.89-5.36-8.85,5.24-14.23-4.52.45-6.11-2.34-6.18-5.36H609l.1-.45A10.24,10.24,0,0,1,610,392l-.87,4.1a3.53,3.53,0,0,0,0,.46c3.66,1.1,3.81-2.09,6.45-1.16-4.08-2.71-5.69-10.38,3.09-9.94-8.5-.82.47-5.67-5.51-7.94a9.49,9.49,0,0,1-3.8,2.26l2.4-2.76a5.77,5.77,0,0,1,1.4.5c3.23-3.29-1.68-7.19.94-11.34-4.91,1.27-3-3.23-4.25-5.24-.19-.19-.36-.38-.48-.52a1.7,1.7,0,0,1,.48.52,1.55,1.55,0,0,0,1.38.6c4.65-1.19-4-4.88-1.22-7.2,1.95-1.05,4.94.33,5.39-1.4-3.79-.09-8.16-6.5-3.48-8.8,0,1.09,1.89,1.13,3.36,1.81-6.42-11.23,1.66-23-5.93-34.51l6.4,2.08c8.31-7-10.51-4.78-9.54-10.41,3.2-15.4,12.56-31.37,8.44-46.46-1.87-1.11-2.3.63-5,.8.8-1.3,6.16-1.65,2.78-3.44l-3.45.38c9.39-6.84-6.26-19.89,8.42-24.93-5.49-6.6,4-11.22-4.28-19.23,3.08-2.52,5.95,2.94,6.82-.47l-5.39-7.42c-9-7.19,12-18.65,4.66-27.47l.51.38c2.39.21,5.29-1.65,4.47-3.1-1.69-.5-2.57.47-4.62,1.34-4-8-4.22-9.75-5-16.07,3.58,2.72,3.11-2.54,8.07-2.82-3.24-1.66-5.14,1-7.86-2.74-.47-5.27,3.82-10.13,5.55-14.51-4.42-1.76-3.21-4.09-8.67-4.19-.34-6-2.52-9.26-2.49-16.57l1.88-.19c-6.83-1.94,3.43-6.35-.5-7.69,2.41.19,3.4,1,5.29.76l-2.2-3.31c2.06,1.56,8.52,2.43,9.24-.31-4.79-2.82-3.25.8-7.16-.57l6.31-.88c-.69-2.14-7.84-2.72-9.76-.09.06-7.31-3-14.51-2-21l4.13.67c-1.54-3.59-1.53-8.47,2.07-10.63-1.21-.09-3.42-1-4.77-.38-5.22-4,5.09-1,1.7-4.28l-.32-.29c-.21-.18-.42-.37-.7-.58a8,8,0,0,1,.7.58l.32.29a5.79,5.79,0,0,0,3.76,1.93L612,61.81c3.07-.11,9.92-5.5,7.19-9.19-1.72-.13-4.05,1-4.4,1.9l.66.94c-.62-.24-.78-.58-.66-.94l-1.55-2.37,7.15-1.88-6.3-3.4-1.38,0,.17-.68,1.21.66,6-.1c-1.21-2.53-8.89-3.48-8.38-5.53,3.77-7.7,5.82-6.16,11.46-11.65-11.45-.53.36-8.68-7.86-10,8.56-7.35,3.26-17.86,5.65-27.43l1,.77c5.28-4.13-8.71-4.56-6.43-9l1.7,1.08c6-5.7.4-15.56-4.48-20.87,1.72,1.08,5.39.48,5-1.24-2.26-1.44-8,1.5-5.87-1.56,1.11.74,3.61.12,3.67-.57l-5.72-2.92c3.84-7.84,7.86-17,4.49-25.1,2-1.52,4.08-.44,6.05-.11-1.26-6.4-6.1-12.72-7.19-18.49l6.59-.66c0-2.84-10.13-1.64-4.28-5.4.88-.83.45,2.43,3.39,3.41,5-5.75-6.47-3.28-5.79-8.73l7.47,1.34c4.37-4.22-4-4.71-8.39-6.17-8.84-5.75,14.34-4.33,7.68-12.21-3.68-1.22-5.42.48-9.1-.74,1.87-5.62-3.41-6.23-1.56-11.86,11.1-3.13,0,2.85,10.4-.53l-2.48,4.3c5.82-3.75,1.53,3.32,8.11,2.67,1.88-2.78-3.74-6.91-6-10.48,5-.06.63,4.17,7.35,2.43l-2.06-1.82c1.47.49,3.36.55,3.24,1.63,4.68-.72.25-2.17.11-3.93a50.29,50.29,0,0,0-9.83.67,6.32,6.32,0,0,0,1.77-.49c-7.2-3.52-1.84-9.68-7.57-12.7,1.48.48,1.91,0,3.08-.13.26-2.19-6.35-4.35-8.27-7.25,3.64-1.65,11,.78,8.9-3.88-4.12-.78-11.28,1.39-11.16-2.54,0,0,3.4,3.39,6.3,1.52-2.94-3.83,1.31-1.27,6-4.84-5.86-1.94,2-3.88-7.5-4.18,6.29-1.33,4-1,8.47-3.45-5.12,1.14-5.17-4.53-11.34-4.29,7-1.09,8.69,4,16,.73-4.71-2.12-6.5-6.13-14.11-6.36,1.68-1.65,4.33-2.45,5.15-4.89a.2.2,0,0,1,.08-.19c0,.07-.06.13-.08.19,0,.36,1.21.75,1.83,1a7.56,7.56,0,0,1-2.18-3.3H514a23.12,23.12,0,0,1-1.89,11.73,3.2,3.2,0,0,0,1.83-.8c-13,11.66,15.52,18.42,4.27,29.1l-2.19-.75c1.17,5.52-2.19-.76-5.42,3.26,7.16.77,5.55,7,8.18,10.22-1.48-.5-1.32-1.6-2.35-2.52-1.61.6-5.87.83-4.55,2.43,10.25,3.53,9.21,11.14,12.26,16.75-4.69.67-8.8,5.52-16.41,8,1.69.58,5.29,1.62,8.8,2.57a9.52,9.52,0,0,1,1.23-.73c0,.23.28.32.39.5-.22-1.22-.49-1.86-.87-1.57,4.5-2.25,3.62.16,9.08,0-.2,1.83,1.7,5.63-2.43,6.06-.07,1.1-.68,1.83-1.5,3,.84.7,1.3,1.44.81,2.27l-.56-.37a9.47,9.47,0,0,0-1.73.47c-2.34,3.59,5.82,8.66,9.58,11.62-6.88-2.94-7.76.75-12.75.74.4.35.7-3.33.83-7.89a6.86,6.86,0,0,1-3.23.67c-5.32,3.94,4.65,6.74,1,12.49a4.73,4.73,0,0,0-3.55-.84c-1.42,2,2.57,3.91,5.55,4.37-4.89.5-8.42,4.86-6.25,7,4,1.89,5.88,1.62,5.46,5l-3.46-1.51c-2.76,3.88,4.41,3.38,2.52,6.26.35-1-2.6-1-3.22-.06,1.91,4.22,3.8,4.32,10.71,7.35l-5.41-.56c3.23,3.59,9.84,10.36,2.51,10.44,11.26-1.13,5.92,7.83,5.71,11-.34-1.08-2.71-1.28-3.91-1.38,7.44,6.56.23,13.28.36,19.92l-8.21,1.05c.33,3.51,16.54,4.52,16.17,8.32l-3.93-1.37c1.31,6.74.62,9.47-.78,14.93l-5.5-.11c2.56,2,2.53,4.39,5.09,6.37-13.35,4.45,7,17.68-7.88,25.84l10.25.52c-.21,3.12,1.83,7.12-5.86,8.58l.15-.69c-7.84-.31-.17,3.12-1.91,5.07.86,1.47,6,3,7.52,1.68-5.21,8.29.18,20.6-9.1,25.75,3.35,8.31,11.49,14.59,10.43,23.56l-1.21-.11c-1.39,3-4.16,9.09-12.71,9.07,2,6.46,13.74,10.58,9.94,18.29l-3.27-1.67c-1.69,1.95,2.4,5.09,3.39,5.87-.17.68-1.86.18-3.06.08-2.92,1.85,1.69,2.94,2.53,4.42l-2.9-.61c-5.88,6.14,5.7,15.83,4.26,23.73-.85-1.46-4.1-.68-5.47-.1,9.53,3.24,7.25,12.13,9.45,15.45l-3.73-2c6.25,6.46-10,5.57-3.72,12l5.48-3.67c-1.62,2.61.21,4.83,4.45,4.22-3.15,3-7.27.36-8.19,4.94-2.66.19-1.82-3.31-5.27-1.81l-7.1,6.32h0c5.43-4.38,6.8,3.29,11.68.38-3.18,3.64-9.54-.79-11.68-.38l-.56.45.5-.44c-.75.2-.94,1-.2,3.07,11.87-.51.63,5.26,12.19,2.11.85,9-7,16.57-1.59,24.35-11.55,3.06-.57,15.36-15.42,14.39-.19,4.35,2.73,7.93,8.7,10.73,1.2-.85-.66-2-1.39-2.9,3.76,1.21,4.31,6.49,4.21,8.69-3.32-2.95-6.16-7.65-11.8-10,1.37,4,6.85,9.62,8.65,11.88l-7.68.85c5.55,3.46-6.23,2.65,1.25,6.18l2.3-.58c-.69,6.12,6.95,6.4,7.78,12.17l-3-.34c-1.26,1.92,5.83,5.08-1.15,6.77l-.19-3.74c-5.35.21-7.79,3-10.53,4.17,1.28,4,8.7,1.69,9.34,3.7-5,.66-2.69.11-7.58-1.44,1.66,4.47,3.56,10.49,9.88,13.92a5.34,5.34,0,0,1-1.9-.11c-1.09,4.55,7.81,9.06,3.4,11.68l-.71-.94c-7.51,3.31,6.53,9.94-6.11,10-2.43,1.6.69-3.92-5.63-1.48-4.24,5.22,10.4,4.21,6.59,8.8.43-.63-.34-.46-1.48-.75a57,57,0,0,0,2.15,12.08,11.32,11.32,0,0,1,1.12-.41l-.88,1.25c-.08-.27-.15-.58-.24-.84-10.5,4,1.73,14.53-10.52,19.11,4.33-1.43,4.83,1.68,6.72,1.81a5.11,5.11,0,0,0-1.89-.13c-.43,1.93,3.56,2.44,5.2,3.29a3.2,3.2,0,0,1,.68-.22c.46.63.25.91-.07,1.22a1.61,1.61,0,0,1-.47.49,3.16,3.16,0,0,1,.47-.49c.23-.42-.08-.73-.61-1-3.73,1.36,3.59,5.68,1.14,6.54,2.65.2,1.86,1.72,1.71,3.46-2.76-3.69-5.61-1.5-9.68-3.35-1.61,5.13,11.31,6.76,8.94,12l-5.21,2.67c7.6,1.1,4.23,5.9,7.07,6a10.3,10.3,0,0,1,2.42-.5,6.83,6.83,0,0,1-2.42.5c-2.43.78-3.89,2.05-7.71,1.61,1.73,2.28-2.36,5.28,2.15,6.44l2.1-2c-3.23,6.53,7.56,11.12,2.23,16l-11.46-.69c-4.84,3.21,6,6.64-1,9.28,3.88-.87,2.74-1.14,6.42,1.22.85-1.26-2-3.79-1.88-6l6.54,4.9-3-7.29c4.38,3.28,3.26,3,7.94,2,3.5,4.49-5.68,4.41-1.39,8.72-1.63,1.43-5.71-.28-8.11,1.33,4,3.83-8.49,6.72-2.5,9.58-1.2.81-.3-1.53-3-1.42,1,2.43.53,4.13,4,4.92l1.32-2a2.09,2.09,0,0,1,.76-1.15l-.76,1.15c-.36,1.78,4.3,2.2,1.54,5.53,2.61,2,8.27,3.26,8.37,1.14.72.88-2.39,2.7-5.83,1.95-.22,5.3,12.2,2.76,6.66,7.74.4.44.51.85-.11.12a1.2,1.2,0,0,1,.11-.12,1.68,1.68,0,0,0-1.61-.55,3,3,0,0,0-.59,2.23,2.51,2.51,0,0,1,.44,1,2,2,0,0,1-.44-1c-1.91-2.57-8.59,1.78-6.63-3.06-6.12.5-1.32,4.06-3.69,5.73,4.09,2.65,8.77.37,11.77,1.71-1.92,0-2,1-2.75,2.3l4.6-1.2a4.4,4.4,0,0,0,1.07,3.42l-1.86-2.16c-.82,2.32-8.17,5.88-3.73,10-1.88-1.08-5.61-3.26-8-.49,2.95,4.53-1.93,1.07-5.44,3.66,1,4.53,8.19.72,5.44,7.42,0,.72,2.69,0,4-.72a6.39,6.39,0,0,1,.42-.89c.49.2.16.54-.42.89-2.05,4.29.73,6.69-1.65,10.68,1.1-1.51,2.52-2.33,4.45-.15-3.8-1-3.49,3.69-5.8,5.46l2.32.39c-2.46,1.42-3.49,0-4.36-1.1a1.37,1.37,0,0,1-1.39-1c.56-.16,1,.34,1.39,1,.79,0,1.51-.4,1.3-1.22-1.14-1.3-4.84-1.43-7.74-.56v5.38a14.57,14.57,0,0,0,7-.28c-2.3,5,10.69,4.29,7.26,9.09,0,1.07-9.18,5-9.89,8.5,5.35,1.55,3.77-4.44,8.36-2.65-12.9,6.28,8.55,11.31,1,19.13l-6.49-.58c-.33,1.76-.67,3.5.15,5.41l3.37-2.76c1.56,1.65.51,5.81-4.47,4.77,5.44,3.62,2.42,4.62,1,8.4.3-3.92.89-.12-2.6-2.75-2.94,4.28-.79,4.47.83,7.2-2-.28-4.8,1-5.48,2V562c4.1,2.39,3.55,6.9,5.94,10.39l-1.91.14c2.82,6-5.54,13.47.58,19.25a2.3,2.3,0,0,0,.75-.41l.69-1c.38-1.2-.26-2.53,1.84-2.54l-1.84,2.54a1.62,1.62,0,0,1-.69,1l-.11.17c5.92-2.67,4.62,4.47,7.32,6.15-1.52.55-4.17,1-4.11,2.07,5.72-.46,3.16,2.14,5.88,2.78-1.78,2.32-6.85.36-6.27,4,.61,1.38,3.59,1.27,5.75.89a7.48,7.48,0,0,1,1.92-.45,11,11,0,0,1-1.92.45,9.14,9.14,0,0,0-5.42,5.63c-1.56-.52.3-1.77-.1-2.17-3.05,0-1.85,1.25-5.67,1.58-.27,1.77,5.37.18,3.58,2.53l-4.67-1.56c-1.07,1,.91,1.9,1.29,2.3a4.33,4.33,0,0,0-2.83-.69v2.56c3.87-.27,8.44-2.3,11.59-2.43-3.12,5.08,3.17,8.21,3.79,11.85l-5.36-.15c1,1.71,2.24,2.45,4.58,2.86l-.08-.72,2.73,1c-1-.09-1.91-.19-2.65-.33l.28,2.76c-2.05-1.39-3.76-1.75-8-1.41,1.25,2,1.13,4.75,3.65,6.11H631C630.34,634.5,631.14,631.65,635.6,628.38Zm-10.83-60,1.69,2.72-4.61-.5ZM618-131.9a27,27,0,0,0-4.89,1.26C612.66-135.24,614.09-131.45,618-131.9ZM526,38.43l.34-1.37,1.7,2.93ZM515.27,270.71c-.76-.91,1.66-2.6,2.11-4.34C520.36,267.78,518.35,269.93,515.27,270.71Zm-3,78.44,6.14-.2C520.09,351.29,513.25,350.56,512.23,349.15Zm-4.31,209c3.05,0,4.15-2,5-.08Zm8.13-32.54-1.19-2.34,1.94,3.16Z"/><path class="cls-5" d="M754.69-99.41a48.49,48.49,0,0,0-9.61.54,6.73,6.73,0,0,0,1.74-.46c-7-3.54-1.7-9.51-7.26-12.55,1.44.49,1.86.08,3-.08.27-2.14-6.16-4.35-8-7.22,3.58-1.56,10.72.91,8.74-3.68-4-.82-11,1.22-10.87-2.63,0,0,3.29,3.36,6.13,1.56-2.82-3.78,1.3-1.22,5.88-4.66-5.71-2,2-3.77-7.28-4.19,6.16-1.22,3.88-.9,8.31-3.27-5,1.05-5-4.51-11-4.35,6.89-1,8.43,4,15.6.92-4.58-2.14-6.27-6.09-13.7-6.42,1.65-1.58,4.25-2.34,5.08-4.72,0,.36,1.17.75,1.78,1-5-4.51,0-11.16-9-13.71,10.72.91,1.31-9.57,11.31-6.13-.18-1-1.55-2.29-3.09-3.39H620.19c.93,1,2.83,1.84,6.92,2.39l1.46-1.41-2.13,5.07.11-.22a9.77,9.77,0,0,1,1.59-2.77L626.55-167c-.73,2.16.8,2.31-4.83,5.77-1.51-1-1.71-2.71-3.23-3.72-4.76,3.12,4.75,4.71,5.32,7.47-4.15.37-1.74-2.73-6.7-1.31-.45,2.06,2.74,3.39,4.09,5.1h-2.31c-4.73,5.51,11.48.63,4.09,5.11,1.35-.26,2.87,0,4.18-.34a3.91,3.91,0,0,1,1.3-.7,3.3,3.3,0,0,1-1.3.7c-2.3,1.62-6.09,5.19-9.29,2.42.17,1.7,2.37,3.42,5,4,3.24-1.82,1.49-2,5.79-3l3,6.66c.08.78-2.28-.33-2.4-1.3-11.41,9.36,11.71,15.45-2.14,26,3.65-1.38,3.38.36,6,1-.92,3.08.44,7.49-1.69,10.45l-2.64-.66c3.63,6.8,8.05,11.39,6.75,16.2,1.14.14-3.7.24-4.51-.55,5,3.11-9.73,8.33.36,8.55l.7-1.33c-1.18,6.93,6.35,14,8,21-5.91,2-.85-4-7.88-2.16-2.1,5,3.22,9.7,1.48,15.15-.77-.83-1.48-.6-1.89-1-3.6,5.5,6-.9,5.28,3.62-3-.09-3.7.17-5.18,1.73L636.9-41a14.55,14.55,0,0,1-6-.19c6.37,1.68,2.32,7.83,8.29,9.14-1.49.47-7.09-.4-9.33.31-1.67,2.44.76,4,3.07,5.47,3-.09,3,.82,2.6,2a2.07,2.07,0,0,1,0,3.05c-.85-.93-.34-2.08,0-3.05a13.52,13.52,0,0,0-2.6-2h0c-4.1,1.83-3.33,5.87-4.07,5-1.81,4.34,3.36.55,7.12,3.67l2.56-3.5,1.56,6-3-2.29c-2.19,2.84,3,5.51,2.94,8.74l3.4-1.58,2.19,3.63c-7.06.56-1.49,4.75-9.7,3-3.34,6.77,5.53,10.92,6.52,17a.69.69,0,0,1,.07.34,3.4,3.4,0,0,0-.07-.34c-.29-.64-1.54-.32-2.53-.5-1.49,3.66,2.14,5.78,5.83,7.92-2.21-.42-2.94-1.28-4.82-1.27-.07,4.3,4.06,2.56,6.2,7.3-3-1.29-4.48-.86-5.23.44a6.22,6.22,0,0,1,5.18,1.73c-14.09-3.46-5.7,5.35-16.85,3.17,3,.21,9.16,7.55,14.79,5.43L644,36.24c3.87-.17,2.36,1.6,2.65,2.93.87.94,1.28,1.8.24.53a1.06,1.06,0,0,1-.24-.53,4,4,0,0,0-2.33-1.43c4.74,6.73.36,13.79,3.8,21.39-1.46-.67-4-3.74-5.15-1.81-2.14,7.48,5.16,11.93,8.6,19.62-9,.16-1.2-8.25-9.74-8.67A127.7,127.7,0,0,0,651,93.59c-13.22,2.68,5.15,8.87-5.25,14,4.42-.35,5.9,2.46,5.9,5.46h.09l-.11.45a10.31,10.31,0,0,1-1,4l1-4c0-.16,0-.3,0-.46-3.55-1.17-3.77,2-6.32,1,3.92,2.79,5.26,10.46-3.29,9.75,8.26,1.08-.62,5.59,5.15,8a9,9,0,0,1,3.77-2.1l-2.42,2.65a5.8,5.8,0,0,1-1.35-.55c-3.24,3.14,1.44,7.2-1.31,11.2,4.84-1.05,2.74,3.33,3.91,5.39a4.37,4.37,0,0,1,.44.54,1.9,1.9,0,0,1-.44-.54,1.49,1.49,0,0,0-1.32-.66c-4.59,1,3.69,5,.88,7.21-2,.93-4.8-.58-5.32,1.11,3.7.28,7.66,6.89,3,8.91.08-1.08-1.79-1.23-3.19-2,5.73,11.52-3,22.65,3.7,34.59l-6.09-2.56c-8.53,6.29,9.9,5.56,8.52,11.09-2.19,7.51-5.88,15-8.67,22.48s-4.85,15-3.6,22.58c1.71,1.3,2.29-.36,4.92-.23-.91,1.19-6.15.93-3,3.07H643c-9.8,5.63,4.06,20.16-10.7,23.34,4.67,7.05-5,10.41,2.2,19.11-3.24,2.08-5.47-3.53-6.66-.33l4.5,7.76c8.09,7.9-13.41,16.65-7.05,25.91l-.46-.42c-2.31-.43-5.29,1.06-4.61,2.54,1.61.65,2.54-.2,4.6-.84,3.26,8.06,3.32,9.73,3.63,15.83-3.27-2.9-3.2,2.16-8.05,2,3.05,1.85,5.08-.5,7.47,3.25.09,5-4.37,9.34-6.29,13.42,4.22,2,2.92,4.11,8.24,4.53,0,5.65,2,8.9,1.7,15.8l-1.84.11c6.56,2.1-3.58,5.88.23,7.32-2.34-.27-3.3-1-5.15-.92l2.06,3.24c-2-1.55-8.25-2.62-9,0,4.6,2.86,3.21-.66,7,.78l-6.18.65c.61,2.08,7.57,2.82,9.52.38-.26,7,2.62,13.89,1.55,20.08l-4-.69c1.47,3.46,1.42,8.11-2.12,10.17,1.18.1,3.34.94,4.66.39,5.1,3.8-5,.95-1.65,4.1l.29.26c.21.18.42.36.7.57-.25-.18-.47-.37-.7-.57l-.29-.26a5.67,5.67,0,0,0-3.68-1.86l5,8.39c-3,.11-9.65,5.34-7,8.89,1.69.11,4-1,4.28-1.87l-.65-.9c.61.23.77.55.65.9l1.53,2.26-7,1.89,6.18,3.19,1.34,0-.15.66-1.19-.62-5.84.18c1.21,2.43,8.73,3.22,8.26,5.2-3.55,7.48-5.6,6-11,11.47,11.19.23-.16,8.42,7.89,9.47-8.16,7.36-2.68,17.38-4.69,26.75l-1-.71c-5,4.22,8.67,4.08,6.61,8.45l-1.7-1c-5.71,5.79.21,15.13,5.18,20.06-1.73-1-5.28-.23-4.8,1.43,2.25,1.29,7.74-1.83,5.78,1.24-1.11-.67-3.53.05-3.56.73l5.71,2.56c-3.43,7.8-7,17-3.31,24.65-1.89,1.58-4,.64-5.89.41,1.51,6.17,6.5,12.1,7.82,17.68l-6.4,1c.15,2.76,9.95,1.09,4.41,5.05-.83.85-.55-2.35-3.46-3.16-4.58,5.85,6.45,2.88,6,8.23l-7.35-.93c-4.08,4.33,4.09,4.39,8.45,5.6,8.87,5.18-13.8,4.93-7,12.3,3.64,1,5.27-.74,8.9.27-1.57,5.58,3.6,5.9,2,11.5-10.69,3.59-.16-2.79-10.12,1l2.23-4.31c-5.52,3.94-1.63-3.17-8-2.21-1.71,2.8,3.95,6.55,6.28,9.93-4.86.3-.79-4-7.27-2l2.09,1.67c-1.46-.4-3.31-.37-3.23-1.43-4.53.93-.16,2.13.06,3.84a48.51,48.51,0,0,0,9.56-1.14,6.6,6.6,0,0,0-1.71.57,6.53,6.53,0,0,1,4.3,5.08h117c-3.07-5-5.85-8.81-4.76-12.77-1.14-.15,3.7-.24,4.5.55-4.95-3.13,9.77-8.35-.32-8.58l-.7,1.33c1.2-6.95-6.37-14.08-8.06-21.15,5.91-2,.85,4.07,7.88,2.2,2.07-5-3.18-9.76-1.39-15.23.77.84,1.48.61,1.88,1,3.65-5.5-6,.88-5.26-3.67,3,.11,3.7-.14,5.17-1.7l-4.85-1.11a14.45,14.45,0,0,1,6,.22c-6.4-1.72-2.3-7.88-8.26-9.25,1.5-.45,7.09.47,9.33-.23,1.69-2.44-.73-4-3-5.52-3,.06-2.95-.86-2.58-2a2.08,2.08,0,0,1,0-3.07c.83,1,.32,2.09,0,3.07a14.51,14.51,0,0,0,2.58,2h0c4.12-1.81,3.38-5.87,4.11-5,1.86-4.33-3.36-.58-7.06-3.76l-2.61,3.5-1.46-6,3,2.34c2.28-2.83-2.92-5.58-2.85-8.84L736,541.72,733.79,538c7.07-.47,1.52-4.77,9.72-2.84,3.41-6.75-5.32-11.09-6.21-17.22.29.64,1.53.35,2.52.55,1.57-3.65-2.06-5.88-5.69-8.13,2.2.48,2.92,1.36,4.8,1.4.15-4.34-4-2.69-6-7.54,2.94,1.39,4.46,1,5.24-.3a6.23,6.23,0,0,1-5.15-1.89c14,3.88,5.81-5.24,16.92-2.72-3-.29-9-7.87-14.65-5.91l1,1.33c-3.87.05-2.3-1.69-2.54-3-.84-1-1.23-1.86-.23-.55a1.1,1.1,0,0,1,.23.55,4,4,0,0,0,2.27,1.52c-4.48-7,.06-13.94-3.15-21.71,1.44.73,3.86,3.91,5.1,2,2.36-7.43-4.76-12.18-7.89-20,9,.17.87,8.3,9.39,9A120.7,120.7,0,0,0,731,436.94c13.3-2.23-4.86-9,5.7-13.76-4.43.22-5.86-2.61-5.8-5.57l-.09,0,.11-.43a10.21,10.21,0,0,1,1-4l-1,4a3.31,3.31,0,0,0,0,.45c3.52,1.25,3.8-1.86,6.33-.82-3.87-2.87-5.09-10.44,3.45-9.58-8.24-1.23.72-5.52-5-8a9.23,9.23,0,0,1-3.8,2l2.46-2.58a5.51,5.51,0,0,1,1.34.56c3.3-3.06-1.33-7.08,1.39-11-4.83,1-2.76-3.28-3.94-5.28a1.52,1.52,0,0,0,1.32.64c4.59-1-3.71-4.91-.92-7,1.94-.93,4.8.53,5.31-1.13-3.7-.26-7.74-6.61-3.09-8.65-.08,1,1.8,1.17,3.21,1.88-5.87-11.06,2.3-22.24-4.92-33.53l6.21,2.15c8.23-6.67-10.17-4.84-9.14-10.26,3.39-14.81,12.58-30.3,8.62-45-1.83-1.09-2.25.6-4.87.76.78-1.27,6-1.59,2.73-3.35l-3.38.36c9.19-6.65-6.09-19.39,8.24-24.33-5.38-6.45,3.9-11-4.2-18.83,3-2.47,5.81,2.88,6.66-.46l-5.27-7.27c-8.83-7,11.68-18.3,4.54-26.95l.5.38c2.33.2,5.17-1.61,4.37-3-1.66-.5-2.52.46-4.51,1.31-3.94-7.85-4.12-9.57-4.9-15.77,3.48,2.68,3-2.49,7.88-2.75-3.16-1.64-5,.93-7.68-2.7-.44-5.17,3.75-9.93,5.45-14.22-4.31-1.74-3.13-4-8.46-4.14-.3-5.84-2.43-9.09-2.37-16.26l1.83-.18c-6.66-1.93,3.38-6.21-.46-7.55,2.35.2,3.33,1,5.17.77l-2.14-3.26c2,1.54,8.31,2.42,9-.26-4.67-2.78-3.19.77-7-.59l6.16-.84c-.67-2.1-7.65-2.69-9.53-.12.08-7.17-2.88-14.25-1.85-20.64l4,.68c-1.49-3.54-1.45-8.32,2.08-10.42-1.18-.1-3.34-1-4.66-.4-5.07-3.92,5-1,1.68-4.19a5.64,5.64,0,0,0,3.66,1.91L737.53,91c3-.09,9.71-5.32,7.07-9-1.68-.14-4,.9-4.31,1.83l.64.93c-.6-.25-.76-.57-.64-.93l-1.49-2.33,7-1.8-6.13-3.37h-1.34l.17-.67,1.17.66,5.85-.06c-1.17-2.49-8.66-3.48-8.14-5.49,3.72-7.52,5.72-6,11.26-11.33-11.18-.61.41-8.51-7.6-9.87,8.4-7.14,3.31-17.48,5.72-26.84l1,.77c5.19-4-8.47-4.56-6.21-8.87l1.65,1.08c6-5.53.52-15.25-4.2-20.51,1.67,1.08,5.26.53,4.87-1.16-2.18-1.43-7.82,1.39-5.71-1.59,1.08.74,3.53.16,3.59-.52L736.16-11C740-18.61,744-27.6,740.78-35.53c2-1.47,4-.39,5.9,0-1.17-6.28-5.83-12.53-6.84-18.21l6.45-.57c0-2.78-9.88-1.72-4.13-5.34.87-.8.42,2.39,3.28,3.39,4.9-5.58-6.28-3.3-5.57-8.63l7.28,1.4c4.31-4.08-3.83-4.66-8.12-6.15-8.57-5.74,14-4.07,7.62-11.87-3.58-1.24-5.3.4-8.87-.83,1.88-5.49-3.27-6.15-1.4-11.65,10.86-2.93,0,2.8,10.15-.39l-2.46,4.18c5.73-3.6,1.45,3.28,7.89,2.72,1.86-2.7-3.58-6.82-5.72-10.34,4.87,0,.56,4.09,7.14,2.47l-2-1.81c1.43.49,3.28.58,3.14,1.64C759.11-96.21,754.81-97.69,754.69-99.41ZM636.64-55l-1.57-2.69,4.48.64Zm-8,681.22a26.17,26.17,0,0,0,4.72-1.47C634,629.25,632.41,625.61,628.65,626.24Zm113.8-39.44,1.56,2.72-4.48-.66ZM740.24-97.69c-.35-4.52,1-.78,4.79-1.17A25.79,25.79,0,0,0,740.24-97.69Z"/><path class="cls-6" d="M440.14-126.86v-2.36a40.33,40.33,0,0,1-7,1.59c3-4.84-3-7.78-3.66-11.22l5.15.11c-1-1.61-2.18-2.31-4.42-2.68l.08.68-2.63-1c1,.08,1.83.17,2.55.3l-.3-2.61c2,1.3,3.62,1.63,7.71,1.29-1.69-2.64-.79-6.62-7.66-6.56l1.14,0c2.06-4,2.71-11.92,5-11.94-2.66-3.72.63-9.26-6.08-8.52.47.51,1.54.86,3.72.95-2.3,0-7.51.47-7.36-.2a24.61,24.61,0,0,1,3.64-.75c-1.89-2.16,7.94-7.29-.69-7.87,4.12-3.41,1.8-.4,6.88-.19,2.44-2-.7-3.34-1.63-4.53H334.32c-.57,8,16.44,13.65,7.66,22.14l-2.11-.69c1.18,5.25-2.11-.69-5.16,3.17,6.87.65,5.39,6.63,7.94,9.64-1.42-.46-1.28-1.5-2.27-2.37-1.54.59-5.62.86-4.34,2.37,9.86,3.25,8.93,10.51,11.92,15.82-4.49.69-8.38,5.36-15.65,7.83,1.62.54,5.09,1.49,8.46,2.36a8.57,8.57,0,0,1,1.17-.71c.05.22.27.31.38.47-.23-1.16-.49-1.76-.85-1.48,4.29-2.2,3.47.1,8.7-.1-.17,1.76,1.69,5.36-2.27,5.81a5.49,5.49,0,0,1-1.41,2.85c.81.66,1.26,1.36.8,2.15l-.54-.34a7.79,7.79,0,0,0-1.65.47c-2.22,3.44,5.66,8.18,9.28,11-6.62-2.72-7.43.8-12.21.85.38.32.64-3.18.72-7.53a6.66,6.66,0,0,1-3.09.67c-5.05,3.82,4.53,6.38,1.05,11.89a4.58,4.58,0,0,0-3.42-.76c-1.33,1.94,2.51,3.7,5.37,4.11-4.68.53-8,4.71-5.93,6.75,3.87,1.76,5.65,1.49,5.28,4.76l-3.33-1.4c-2.61,3.72,4.25,3.17,2.47,5.94a1,1,0,0,1-.26.37,3.62,3.62,0,0,0,.26-.37c.32-.91-2.49-.89-3.09,0,1.87,4,3.68,4.08,10.32,6.91l-5.18-.49c3.12,3.39,9.51,9.79,2.49,9.93,10.78-1.18,5.73,7.42,5.55,10.4-.33-1-2.6-1.19-3.75-1.28,7.18,6.19.33,12.66.49,19l-7.85,1.07c.33,3.34,15.87,4.17,15.55,7.81L352-24.72c1.3,6.43.66,9-.65,14.25l-5.27-.06c2.46,1.84,2.45,4.17,4.92,6-12.76,4.33,6.84,16.82-7.41,24.7l9.83.43c-.19,3,1.79,6.78-5.57,8.22l.14-.66c-7.51-.25-.15,3-1.81,4.84.83,1.4,5.74,2.78,7.21,1.57-4.93,7.93.26,19.65-8.61,24.61,3.24,7.91,11.06,13.86,10.07,22.43l-1.16-.1c-1.31,2.89-4,8.68-12.16,8.68,1.92,6.16,13.18,10.07,9.55,17.43L348,106.06c-1.62,1.86,2.3,4.85,3.26,5.6-.17.65-1.79.17-2.94.08-2.8,1.76,1.62,2.8,2.43,4.21l-2.78-.57c-5.62,5.85,5.47,15.09,4.09,22.63-.82-1.39-3.94-.65-5.25-.09,9.13,3.1,6.94,11.58,9.05,14.74l-3.58-2c6,6.17-9.61,5.3-3.57,11.41l5.25-3.49c-1.55,2.49.2,4.6,4.27,4-3,2.88-7,.34-7.85,4.7-2.55.17-1.74-3.15-5.06-1.73l-6.8,6h0c5.21-4.17,6.51,3.14,11.19.37-3.05,3.46-9.14-.76-11.19-.37l-.53.43.47-.42c-.72.19-.9,1-.19,2.92,11.37-.48.6,5,11.68,2,.81,8.56-6.73,15.75-1.49,23.12-11.06,2.95-.49,14.56-14.72,13.74q-.22,6.21,8.42,10.12c1.13-.82-.66-1.89-1.36-2.74,3.61,1.11,4.18,6.11,4.11,8.2-3.22-2.76-6-7.19-11.4-9.36,1.35,3.78,6.65,9.07,8.4,11.19l-7.35.9c5.36,3.22-5.94,2.61,1.28,5.85l2.19-.58c-.56,5.82,6.75,6,7.65,11.39l-2.9-.26c-1.17,1.85,5.67,4.68-1,6.43l-.24-3.54c-5.13.31-7.42,3-10,4.18,1.31,3.76,8.37,1.41,9,3.29-4.81.75-2.58.17-7.3-1.18,1.68,4.21,3.66,9.87,9.79,12.91a5.12,5.12,0,0,1-1.82,0c-.91,4.34,7.74,8.29,3.61,10.91l-.71-.86c-7.08,3.4,6.59,9.12-5.51,9.68-2.26,1.62.53-3.74-5.44-1.17-3.88,5.13,10.1,3.56,6.63,8.07.39-.62-.35-.43-1.44-.66a52.41,52.41,0,0,0,2.53,11.36c.35-.14.66-.31,1.06-.44l-.79,1.23c-.09-.25-.17-.54-.27-.79-9.89,4.33,2.27,13.73-9.25,18.68,4.08-1.57,4.7,1.36,6.52,1.4a4.89,4.89,0,0,0-1.82,0c-.33,1.87,3.51,2.16,5.11,2.89a2.77,2.77,0,0,1,.64-.24c.47.57.28.85,0,1.16a1.56,1.56,0,0,1-.44.5,4.47,4.47,0,0,1,.44-.5c.2-.4-.11-.69-.63-.92-3.51,1.48,3.67,5.25,1.36,6.18,2.54.07,1.85,1.56,1.78,3.23-2.8-3.4-5.44-1.17-9.41-2.75-1.33,5,11.1,5.93,9,11.09L339.36,351c7.33.72,4.27,5.49,7,5.43a9.52,9.52,0,0,1,2.3-.58,6.52,6.52,0,0,1-2.3.58c-2.3.85-3.66,2.12-7.33,1.86,1.74,2.11-2.07,5.15,2.28,6.1l1.95-2c-2.87,6.37,7.59,10.44,2.61,15.28l-11-.33c-4.56,3.2,5.93,6.21-.78,8.92,3.7-.93,2.6-1.16,6.18,1,.78-1.23-2-3.59-1.93-5.66l6.37,4.54-3-6.94c4.27,3,3.19,2.8,7.65,1.69,3.46,4.25-5.35,4.4-1.13,8.46-1.54,1.41-5.48-.15-7.75,1.45,3.85,3.61-8,6.61-2.24,9.25-1.15.8-.31-1.47-2.88-1.31,1,2.31.56,3.94,3.84,4.65l1.24-1.94a2,2,0,0,1,.71-1.12l-.71,1.12c-.32,1.71,4.16,2,1.55,5.29,2.51,1.91,7.94,3,8,1,.7.83-2.28,2.62-5.58,1.95-.18,5.08,11.7,2.52,6.44,7.36.39.41.49.81-.1.11a.9.9,0,0,1,.1-.11,1.58,1.58,0,0,0-1.54-.51,2.85,2.85,0,0,0-.55,2.14,2.31,2.31,0,0,1,.43.92,2,2,0,0,1-.43-.92c-1.86-2.45-8.22,1.78-6.39-2.87-5.85.53-1.23,3.89-3.47,5.51,4,2.5,8.41.29,11.3,1.54-1.83,0-1.85,1-2.62,2.22l4.42-1.18a4.13,4.13,0,0,0,1,3.26l-1.78-2.05c-.78,2.22-7.83,5.68-3.53,9.55-1.81-1-5.41-3.06-7.66-.41,2.87,4.29-1.84,1-5.17,3.53,1,4.3,7.89.62,5.26,7,0,.69,2.57,0,3.78-.71a7.08,7.08,0,0,1,.4-.85c.47.18.16.51-.4.85-1.93,4.08.74,6.32-1.48,10.12,1-1.45,2.38-2.24,4.26-.2-3.65-.92-3.29,3.52-5.46,5.23l2.22.32c-2.34,1.39-3.34.06-4.18-1a1.34,1.34,0,0,1-1.36-.88c.53-.16.93.31,1.36.88.75,0,1.43-.4,1.21-1.17-1.82-2-10.26-.93-10.94,2.42,2.22,3.44,8.09,2.57,10.26,1.88-2.14,4.79,10.32,3.8,7.11,8.38,0,1-8.65,4.93-9.26,8.28,5.16,1.29,3.52-4.31,7.95-2.75-6.12,3.12-4,5.77-1.22,8.53s6.21,5.64,2.75,9.52l-6.24-.33c-.26,1.69-.54,3.36.3,5.15l3.15-2.75c1.53,1.51.65,5.52-4.14,4.7,5.32,3.26,2.46,4.34,1.19,8,.17-3.75.85-.15-2.58-2.54-2.68,4.19-.59,4.3,1,6.85-2.21-.22-5.42,1.54-5.33,2.58,4.16,2.13,3.7,6.55,6.1,9.89l-1.82.17c2.86,5.72-5.11,13,.8,18.5a2.43,2.43,0,0,0,.72-.4l.65-.95c.36-1.16-.27-2.45,1.75-2.47L341,542.47a1.52,1.52,0,0,1-.65.95l-.11.17c5.65-2.59,4.47,4.33,7,6-1.46.53-4,.93-4,2,5.48-.38,3,2.11,5.61,2.78-1.74,2.24-6.56.24-6.06,3.78.56,1.35,3.42,1.31,5.49,1a6.93,6.93,0,0,1,1.85-.41,9.88,9.88,0,0,1-1.85.41,8.76,8.76,0,0,0-5.3,5.31c-1.48-.55.33-1.7,0-2.1-2.93,0-1.8,1.15-5.47,1.37-.3,1.68,5.16.33,3.38,2.53l-4.44-1.64c-1,.9.82,1.84,1.17,2.24-1.12-1.2-5.5-.73-8.06-.39,3.43,4.59,11.71.2,16.47.14-3.15,4.81,2.77,8.09,3.2,11.68l-5.13-.42c.86,1.7,2.05,2.48,4.26,3l0-.7,2.57,1.17c-1-.14-1.82-.29-2.53-.47l.15,2.69c-1.89-1.46-3.52-1.9-7.62-1.82,1.55,2.78.38,6.74,7.24,7.21l-1.14-.07c-2.28,3.91-3.54,11.88-5.8,11.68,1.35,2.33.64,5.06,1.11,7h80.16c-3.11-3.23-5.13-6.59-1-10.93l2.14.58c-1.41-5.18,2.13.58,5-3.42-6.89-.3-5.67-6.34-8.36-9.21,1.44.39,1.34,1.44,2.38,2.25,1.51-.66,5.57-1.14,4.22-2.57-10-2.74-9.39-10-12.61-15.16,4.46-.92,8.14-5.76,15.29-8.6-1.65-.45-5.15-1.22-8.56-1.91a9.6,9.6,0,0,1-1.13.76c-.06-.21-.29-.29-.41-.45.28,1.14.57,1.74.92,1.44-4.19,2.4-3.48.07-8.69.53.1-1.75-1.92-5.24,2-5.89a5.51,5.51,0,0,1,1.28-2.92c-.84-.61-1.32-1.29-.89-2.1l.55.32a8.45,8.45,0,0,0,1.63-.56c2.05-3.55-6-7.86-9.77-10.47,6.74,2.39,7.39-1.16,12.16-1.45-.39-.31-.5,3.21-.38,7.54a6.69,6.69,0,0,1,3.05-.82c4.88-4.06-4.8-6.14-1.57-11.81a4.54,4.54,0,0,0,3.44.59c1.25-2-2.66-3.56-5.54-3.83,4.65-.77,7.82-5.1,5.64-7-4-1.57-5.71-1.21-5.48-4.5l3.38,1.25c2.45-3.84-4.38-3-2.71-5.82-.29.92,2.53.77,3.09-.12-2-3.92-3.85-3.91-10.6-6.44l5.2.26c-3.27-3.24-9.89-9.41-2.88-9.84-10.72,1.64-6-7.21-5.92-10.22.36,1,2.64,1.1,3.8,1.15-7.4-5.95-.75-12.73-1.09-19.09l7.82-1.31c-.44-3.34-16-3.74-15.74-7.43l3.8,1.2c-1.45-6.46-.87-9.12.36-14.42l5.27,0c-2.49-1.81-2.52-4.16-5-6,6.35-2.29,4.61-6.5,3-11.19s-2.88-9.89,4.23-13.84l-9.83-.47c.19-3-1.74-6.93,5.63-8.32l-.14.67c7.5.34.17-3,1.84-4.88-.82-1.43-5.69-2.92-7.19-1.7,2.55-4,2.56-9,3.09-13.62s1.6-8.85,6.11-11.19c-2.93-8.13-10.51-14.64-9-23.4l1.15.18c1.46-2.89,4.49-8.62,12.66-8-1.51-6.33-12.45-11.27-8.23-18.43l3,1.89c1.77-1.74-1.9-5.12-2.78-6,.22-.64,1.8,0,2.94.19,2.93-1.51-1.38-3-2.06-4.48l2.72.85c6.1-5.33-4.07-15.76-1.94-23.2.68,1.48,3.85,1.09,5.21.68-8.78-4.12-5.73-12.38-7.5-15.77l3.36,2.37c-5.31-6.85,10.1-4.16,4.74-10.95L412,275.24c1.81-2.3.29-4.6-3.82-4.5,3.32-2.51,7,.49,8.3-3.74,2.56.13,1.4,3.33,4.85,2.31l7.38-5.15h0c-5.61,3.51-6.14-3.88-11.08-1.7,3.39-3.06,9,1.84,11.08,1.7l.58-.36-.52.35c.74-.1,1-.83.5-2.87-11.36-.87-.08-5-11.4-3.38.08-8.55,8.32-14.78,3.84-22.62,11.32-1.68,1.89-14.26,16-11.94.55-4.08-2-7.72-7.51-10.84-1.19.69.5,1.92,1.13,2.83-3.51-1.46-3.66-6.42-3.42-8.46,3,3,5.36,7.64,10.59,10.34-1-3.88-5.88-9.62-7.46-11.86l7.39-.21c-5.07-3.67,6.14-2-.79-5.9l-2.24.38c1-5.69-6.22-6.46-6.71-11.86l2.88.5c1.28-1.74-5.36-5.06,1.38-6.26l0,3.51a13.93,13.93,0,0,0,7.29-1.89v-3.85c-2.44-.62-5.49-.34-5.83-1.56,4.27-.33,3-.06,5.83,1.17V176c-1.33-3.44-3.35-7.06-7.59-9.49a5.05,5.05,0,0,1,1.82.17c1.18-4.24-7.2-8.65-3-11l.66.88c7.24-2.95-6.16-9.33,5.95-9.24,1.69-1.07.58,1.32,2.14,1.89v-4.93c-2.44-.9-4.79-1.77-3-3.83-.42.59.32.44,1.41.71a51.06,51.06,0,0,0-2-11.33,9.54,9.54,0,0,1-1.07.39l.82-1.18c.08.25.16.54.25.79a6.78,6.78,0,0,0,3.66-2.82V110.17a2.22,2.22,0,0,0-.37-.09l.37.07v-1.73c-1.16-.5-2.71-.82-3.59-1.24a3.47,3.47,0,0,1-.65.23c-.45-.59-.26-.86,0-1.15a1.5,1.5,0,0,1,.45-.48,3.48,3.48,0,0,1-.45.48c-.2.39.1.68.61.92,3.55-1.37-3.54-5.26-1.2-6.13-2.55-.12-1.84-1.57-1.76-3.21,2.05,2.52,4.05,2,6.55,2.22v-3.7c-3.11-2-7.42-3.59-6.1-6.73l4.9-2.69c-7.31-.79-4.22-5.45-6.95-5.41a10.06,10.06,0,0,1-2.3.56,6.42,6.42,0,0,1,2.3-.56c2.31-.82,3.68-2.07,7.35-1.79-1.72-2.1,2.11-5.08-2.23-6l-2,2c3-6.3-7.64-10.27-2.67-15.06l7.66.17V52.38c-.48-.26-1.12-.67-2.16-1.28-.77,1.23,2.07,3.54,2,5.6l-6.41-4.44,3.06,6.84c-4.3-3-3.22-2.74-7.66-1.6-3.5-4.16,5.31-4.41,1.07-8.37,1.53-1.42,5.47.08,7.73-1.54-2.15-2,.57-3.82,2.39-5.51V38.51l-.27-.14a.72.72,0,0,1,.27-.13V35.45a6.84,6.84,0,0,0-1.29-.4l-1.2,2a2.07,2.07,0,0,1-.69,1.12l.69-1.12c.29-1.71-4.19-2-1.64-5.25-2.54-1.87-8-2.89-8.05-.86-.71-.82,2.24-2.65,5.55-2,.11-5.08-11.74-2.33-6.53-7.25-.4-.41-.5-.8.1-.12a.53.53,0,0,1-.1.12,1.6,1.6,0,0,0,1.55.49,2.88,2.88,0,0,0,.52-2.16,2.09,2.09,0,0,1-.43-.91,2.06,2.06,0,0,1,.43.91c1.89,2.42,8.2-1.9,6.42,2.77,5.85-.62,1.18-3.91,3.42-5.56-4-2.45-8.41-.17-11.31-1.38,1.83,0,1.85-1,2.61-2.26l-4.41,1.24a4.14,4.14,0,0,0-1.06-3.26l1.82,2c.74-2.25,7.71-5.8,3.37-9.66,1.82,1,5.45,3,7.67.33-2.2-3.22-.05-2.19,2.56-2.56V-1.7c-2.11-.59-4.42-.48-2.73-4.66,0-.69-2.57,0-3.77.74a7.08,7.08,0,0,1-.4.85c-.47-.18-.16-.52.4-.85,1.92-4.13-.72-6.38,1.5-10.21-1,1.44-2.4,2.23-4.24.17,3.66.94,3.26-3.56,5.45-5.27l-2.23-.35c2.35-1.39,3.34,0,4.19,1a1.34,1.34,0,0,1,1.35.9c-.53.16-.93-.31-1.35-.9-.75,0-1.44.4-1.22,1.18a4.62,4.62,0,0,0,3.05,1v-5.83a14.22,14.22,0,0,0-2.36.48c2.17-4.8-10.28-4-7-8.61,0-1,8.44-4.72,9.38-8v-.16c-5.05-1.39-3.59,4.26-8,2.58,12.43-6.05-8.18-10.74-1.05-18.23l6.22.54c.31-1.68.65-3.34-.14-5.16L434-57.86c-1.49-1.57-.48-5.53,4.28-4.55-5.21-3.43-2.31-4.4-.91-8-.3,3.73-.86.12,2.49,2.61l.31-.48v-4.86a11.7,11.7,0,0,1-1.09-1.5,5,5,0,0,0,1.09,0v-9a13.63,13.63,0,0,0-1.59-3.4l1.59-.11v-.68a8.3,8.3,0,0,1,0-4.61v-12.72c-.1-.1-.17-.2-.27-.3a2.12,2.12,0,0,0-.72.39l-.65.94c-.37,1.14.24,2.41-1.77,2.42l1.77-2.42a1.5,1.5,0,0,1,.65-.94l.11-.17c-5.65,2.54-4.49-4.24-7.06-5.82,1.45-.53,4-1,3.93-2-5.47.44-3-2-5.64-2.63,1.71-2.21,6.57-.36,6-3.82-.59-1.31-3.45-1.19-5.52-.83a7.62,7.62,0,0,1-1.84.44,10.17,10.17,0,0,1,1.84-.44,8.71,8.71,0,0,0,5.19-5.36c1.49.49-.29,1.68.1,2.06,2.39,0,2.05-.81,3.87-1.27V-126c-1.35-.14-2.92-.12-1.88-1.47ZM351,16.45l.32-1.31L353,17.93ZM341.34,237.7c-.74-.85,1.55-2.49,2-4.14C346.18,234.86,344.28,236.92,341.34,237.7ZM340.67,312l5.87-.48C348.29,313.69,341.71,313.33,340.67,312Zm.95,199.44c2.93-.07,3.92-2,4.76-.23Zm6.78-31.23-1.19-2.16,1.93,2.91Zm58-60.53-.31,1.33-1.66-2.83Zm30.45-294.34-5.88.25C429.29,123.47,435.85,124.07,436.85,125.38Zm-4.79,73.27c.68.9-1.74,2.31-2.29,3.9C427,201,429.07,199.16,432.06,198.65Zm-7.67-371.91c1.15,0,2.84-2.7,4.06-.43C426.9-171.67,426.39-172,424.39-173.26ZM437.26-73.5c-2.92,0-4,1.89-4.76.08Zm-7.71,31,1.13,2.23-1.84-3Z"/><path class="cls-3" d="M462.32,365c-.07.38.93.55,1.9.45a6.58,6.58,0,0,1,.16-1.62C463.54,364.32,463,365.19,462.32,365Z"/><path class="cls-3" d="M464.5,368.44c0-.21-.07-.53-.13-.92h-.06C464.42,368,464.47,368.25,464.5,368.44Z"/><path class="cls-3" d="M520.59,380.21v-.16c-.08-.27-.6-.44-1.91-.43l-.35.67c.56-3.43-3.6-6.79-4.59-10.24,3.09-1.1.51,2,4.19.94,1-2.53-1.85-4.76-1-7.49.41.4.78.27,1,.46,1.84-2.79-3.12.54-2.83-1.73,1.57,0,1.95-.13,2.71-.93l-2.58-.47a7.93,7.93,0,0,1,3.15,0c-3.39-.76-1.33-3.87-4.49-4.47.78-.25,3.75.13,4.92-.24.86-1.23-.43-2-1.66-2.7-1.6.06-1.57-.39-1.38-1a1,1,0,0,1,0-1.52c.44.46.18,1,0,1.52a6.82,6.82,0,0,0,1.38,1h0c2.15-.95,1.74-2.94,2.13-2.53,1-2.16-1.77-.26-3.76-1.81l-1.34,1.76-.82-3L515,349c1.18-1.42-1.59-2.75-1.56-4.36l-1.8.79-1.16-1.82c3.73-.27.8-2.37,5.13-1.46,1.76-3.35-2.88-5.45-3.35-8.47.15.32.81.17,1.33.26.83-1.81-1.1-2.88-3-4,1.17.22,1.55.65,2.55.66.05-2.13-2.13-1.3-3.24-3.67,1.56.67,2.36.47,2.77-.17a3.4,3.4,0,0,1-2.73-.9c7.41,1.83,3-2.6,8.92-1.43-1.58-.13-4.77-3.81-7.76-2.8l.55.64c-2.05.05-1.23-.81-1.37-1.46-.45-.48-.66-.9-.12-.27a.47.47,0,0,1,.12.27,2.15,2.15,0,0,0,1.21.72c-2.41-3.36-.08-6.81-1.87-10.55.77.34,2.08,1.86,2.71.91,1.16-3.66-2.67-5.87-4.46-9.6,4.74-.08.6,4,5.11,4.24A53,53,0,0,0,508,294.24c7-1.39-2.75-4.27,2.7-6.87-2.32.22-3.14-1.13-3.18-2.59h-.05l.06-.22a4.8,4.8,0,0,1,.44-2l-.44,2a1.7,1.7,0,0,0,0,.22c1.89.53,2-1,3.32-.55-2.1-1.32-2.93-5,1.59-4.8-4.37-.4.25-2.75-2.83-3.84a4.9,4.9,0,0,1-2,1.09l1.24-1.33a3.18,3.18,0,0,1,.72.24c1.66-1.59-.87-3.47.48-5.47-2.53.61-1.52-1.57-2.19-2.54a.79.79,0,0,0,.71.29c2.4-.57-2.06-2.35-.62-3.47,1-.51,2.54.15,2.77-.68-2-.05-4.2-3.14-1.79-4.25,0,.53,1,.55,1.73.88-3.31-5.43.86-11.13-3.05-16.67l3.29,1c4.28-3.4-5.41-2.3-4.91-5,1.65-7.44,6.47-15.15,4.35-22.44-1-.53-1.19.31-2.57.39.41-.63,3.18-.8,1.43-1.66l-1.78.18c4.84-3.3-3.22-9.6,4.34-12-2.83-3.19,2.06-5.42-2.2-9.29,1.59-1.21,3.06,1.43,3.51-.22L510.29,191c-4.66-3.47,6.18-9,2.41-13.27l.26.18c1.23.1,2.73-.79,2.3-1.49-.87-.25-1.33.23-2.38.65-2.08-3.87-2.17-4.71-2.59-7.77,1.84,1.32,1.59-1.22,4.15-1.36-1.67-.8-2.65.47-4.05-1.32-.24-2.54,2-4.89,2.86-7-2.27-.85-1.65-2-4.47-2-.17-2.88-1.3-4.47-1.28-8l1-.09c-3.52-.94,1.77-3.07-.26-3.72a16.57,16.57,0,0,0,2.73.37l-1.13-1.6c1.06.75,4.39,1.17,4.76-.15-2.47-1.36-1.68.39-3.69-.27l3.25-.43c-.36-1-4-1.31-5,0,0-3.53-1.55-7-1-10.16l2.13.33c-.79-1.74-.79-4.09,1.07-5.14-.62,0-1.76-.46-2.46-.18-2.69-1.91,2.62-.49.88-2.07a3,3,0,0,0,1.93.93L509,123.15c1.58-.06,5.11-2.65,3.71-4.44a2.76,2.76,0,0,0-2.27.92l.34.45c-.32-.12-.4-.28-.34-.45l-.8-1.15,3.68-.9-3.24-1.64h-.71l.08-.34.63.33,3.08,0c-.63-1.22-4.58-1.68-4.32-2.67,1.94-3.72,3-3,5.9-5.63-5.89-.25.19-4.19-4-4.83,4.41-3.55,1.67-8.62,2.91-13.24l.52.37c2.72-2-4.49-2.21-3.32-4.34l.88.52c3.12-2.75.21-7.51-2.31-10.08.89.52,2.78.24,2.57-.59-1.16-.7-4.12.72-3-.76.58.36,1.87.06,1.9-.27L507.86,73c2-3.79,4.05-8.24,2.31-12.12,1-.74,2.1-.22,3.12-.06-.65-3.09-3.14-6.14-3.71-8.93l3.4-.32c0-1.36-5.22-.79-2.21-2.6.46-.4.24,1.17,1.75,1.65,2.55-2.78-3.33-1.59-3-4.22l3.84.65c2.26-2-2-2.28-4.31-3-4.56-2.77,7.38-2.08,3.95-5.89-1.9-.59-2.79.23-4.69-.36,1-2.71-1.75-3-.8-5.72,5.71-1.52,0,1.37,5.36-.26l-1.28,2.07c3-1.81.79,1.61,4.18,1.29,1-1.34-1.93-3.33-3.08-5.06,2.57,0,.32,2,3.78,1.18l-1.06-.88c.76.23,1.73.27,1.67.79,2.41-.35.13-1.05.06-1.9a27.89,27.89,0,0,0-5.07.32,3.54,3.54,0,0,0,.92-.23c-3.71-1.7-1-4.68-3.91-6.14a2.63,2.63,0,0,0,1.59-.06c.14-1.06-3.27-2.1-4.26-3.5,1.88-.8,5.66.38,4.59-1.88-2.13-.37-5.81.68-5.75-1.22,0,0,1.75,1.64,3.24.73-1.51-1.84.68-.61,3.07-2.34-3-.93,1-1.87-3.86-2,3.24-.65,2-.47,4.36-1.67-2.64.55-2.66-2.19-5.84-2.07,3.63-.53,4.48,1.93,8.24.35-2.43-1-3.35-3-7.27-3.07.86-.79,2.23-1.18,2.65-2.36,0,.18.62.36.95.46-1.65-1.35-1.28-3.14-1.9-4.59H459.59V3c.4.11.85.21,1.38.31l.82-.65-1.28,2.43.07-.1a4.51,4.51,0,0,1,.92-1.32L460.58,5c-.32.77,0,1-1,1.73V14a3.8,3.8,0,0,0,.9-.05,2.11,2.11,0,0,1,.7-.31,1.77,1.77,0,0,1-.7.31l-.9.56v1.6a5.33,5.33,0,0,1,1.64-.44L462.69,19c0,.38-1.19-.22-1.24-.7-6.18,4.37,5.88,7.84-1.64,12.78,2-.61,1.78.24,3.16.61-.55,1.5.07,3.7-1.07,5.12l-1.39-.37c1.84,3.41,4.11,5.73,3.37,8.08a5.12,5.12,0,0,1-2.37-.33c2.58,1.59-5.23,4,.09,4.22l.38-.65c-.7,3.41,3.27,7,4.07,10.43-3.14,1-.41-2-4.13-1.12-1.16,2.46,1.6,4.81.64,7.48-.41-.42-.78-.3-1-.5-1.94,2.69,3.14-.41,2.76,1.81-1.56-.06-1.95.07-2.73.83l2.55.55a8.14,8.14,0,0,1-3.14-.12c3.36.86,1.21,3.88,4.36,4.54-.79.22-3.74-.22-4.92.13-.89,1.2.4,2,1.61,2.7,1.6,0,1.56.41,1.37,1a1,1,0,0,1,0,1.51c-.45-.47-.18-1,0-1.51a7.13,7.13,0,0,0-1.37-1,0,0,0,0,1,0,0c-2.16.91-1.76,2.9-2.15,2.49-1,2.14,1.77.27,3.75,1.81L465,77l.82,2.95-1.58-1.13c-1.17,1.4,1.6,2.71,1.6,4.3l1.78-.79,1.17,1.78c-3.72.29-.78,2.34-5.11,1.48C461.93,89,466.61,91,467.15,94a.31.31,0,0,1,0,.17c0-.05,0-.11,0-.17-.16-.31-.81-.14-1.33-.22-.8,1.81,1.17,2.83,3.13,3.85-1.17-.19-1.56-.61-2.56-.59,0,2.12,2.17,1.23,3.35,3.53-1.58-.6-2.38-.38-2.76.27a3.43,3.43,0,0,1,2.76.8c-7.48-1.57-3,2.69-8.86,1.73,1.57.08,4.91,3.62,7.85,2.51l-.57-.62c2-.13,1.26.76,1.43,1.4.47.45.69.87.13.26a.38.38,0,0,1-.13-.26,2.15,2.15,0,0,0-1.25-.67c2.54,3.25.39,6.77,2.31,10.44-.78-.3-2.14-1.77-2.74-.8-1,3.71,2.88,5.77,4.8,9.46-4.73.26-.74-4-5.26-4.07a54.19,54.19,0,0,0,5.35,12.22c-6.91,1.63,2.9,4.22-2.47,7,2.32-.29,3.19,1.05,3.27,2.51h0l0,.22a4.76,4.76,0,0,1-.38,2l.38-2a.89.89,0,0,0,0-.23c-1.9-.48-1.92,1.07-3.29.66,2.16,1.26,3.05,5-1.47,4.87,4.38.28-.19,2.76,2.92,3.78a4.83,4.83,0,0,1,1.93-1.14l-1.21,1.37a3.21,3.21,0,0,1-.72-.23c-1.63,1.64.94,3.47-.37,5.52,2.52-.68,1.56,1.54,2.25,2.5a2.93,2.93,0,0,1,.25.25.85.85,0,0,1-.25-.25.83.83,0,0,0-.72-.28c-2.38.63,2.11,2.33.7,3.49-1,.53-2.54-.11-2.76.74,2,0,4.27,3.08,1.88,4.23,0-.52-1-.53-1.75-.85,1.7,2.7,1.54,5.51,1.45,8.32s-.14,5.64,1.84,8.41l-3.3-1c-4.25,3.47,5.44,2.26,5,5-1.62,7.51-6.32,15.28-4.24,22.59,1,.54,1.19-.3,2.57-.39-.41.64-3.18.8-1.44,1.68l1.79-.19c-4.85,3.31,3.19,9.67-4.38,12.09,2.82,3.22-2.09,5.43,2.16,9.35-1.6,1.21-3.06-1.46-3.51.19l2.75,3.63c4.62,3.53-6.28,9-2.56,13.29l-.26-.19c-1.23-.12-2.74.76-2.33,1.47.87.26,1.33-.21,2.39-.62,2,3.91,2.11,4.76,2.48,7.83-1.82-1.35-1.61,1.21-4.17,1.3,1.66.83,2.65-.42,4,1.39.2,2.56-2,4.88-3,7,2.25.89,1.61,2,4.42,2.11.11,2.89,1.2,4.52,1.11,8.06l-1,.07c3.49,1-1.84,3,.17,3.74-1.24-.12-1.74-.51-2.72-.43l1.1,1.63c-1-.78-4.36-1.28-4.76,0,2.43,1.42,1.68-.35,3.68.36l-3.26.36c.33,1,4,1.4,5,.15-.1,3.54,1.39,7.07.79,10.22l-2.12-.38c.76,1.76.7,4.13-1.19,5.12.63.06,1.75.52,2.46.25,2.63,2-2.64.42-.94,2.05l.16.15c.11.09.21.18.36.29-.13-.09-.24-.19-.36-.29l-.16-.15a3.05,3.05,0,0,0-1.91-1l2.51,4.31c-1.58,0-5.18,2.51-3.83,4.34a2.74,2.74,0,0,0,2.29-.85l-.32-.47c.31.13.39.29.32.47l.77,1.17-3.71.8,3.2,1.74h.71l-.1.33-.61-.34-3.09,0c.59,1.24,4.53,1.82,4.24,2.8-2,3.68-3.09,2.9-6.07,5.46,5.89.44-.31,4.2,3.9,5-4.51,3.42-2,8.59-3.35,13.17l-.51-.39c-2.79,1.9,4.4,2.36,3.16,4.46l-.86-.55c-3.22,2.65-.47,7.52,1.95,10.18-.87-.55-2.77-.34-2.59.5,1.14.74,4.15-.57,3,.87-.56-.38-1.86-.13-1.91.21l2.9,1.52c-2.11,3.72-4.35,8.09-2.77,12.05-1.06.69-2.11.13-3.12-.07.53,3.12,2.9,6.27,3.35,9.09l-3.41.18c0,1.37,5.18,1,2.1,2.7-.47.38-.18-1.19-1.68-1.72-2.66,2.68,3.27,1.72,2.81,4.34l-3.82-.8c-2.33,2,2,2.36,4.2,3.16,4.44,3-7.46,1.79-4.19,5.74,1.87.66,2.8-.12,4.67.55-1.07,2.67,1.63,3.08.56,5.76-5.77,1.28.05-1.38-5.36,0l1.36-2c-3.07,1.69-.71-1.64-4.12-1.46-1,1.3,1.79,3.41,2.87,5.19-2.57-.08-.24-2-3.74-1.34l1,.93c-.75-.27-1.72-.34-1.64-.86a5.68,5.68,0,0,0-.65.1v1a1.4,1.4,0,0,1,.51.81,27.87,27.87,0,0,0,5.08-.12,3.82,3.82,0,0,0-.92.2,4.23,4.23,0,0,1,1.31,1h53.12a4.21,4.21,0,0,1,1.9-2.85v-.25c-1.35.31-1.37-.38-2.61-.67.51-1.49-.19-3.63.91-5.08l1.4.31c-2-3.31-4.34-5.48-3.71-7.85a5.08,5.08,0,0,1,2.38.21C517.09,382.79,520.39,381.1,520.59,380.21Zm-5-12.44.87,1.31-2.37-.24ZM512.06,29.61a13.84,13.84,0,0,0-2.52.61C509.33,28,510.07,29.83,512.06,29.61ZM464.11,60.36,463.3,59l2.36.35Zm1.1,338.44a14.83,14.83,0,0,0,2.54-.5C467.87,400.53,467.21,398.67,465.21,398.8Z"/><path class="cls-7" d="M489.94,199.41c.17.08.22.23.31.36l-.06-.32Z"/><path class="cls-8" d="M454,28.11v-1.2a21.94,21.94,0,0,1-3.78.81c1.63-2.45-1.62-3.94-2-5.68l2.77.06a3,3,0,0,0-2.38-1.36l.05.34-1.41-.49c.52,0,1,.08,1.36.15l-.15-1.33c1.06.66,1.94.83,4.14.66-.91-1.34-.43-3.35-4.12-3.32h.61c1.11-2,1.46-6,2.68-6-1.42-1.88.35-4.69-3.26-4.32.25.26.83.44,2,.49-1.24,0-4,.24-4-.1a13.94,13.94,0,0,1,2-.39c-1-1.09,4.27-3.68-.37-4,2.21-1.73,1-.2,3.7-.09,1.31-1-.38-1.7-.88-2.3H397.11c-.31,4.06,8.84,6.91,4.12,11.21l-1.13-.35c.63,2.66-1.14-.35-2.78,1.61,3.69.33,2.9,3.36,4.27,4.88-.76-.23-.69-.76-1.22-1.2-.83.3-3,.44-2.33,1.2,5.3,1.64,4.8,5.32,6.4,8-2.41.35-4.5,2.72-8.41,4,.88.27,2.74.75,4.55,1.19a5.63,5.63,0,0,1,.63-.36c0,.11.14.16.2.24-.12-.59-.26-.89-.45-.75,2.3-1.11,1.86.05,4.68,0-.1.89.9,2.71-1.23,2.94a2.78,2.78,0,0,1-.75,1.45c.43.33.67.68.42,1.09l-.29-.18a4.67,4.67,0,0,0-.88.24c-1.19,1.74,3,4.14,5,5.55-3.56-1.38-4,.41-6.57.43.21.17.34-1.61.39-3.81a3.81,3.81,0,0,1-1.66.34c-2.72,1.93,2.43,3.23.56,6a2.54,2.54,0,0,0-1.83-.39c-.72,1,1.34,1.88,2.88,2.08-2.52.27-4.32,2.39-3.19,3.42,2.09.9,3,.76,2.84,2.42l-1.79-.71c-1.4,1.88,2.29,1.6,1.33,3a.54.54,0,0,1-.14.19.85.85,0,0,0,.14-.19c.17-.46-1.34-.45-1.66,0,1,2,2,2.07,5.55,3.5L402,56.73c1.68,1.72,5.12,5,1.34,5,5.8-.6,3.08,3.75,3,5.26-.17-.51-1.39-.6-2-.64,3.86,3.13.18,6.41.26,9.61l-4.22.55c.18,1.69,8.53,2.11,8.36,3.95l-2-.65a12.39,12.39,0,0,1-.35,7.21l-2.83,0c1.32.94,1.31,2.12,2.64,3.06-6.86,2.19,3.68,8.52-4,12.51l5.28.22c-.1,1.5,1,3.43-3,4.16l.07-.34c-4-.13-.08,1.51-1,2.46.45.7,3.08,1.4,3.88.79-2.65,4,.14,10-4.63,12.46,1.74,4,5.94,7,5.41,11.36l-.62,0c-.71,1.46-2.14,4.4-6.54,4.4,1,3.11,7.09,5.1,5.13,8.82l-1.68-.8c-.87.94,1.24,2.46,1.75,2.83-.09.33-1,.09-1.58,0-1.5.89.88,1.41,1.31,2.13l-1.5-.29c-3,3,2.95,7.64,2.2,11.46-.44-.7-2.11-.33-2.82-.05,4.91,1.57,3.73,5.87,4.86,7.47l-1.92-1c3.22,3.12-5.17,2.68-1.92,5.78l2.83-1.77c-.84,1.26.1,2.33,2.29,2-1.63,1.46-3.74.17-4.22,2.38-1.37.09-.93-1.59-2.72-.87l-3.66,3h0c2.8-2.11,3.5,1.59,6,.19-1.64,1.75-4.92-.39-6-.19l-.29.22.26-.21c-.39.09-.49.47-.1,1.48,6.11-.25.32,2.53,6.28,1,.43,4.33-3.62,8-.81,11.7-5.94,1.5-.26,7.38-7.91,7q-.12,3.15,4.53,5.13c.61-.42-.36-1-.73-1.39,1.94.56,2.24,3.1,2.21,4.15-1.73-1.39-3.21-3.64-6.13-4.74.73,1.92,3.57,4.6,4.51,5.67l-3.95.46c2.88,1.63-3.19,1.32.69,3l1.18-.3c-.3,3,3.63,3,4.11,5.77l-1.56-.13c-.63.94,3.05,2.37-.53,3.26l-.13-1.8c-2.76.16-4,1.52-5.39,2.12.71,1.91,4.5.72,4.86,1.67-2.59.38-1.39.09-3.92-.6.89,2.13,2,5,5.26,6.54a3,3,0,0,1-1,0c-.49,2.2,4.16,4.2,1.94,5.52l-.38-.43c-3.81,1.72,3.54,4.61-3,4.9-1.22.82.28-1.9-2.93-.59-2.08,2.59,5.43,1.8,3.56,4.08.21-.31-.18-.21-.77-.33a25,25,0,0,0,1.36,5.75c.19-.07.35-.16.57-.22l-.42.62c-.05-.12-.1-.27-.15-.4-5.32,2.19,1.22,7-5,9.46,2.19-.79,2.52.69,3.5.71a3,3,0,0,0-1,0c-.17.95,1.89,1.1,2.75,1.47a1.73,1.73,0,0,1,.35-.13c.25.29.15.44,0,.59a.73.73,0,0,1-.23.25,2.84,2.84,0,0,1,.23-.25c.11-.2-.06-.35-.34-.46-1.89.74,2,2.65.73,3.13,1.37,0,1,.79,1,1.63-1.51-1.72-2.92-.59-5.06-1.39-.71,2.51,6,3,4.86,5.61l-2.63,1.41c3.94.37,2.3,2.78,3.77,2.75a5.3,5.3,0,0,1,1.23-.29,3.59,3.59,0,0,1-1.23.29c-1.24.43-2,1.08-3.94.94.93,1.07-1.12,2.61,1.22,3.09l1.05-1c-1.54,3.23,4.08,5.29,1.4,7.75l-5.91-.17c-2.45,1.62,3.19,3.14-.42,4.51,2-.47,1.4-.59,3.33.52.42-.63-1.1-1.82-1-2.87l3.42,2.3-1.61-3.52c2.3,1.54,1.72,1.42,4.11.86,1.87,2.15-2.87,2.23-.61,4.28-.82.72-2.94-.07-4.16.74,2.07,1.83-4.3,3.34-1.2,4.68-.62.4-.17-.74-1.55-.66.54,1.17.3,2,2.06,2.35l.67-1a1,1,0,0,1,.38-.56l-.38.56c-.17.87,2.23,1,.83,2.68,1.35,1,4.27,1.53,4.32.5.37.42-1.23,1.33-3,1-.1,2.57,6.29,1.28,3.46,3.73.21.21.27.4,0,0l0,0a.9.9,0,0,0-.83-.26,1.36,1.36,0,0,0-.29,1.08,1.22,1.22,0,0,1,.23.47.9.9,0,0,1-.23-.47c-1-1.24-4.42.9-3.44-1.45-3.15.27-.66,2-1.86,2.79,2.12,1.27,4.52.15,6.07.78-1,0-1,.51-1.41,1.12l2.38-.6a2,2,0,0,0,.54,1.66l-1-1c-.41,1.12-4.2,2.87-1.89,4.83-1-.51-2.91-1.55-4.12-.2,1.54,2.17-1,.52-2.78,1.78.55,2.18,4.24.32,2.83,3.55,0,.34,1.38,0,2-.37a2.93,2.93,0,0,1,.22-.43c.25.1.08.26-.22.43-1,2.07.4,3.2-.8,5.13.56-.73,1.28-1.13,2.3-.1-2-.47-1.77,1.78-2.94,2.65l1.19.16a1.53,1.53,0,0,1-2.25-.49.69.69,0,0,1-.72-.44c.28-.09.49.15.72.44.41,0,.77-.2.66-.59-1-1-5.52-.47-5.89,1.22,1.2,1.75,4.35,1.31,5.52,1-1.15,2.42,5.55,1.92,3.82,4.24,0,.5-4.65,2.5-5,4.19,2.77.66,1.88-2.18,4.27-1.39-3.29,1.58-2.15,2.93-.66,4.32s3.34,2.86,1.48,4.82l-3.35-.16a3.94,3.94,0,0,0,.16,2.61l1.69-1.4c.82.77.35,2.8-2.23,2.38,2.86,1.65,1.33,2.2.65,4.05.08-1.9.45-.08-1.39-1.29-1.44,2.13-.32,2.18.55,3.47-1.19-.11-2.92.78-2.87,1.31,2.24,1.08,2,3.31,3.28,5l-1,.09c1.54,2.9-2.75,6.58.43,9.37a1.1,1.1,0,0,0,.39-.2l.35-.48c.19-.59-.15-1.24.94-1.25l-.94,1.25a.82.82,0,0,1-.35.48l-.06.09c3-1.32,2.4,2.19,3.77,3-.79.26-2.15.47-2.13,1,2.95-.19,1.62,1.08,3,1.42-.94,1.13-3.53.11-3.26,1.91.3.68,1.83.66,2.95.5a4,4,0,0,1,1-.2,5.64,5.64,0,0,1-1,.2,4.59,4.59,0,0,0-2.85,2.69c-.8-.27.18-.86,0-1.06-1.57,0-1,.58-2.94.69-.16.86,2.78.17,1.82,1.29l-2.39-.84c-.56.46.45.94.63,1.14-.6-.61-3-.37-4.33-.2,1.84,2.32,6.29.1,8.85.07-1.69,2.44,1.49,4.1,1.72,5.92l-2.76-.21a3,3,0,0,0,2.3,1.52l0-.36,1.37.6c-.51-.07-1-.15-1.35-.24l.08,1.36c-1-.74-1.9-1-4.1-.92.83,1.41.2,3.41,3.89,3.65l-.61,0c-1.23,2-1.91,6-3.12,5.91.73,1.18.35,2.56.6,3.52h43.09c-1.67-1.64-2.76-3.34-.55-5.54l1.14.3c-.75-2.62,1.15.29,2.7-1.73-3.7-.16-3-3.21-4.49-4.66.77.19.72.72,1.27,1.13.82-.33,3-.57,2.28-1.3-5.38-1.39-5-5.07-6.78-7.68,2.39-.46,4.37-2.91,8.21-4.35-.88-.23-2.77-.62-4.6-1a5,5,0,0,1-.61.39c0-.11-.15-.15-.22-.23.16.58.31.88.5.72-2.25,1.22-1.87,0-4.67.28.05-.89-1-2.66,1.08-3a2.71,2.71,0,0,1,.68-1.47c-.45-.32-.71-.66-.47-1.07l.29.16a4.84,4.84,0,0,0,.88-.28c1.1-1.8-3.24-4-5.25-5.3,3.62,1.21,4-.59,6.53-.74-.21-.15-.26,1.63-.2,3.82a3.91,3.91,0,0,1,1.64-.42c2.62-2.05-2.58-3.1-.84-6a2.55,2.55,0,0,0,1.85.29c.67-1-1.44-1.8-3-1.94,2.5-.38,4.2-2.58,3-3.56-2.12-.8-3.07-.61-3-2.28l1.82.63c1.32-1.94-2.35-1.5-1.46-2.95-.15.47,1.36.39,1.66-.05-1.09-2-2.06-2-5.7-3.26l2.8.12c-1.76-1.64-5.31-4.76-1.54-5-5.77.83-3.24-3.65-3.19-5.17.2.51,1.42.55,2,.58-4-3-.4-6.45-.58-9.67l4.2-.66c-.23-1.69-8.59-1.9-8.46-3.77l2,.61a12.37,12.37,0,0,1,.2-7.3l2.83,0c-1.34-.92-1.36-2.11-2.7-3,3.42-1.16,2.48-3.3,1.64-5.67s-1.55-5,2.27-7l-5.28-.24c.1-1.53-.94-3.51,3-4.21l-.08.34c4,.17.1-1.53,1-2.48-.45-.72-3.07-1.47-3.87-.85,1.37-2,1.38-4.57,1.66-6.9s.86-4.48,3.28-5.67c-1.57-4.11-5.64-7.41-4.84-11.85l.62.09c.78-1.46,2.41-4.37,6.81-4.05-.81-3.21-6.7-5.71-4.43-9.34l1.61,1c.95-.88-1-2.59-1.5-3,.12-.33,1,0,1.58.09,1.58-.76-.74-1.51-1.1-2.27l1.46.43c3.28-2.7-2.19-8-1-11.75.36.76,2.06.56,2.8.35-4.72-2.09-3.08-6.27-4-8l1.8,1.2c-2.85-3.47,5.43-2.11,2.55-5.54l-3,1.44c1-1.16.15-2.32-2.06-2.28,1.79-1.26,3.75.25,4.47-1.89,1.37.07.75,1.69,2.6,1.17l4-2.6h0c-3,1.78-3.3-2-5.95-.86,1.82-1.55,4.84.93,5.95.86l.31-.18-.27.18c.39,0,.53-.42.26-1.45-6.1-.44,0-2.55-6.13-1.72,0-4.33,4.48-7.48,2.07-11.45,6.08-.85,1-7.22,8.58-6,.29-2.07-1.07-3.91-4-5.49-.64.35.27,1,.61,1.43-1.89-.74-2-3.25-1.84-4.28,1.6,1.52,2.88,3.87,5.69,5.24-.56-2-3.16-4.87-4-6l4-.1c-2.73-1.86,3.3-1-.43-3l-1.2.19c.55-2.88-3.35-3.27-3.61-6l1.55.26c.69-.88-2.88-2.57.74-3.17v1.77a7.82,7.82,0,0,0,3.92-1V183.4c-1.31-.32-2.95-.17-3.14-.79,2.3-.17,1.63,0,3.14.59v-1.73a9,9,0,0,0-4.08-4.8,2.85,2.85,0,0,1,1,.08c.63-2.14-3.87-4.38-1.6-5.55l.35.44c3.89-1.49-3.31-4.72,3.2-4.68.91-.54.31.67,1.15,1v-2.5c-1.31-.45-2.58-.89-1.63-1.94-.22.3.18.22.76.37a23.94,23.94,0,0,0-1.1-5.74c-.19.06-.35.14-.57.2l.44-.6c0,.13.08.27.13.4a3.58,3.58,0,0,0,2-1.43v-8.53a.71.71,0,0,0-.2,0l.2,0v-.88c-.62-.25-1.46-.41-1.93-.62a1.82,1.82,0,0,1-.35.11c-.24-.29-.14-.43,0-.58a1.06,1.06,0,0,1,.24-.25,1.43,1.43,0,0,1-.24.25c-.11.2.05.34.33.47,1.91-.7-1.91-2.67-.65-3.11-1.37-.06-1-.79-.94-1.62,1.1,1.27,2.17,1,3.52,1.12v-1.87c-1.67-1-4-1.82-3.28-3.41l2.64-1.36c-3.94-.4-2.27-2.76-3.74-2.75a5.4,5.4,0,0,1-1.24.29,3.89,3.89,0,0,1,1.24-.29c1.24-.41,2-1,3.95-.9-.93-1.06,1.14-2.58-1.2-3.05l-1.06,1c1.59-3.19-4.1-5.2-1.43-7.63l4.12.09v-4.28c-.26-.13-.6-.34-1.16-.64-.41.62,1.11,1.79,1.06,2.83l-3.44-2.25,1.64,3.47c-2.31-1.51-1.73-1.39-4.12-.81-1.88-2.11,2.86-2.24.58-4.24.82-.72,2.94,0,4.15-.78-1.15-1,.31-1.94,1.29-2.79v-1.81l-.14-.07a.45.45,0,0,1,.14-.07v-1.41a3.18,3.18,0,0,0-.69-.2l-.65,1a1,1,0,0,1-.37.57l.37-.57c.16-.87-2.25-1-.88-2.66-1.37-.94-4.3-1.47-4.33-.43-.38-.42,1.21-1.35,3-1,.05-2.57-6.32-1.18-3.52-3.68-.21-.2-.26-.4.06-.06,0,0,0,0-.06.06a.89.89,0,0,0,.84.25,1.42,1.42,0,0,0,.28-1.09,1.18,1.18,0,0,1-.24-.46,1,1,0,0,1,.24.46c1,1.23,4.41-1,3.45,1.4,3.15-.31.64-2,1.84-2.81-2.14-1.24-4.52-.09-6.08-.7,1,0,1-.53,1.4-1.15l-2.37.63a2,2,0,0,0-.57-1.65l1,1c.39-1.13,4.14-2.93,1.81-4.89,1,.51,2.93,1.54,4.12.17-1.18-1.63,0-1.11,1.38-1.3v-1.7c-1.13-.3-2.38-.23-1.47-2.36,0-.34-1.38,0-2,.38a4.19,4.19,0,0,1-.21.43c-.25-.09-.09-.26.21-.43,1-2.09-.38-3.23.81-5.17-.55.73-1.29,1.13-2.28.09,2,.47,1.75-1.81,2.93-2.67l-1.19-.18a1.52,1.52,0,0,1,2.24.51.72.72,0,0,1,.73.45c-.28.09-.5-.16-.73-.45-.4,0-.77.2-.65.6a2.57,2.57,0,0,0,1.64.5v-3a8.12,8.12,0,0,0-1.27.25c1.17-2.44-5.53-2-3.78-4.37,0-.5,4.55-2.38,5.05-4.05V72c-2.72-.7-1.93,2.16-4.28,1.31,6.67-3.06-4.4-5.44-.57-9.23l3.35.27a4,4,0,0,0-.08-2.61l-1.74,1.34c-.8-.8-.26-2.81,2.3-2.31-2.8-1.74-1.24-2.23-.49-4-.16,1.89-.46.06,1.34,1.33l.17-.25V55.32a5.76,5.76,0,0,1-.59-.76,2.91,2.91,0,0,0,.59,0V50a7.06,7.06,0,0,0-.85-1.72l.85-.06V47.9a4,4,0,0,1,0-2.34V39.12c-.05,0-.09-.1-.15-.15a1.35,1.35,0,0,0-.38.19l-.35.48c-.2.58.13,1.22-1,1.23l1-1.23a.78.78,0,0,1,.35-.48l.06-.08c-3,1.29-2.42-2.14-3.8-2.95.78-.26,2.15-.48,2.11-1-2.94.23-1.62-1-3-1.33.92-1.11,3.53-.18,3.23-1.93-.32-.66-1.85-.61-3-.42a4,4,0,0,1-1,.22,6.07,6.07,0,0,1,1-.22,4.53,4.53,0,0,0,2.78-2.71c.81.24-.15.85.06,1,1.29,0,1.1-.41,2.08-.65v-.59c-.72-.07-1.57-.06-1-.74Zm-47.92,72.58.18-.67.88,1.42Zm-5.19,112c-.4-.43.83-1.26,1.05-2.09C403.49,211.3,402.47,212.34,400.89,212.73Zm-.36,37.65,3.15-.24C404.62,251.22,401.09,251,400.53,250.38Zm.51,101c1.57,0,2.1-1,2.56-.11Zm3.64-15.81-.64-1.1,1,1.48Zm31.18-30.66-.17.68-.89-1.43Zm16.37-149.06-3.16.13C448.16,154.88,451.69,155.19,452.23,155.85ZM449.66,193c.36.46-.94,1.17-1.24,2C446.94,194.15,448.05,193.21,449.66,193ZM445.53,4.61c.62,0,1.53-1.36,2.18-.21C446.88,5.42,446.61,5.26,445.53,4.61Zm6.92,50.53c-1.57,0-2.14,1-2.56,0Zm-4.14,15.7.6,1.13-1-1.52Z"/><path class="cls-9" d="M595.56,395.72c-1.94.66-1.78-.19-3.17-.51.51-1.5-.19-3.65.9-5.11l1.4.31c-2-3.32-4.34-5.51-3.71-7.89a5.12,5.12,0,0,1,2.39.21c-2.65-1.46,5-4.25-.28-4.21l-.36.66c.57-3.45-3.6-6.82-4.58-10.29,3.08-1.1.51,2,4.18.94,1-2.53-1.84-4.77-1-7.52.42.4.79.27,1,.46,1.83-2.8-3.13.54-2.83-1.73,1.56,0,2-.14,2.7-.94l-2.57-.47a8,8,0,0,1,3.14,0c-3.38-.75-1.33-3.88-4.48-4.49.78-.25,3.74.14,4.91-.24.87-1.23-.42-2-1.65-2.71-1.6.06-1.57-.4-1.38-1a1,1,0,0,1,0-1.53c.45.46.19,1,0,1.53a6.82,6.82,0,0,0,1.38,1h0c2.15-.95,1.74-3,2.13-2.54.95-2.17-1.78-.26-3.76-1.82l-1.35,1.77-.82-3,1.58,1.14c1.18-1.42-1.6-2.76-1.57-4.38l-1.79.79-1.16-1.83c3.72-.27.79-2.39,5.12-1.46,1.77-3.37-2.87-5.48-3.35-8.52a.43.43,0,0,1,0-.17,1,1,0,0,1,0,.17c.16.32.81.17,1.34.26.83-1.81-1.1-2.89-3-4,1.17.22,1.55.66,2.54.67,0-2.15-2.13-1.31-3.23-3.69,1.56.67,2.36.47,2.76-.18a3.39,3.39,0,0,1-2.72-.9c7.41,1.84,3-2.61,8.91-1.44-1.57-.13-4.76-3.82-7.75-2.81l.54.65c-2,.05-1.22-.82-1.36-1.48-.46-.47-.67-.9-.13-.27a.56.56,0,0,1,.13.27,2,2,0,0,0,1.21.73c-2.42-3.38-.09-6.84-1.87-10.6.76.34,2.07,1.86,2.71.92,1.15-3.68-2.67-5.91-4.46-9.66,4.74-.08.6,4,5.11,4.27a53.9,53.9,0,0,0-4.92-12.4c7-1.4-2.76-4.3,2.7-6.91-2.33.22-3.14-1.14-3.18-2.6h0l0-.21a4.66,4.66,0,0,1,.45-2l-.45,2a1.61,1.61,0,0,0,0,.22c1.88.53,2-1,3.32-.56-2.1-1.32-2.93-5,1.59-4.83-4.37-.4.25-2.75-2.84-3.85a4.92,4.92,0,0,1-2,1.09l1.23-1.33a2.87,2.87,0,0,1,.72.24c1.67-1.6-.86-3.49.49-5.5-2.53.61-1.53-1.57-2.19-2.55l-.25-.25a1,1,0,0,1,.25.25.79.79,0,0,0,.71.29c2.4-.57-2.06-2.36-.63-3.49,1-.51,2.54.16,2.78-.68-2,0-4.21-3.16-1.8-4.27,0,.53,1,.55,1.74.88-3.31-5.45.85-11.19-3.06-16.75l3.3,1c4.28-3.42-5.42-2.32-4.92-5.05,1.65-7.48,6.47-15.23,4.35-22.55-1-.54-1.18.31-2.56.39.41-.64,3.17-.8,1.43-1.67l-1.78.18c4.84-3.32-3.23-9.65,4.34-12.1-2.83-3.2,2.06-5.44-2.2-9.33,1.58-1.22,3.06,1.43,3.51-.23l-2.78-3.6c-4.66-3.49,6.18-9.05,2.4-13.33l.26.18c1.24.1,2.73-.8,2.31-1.5-.88-.25-1.33.23-2.38.65-2.09-3.88-2.18-4.73-2.6-7.8,1.84,1.32,1.6-1.23,4.16-1.37-1.67-.81-2.65.47-4.05-1.33-.24-2.55,2-4.91,2.86-7-2.28-.86-1.66-2-4.47-2-.17-2.88-1.3-4.49-1.28-8l1-.1c-3.51-.94,1.77-3.08-.25-3.73,1.24.09,1.75.47,2.73.37l-1.14-1.61c1.06.76,4.39,1.18,4.76-.15-2.46-1.37-1.68.39-3.69-.27l3.25-.43c-.35-1-4-1.32-5,0,0-3.55-1.55-7.05-1-10.21l2.13.33c-.8-1.75-.79-4.12,1.06-5.17-.62,0-1.76-.46-2.46-.18-2.68-1.92,2.63-.49.88-2.08l-.16-.14-.36-.28.36.28.16.14A3,3,0,0,0,586,125l-2.63-4.25c1.58,0,5.11-2.66,3.7-4.46a2.73,2.73,0,0,0-2.26.92l.33.46c-.32-.12-.4-.28-.33-.46l-.8-1.15,3.68-.91-3.25-1.65h-.71l.09-.33.62.32,3.08,0c-.62-1.22-4.58-1.68-4.31-2.68,1.94-3.74,3-3,5.9-5.65-5.9-.26.19-4.22-4-4.86,4.41-3.57,1.68-8.67,2.91-13.31l.53.38c2.72-2-4.49-2.22-3.32-4.37l.88.53c3.12-2.77.2-7.55-2.31-10.13.89.52,2.78.24,2.56-.6-1.16-.7-4.12.73-3-.76.57.36,1.86.06,1.89-.28l-3-1.41c2-3.8,4-8.28,2.32-12.18,1-.74,2.1-.22,3.11-.06-.65-3.1-3.14-6.17-3.7-9l3.4-.32c0-1.38-5.22-.8-2.21-2.62.45-.4.23,1.18,1.75,1.66,2.55-2.8-3.34-1.6-3-4.24l3.85.65c2.25-2-2-2.29-4.32-3-4.55-2.79,7.39-2.1,3.95-5.92-1.89-.6-2.79.23-4.68-.36,1-2.73-1.76-3-.81-5.76,5.72-1.52,0,1.39,5.36-.26L586,31c3-1.82.78,1.61,4.17,1.3,1-1.35-1.93-3.36-3.08-5.09,2.57,0,.33,2,3.79,1.18l-1.06-.88c.76.23,1.73.27,1.67.79,2.41-.35.13-1.05,0-1.91a27.06,27.06,0,0,0-5.06.33,3.85,3.85,0,0,0,.91-.24c-3.71-1.71-.95-4.7-3.9-6.17a2.57,2.57,0,0,0,1.59-.06c.13-1.06-3.27-2.11-4.27-3.52,1.88-.8,5.67.38,4.59-1.88-2.12-.38-5.81.67-5.75-1.23,0,0,1.76,1.64,3.25.73-1.52-1.85.67-.61,3.07-2.34-3-.95,1-1.88-3.86-2,3.24-.65,2-.47,4.36-1.68-2.64.56-2.67-2.2-5.84-2.08,3.62-.53,4.47,1.94,8.23.35-2.42-1-3.34-3-7.26-3.08.86-.8,2.23-1.19,2.65-2.37a.07.07,0,0,1,0-.09.79.79,0,0,0,0,.09c0,.17.62.36.94.46A3.61,3.61,0,0,1,584.09,0h-51.2a10.69,10.69,0,0,1-1,5.7,1.7,1.7,0,0,0,.94-.4c-6.68,5.66,8,9,2.2,14.13l-1.13-.37c.61,2.68-1.12-.36-2.79,1.59,3.69.37,2.86,3.41,4.21,5-.75-.24-.67-.77-1.2-1.22-.83.29-3,.41-2.35,1.18,5.28,1.72,4.74,5.41,6.32,8.13-2.42.33-4.54,2.68-8.46,3.9.87.28,2.73.78,4.54,1.24a5.72,5.72,0,0,1,.63-.35c0,.11.14.16.2.24-.11-.59-.25-.9-.45-.76,2.32-1.09,1.87.08,4.68,0-.1.9.88,2.74-1.25,2.95a2.81,2.81,0,0,1-.77,1.44c.43.34.67.7.41,1.1l-.29-.18a4.76,4.76,0,0,0-.88.23c-1.21,1.74,3,4.2,4.93,5.64-3.55-1.43-4,.36-6.57.36.21.17.36-1.62.43-3.83a3.77,3.77,0,0,1-1.67.32c-2.73,1.92,2.4,3.28.5,6.06a2.55,2.55,0,0,0-1.83-.4c-.72,1,1.33,1.89,2.87,2.12-2.52.24-4.35,2.36-3.23,3.4,2.08.92,3,.79,2.82,2.46L533,58.9c-1.43,1.88,2.27,1.63,1.29,3,.18-.46-1.33-.46-1.66,0,1,2.05,2,2.1,5.52,3.57l-2.78-.27c1.66,1.74,5.07,5,1.29,5.06,5.8-.54,3,3.81,2.94,5.32-.17-.52-1.39-.61-2-.67,3.83,3.19.12,6.45.18,9.67l-4.23.51c.17,1.71,8.52,2.19,8.33,4l-2-.67a12.49,12.49,0,0,1-.41,7.25l-2.83,0c1.32,1,1.3,2.13,2.62,3.09-6.88,2.16,3.62,8.58-4.06,12.54l5.28.25c-.1,1.52,1,3.46-3,4.17l.07-.34c-4-.15-.09,1.52-1,2.46.44.71,3.07,1.43,3.87.82-2.68,4,.1,10-4.68,12.5,1.72,4,5.91,7.07,5.37,11.43l-.62-.05c-.72,1.46-2.15,4.41-6.55,4.4,1,3.13,7.08,5.13,5.12,8.87l-1.68-.81c-.88.95,1.23,2.47,1.74,2.85-.09.33-1,.09-1.58,0-1.5.9.87,1.43,1.31,2.14l-1.5-.29c-3,3,2.94,7.68,2.2,11.52-.44-.71-2.11-.34-2.82-.05,4.91,1.57,3.74,5.89,4.87,7.49l-1.92-1c3.22,3.14-5.17,2.71-1.92,5.82l2.82-1.79c-.83,1.27.11,2.35,2.3,2.05-1.63,1.47-3.75.18-4.22,2.4-1.37.09-.94-1.6-2.72-.88l-3.65,3.07h0c2.79-2.13,3.5,1.6,6,.19-1.64,1.76-4.92-.39-6-.19l-.29.22.25-.22c-.38.1-.48.49-.1,1.49,6.12-.25.32,2.56,6.28,1,.44,4.37-3.62,8-.82,11.82-5.95,1.48-.29,7.45-7.94,7-.1,2.11,1.4,3.85,4.48,5.21.62-.42-.34-1-.72-1.41,1.94.58,2.22,3.15,2.17,4.22-1.71-1.43-3.17-3.71-6.08-4.85.71,1.93,3.53,4.67,4.46,5.77l-4,.41c2.86,1.68-3.21,1.29.65,3l1.18-.28c-.35,3,3.58,3.1,4,5.9l-1.56-.16c-.64.93,3,2.47-.59,3.29l-.09-1.82c-2.76.1-4,1.45-5.43,2,.66,1.94,4.48.83,4.81,1.8-2.59.32-1.39.05-3.9-.7.85,2.17,1.83,5.09,5.09,6.75a2.87,2.87,0,0,1-1-.05c-.56,2.21,4,4.4,1.75,5.67l-.37-.45c-3.87,1.6,3.37,4.82-3.15,4.85-1.25.78.36-1.9-2.9-.72-2.18,2.53,5.36,2.05,3.4,4.27.22-.3-.18-.22-.76-.36a26.8,26.8,0,0,0,1.1,5.86,4.94,4.94,0,0,1,.58-.2l-.45.61c0-.13-.08-.28-.13-.41-5.41,2,.89,7-5.42,9.27,2.24-.69,2.49.82,3.47.88a2.79,2.79,0,0,0-1-.06c-.22.94,1.84,1.19,2.68,1.6a1.44,1.44,0,0,1,.35-.11c.24.3.13.44,0,.59a.82.82,0,0,1-.25.24,2.77,2.77,0,0,1,.25-.24c.11-.2,0-.35-.32-.48-1.92.66,1.85,2.76.59,3.17,1.36.1,1,.84.88,1.68-1.42-1.79-2.89-.73-5-1.63-.82,2.49,5.83,3.28,4.61,5.84l-2.69,1.3c3.92.53,2.18,2.86,3.65,2.9a5.75,5.75,0,0,1,1.25-.25,3.91,3.91,0,0,1-1.25.25c-1.26.37-2,1-4,.78.89,1.1-1.22,2.56,1.1,3.12l1.09-1c-1.67,3.17,3.89,5.39,1.14,7.74l-5.9-.34c-2.49,1.56,3.1,3.23-.53,4.51,2-.42,1.41-.55,3.31.59.43-.61-1.06-1.84-1-2.89l3.37,2.38-1.53-3.54c2.26,1.59,1.68,1.46,4.09,1,1.8,2.18-2.93,2.14-.71,4.24-.85.69-2.95-.14-4.18.64,2,1.86-4.37,3.26-1.29,4.65-.62.39-.15-.74-1.54-.69.53,1.18.27,2,2,2.39l.68-1a1,1,0,0,1,.4-.56l-.4.56c-.18.86,2.22,1.07.8,2.68,1.34,1,4.26,1.58,4.31.56.37.42-1.23,1.3-3,.94-.11,2.57,6.28,1.34,3.43,3.76.21.21.26.41-.06.06l.06-.06a.9.9,0,0,0-.83-.27,1.37,1.37,0,0,0-.3,1.08,1.21,1.21,0,0,1,.22.47.89.89,0,0,1-.22-.47c-1-1.24-4.43.86-3.42-1.48-3.16.24-.68,2-1.9,2.78,2.1,1.29,4.52.18,6.06.83-1,0-1,.5-1.42,1.11l2.38-.58a2,2,0,0,0,.54,1.66l-1-1c-.42,1.13-4.21,2.86-1.92,4.85-1-.52-2.9-1.58-4.12-.23,1.52,2.19-1,.51-2.8,1.77.53,2.2,4.22.35,2.8,3.6,0,.35,1.38,0,2-.35a4.41,4.41,0,0,1,.22-.43c.25.1.09.26-.22.43-1,2.09.38,3.25-.85,5.19.57-.74,1.3-1.14,2.3-.08-2-.49-1.8,1.79-3,2.65l1.19.19a1.52,1.52,0,0,1-2.24-.53.72.72,0,0,1-.72-.47c.29-.08.5.17.72.47.4,0,.78-.2.67-.6-.59-.62-2.49-.69-4-.27v2.62a8.08,8.08,0,0,0,3.59-.14c-1.19,2.44,5.51,2.08,3.74,4.41,0,.52-4.73,2.43-5.09,4.13,2.75.75,1.94-2.16,4.3-1.29-6.64,3.05,4.41,5.49.53,9.28l-3.35-.28a4,4,0,0,0,.08,2.63l1.74-1.34c.8.8.26,2.82-2.3,2.31,2.8,1.76,1.24,2.25.49,4.08.16-1.9.46-.06-1.34-1.33-1.51,2.08-.4,2.17.43,3.49a3.71,3.71,0,0,0-2.82,1v.28c2.11,1.15,1.83,3.35,3.06,5l-1,.07c1.45,2.91-2.86,6.53.3,9.34a1.35,1.35,0,0,0,.38-.2l.36-.48c.19-.58-.14-1.23.94-1.23l-.94,1.23a.77.77,0,0,1-.36.48l-.06.09c3-1.3,2.38,2.17,3.77,3-.78.27-2.14.48-2.11,1,2.94-.22,1.63,1,3,1.35-.92,1.13-3.53.18-3.23,1.95.31.67,1.85.61,3,.43a4,4,0,0,1,1-.22,6.33,6.33,0,0,1-1,.22,4.58,4.58,0,0,0-2.79,2.73c-.8-.25.16-.86-.05-1-1.57,0-1,.6-2.92.77-.15.86,2.76.08,1.84,1.23l-2.41-.76c-.55.47.47.92.67,1.11a2.4,2.4,0,0,0-1.46-.33v1.24c2-.13,4.35-1.11,6-1.18-1.6,2.47,1.64,4,1.95,5.75l-2.76-.07a2.94,2.94,0,0,0,2.36,1.39l0-.35,1.41.51c-.52,0-1-.1-1.37-.16l.15,1.34c-1.06-.68-1.94-.85-4.14-.69.65,1,.58,2.31,1.88,3h61.78C592.85,398.69,593.26,397.31,595.56,395.72ZM590,366.6l.87,1.32-2.38-.24ZM586.47,26.74a15.71,15.71,0,0,0-2.52.61C583.74,25.12,584.47,27,586.47,26.74ZM539.1,109.41l.18-.67.87,1.42Zm-5.53,112.73c-.4-.45.85-1.27,1.08-2.11C536.19,220.72,535.15,221.76,533.57,222.14ZM532,260.21l3.16-.1C536.05,261.24,532.52,260.89,532,260.21Zm-2.22,101.44c1.57,0,2.14-1,2.56,0ZM534,345.86l-.62-1.14,1,1.53Z"/><path class="cls-10" d="M679.48,36.52a26.55,26.55,0,0,0-5.07.27,4,4,0,0,0,.92-.23c-3.69-1.76-.9-4.73-3.83-6.24.76.25,1,0,1.59,0,.14-1.06-3.25-2.16-4.22-3.59,1.89-.77,5.65.46,4.61-1.83-2.12-.4-5.82.61-5.74-1.3,0,0,1.74,1.67,3.24.77-1.49-1.88.68-.61,3.1-2.31-3-1,1.06-1.88-3.84-2.09,3.25-.61,2-.44,4.38-1.62-2.64.52-2.64-2.24-5.81-2.17,3.63-.48,4.45,2,8.23.46-2.42-1.06-3.31-3-7.23-3.19.87-.79,2.24-1.16,2.68-2.34,0,.17.62.37.94.48-2.63-2.25,0-5.55-4.74-6.82,5.66.46.7-4.75,6-3-.1-.5-.82-1.14-1.63-1.69H608.52c.49.5,1.49.92,3.65,1.19l.77-.7L611.81,3l.06-.11a5.2,5.2,0,0,1,.84-1.38l-.84,1.38c-.38,1.07.43,1.15-2.55,2.87-.79-.51-.9-1.35-1.7-1.85-2.51,1.55,2.51,2.34,2.81,3.71-2.19.18-.92-1.36-3.54-.65-.24,1,1.45,1.69,2.16,2.53h-1.22c-2.49,2.73,6.06.31,2.16,2.54.71-.14,1.51,0,2.21-.18a2.13,2.13,0,0,1,.68-.34,1.68,1.68,0,0,1-.68.34c-1.22.81-3.22,2.59-4.91,1.21.09.85,1.25,1.7,2.66,2,1.72-.9.79-1,3.06-1.5l1.61,3.32c0,.38-1.2-.17-1.27-.65-6,4.65,6.18,7.68-1.13,12.94,1.93-.69,1.78.18,3.18.5-.49,1.53.23,3.72-.9,5.19l-1.39-.32c1.92,3.38,4.25,5.66,3.57,8a5,5,0,0,1-2.38-.27c2.62,1.54-5.14,4.13.19,4.24l.36-.66c-.62,3.45,3.36,7,4.25,10.46-3.12,1-.44-2-4.16-1.07-1.11,2.49,1.7,4.82.79,7.52-.41-.41-.79-.29-1-.49-1.9,2.74,3.15-.44,2.78,1.81-1.56-.05-2,.08-2.73.85l2.56.54a8.1,8.1,0,0,1-3.15-.09c3.36.83,1.23,3.89,4.37,4.54-.78.23-3.74-.2-4.92.15-.88,1.22.4,2,1.62,2.72,1.6,0,1.56.41,1.37,1a1,1,0,0,1,0,1.51c-.44-.46-.18-1,0-1.51a7.15,7.15,0,0,0-1.37-1h0c-2.16.91-1.75,2.92-2.15,2.5-1,2.15,1.78.27,3.76,1.82l1.35-1.74.82,3-1.58-1.14C616.29,78.69,619,80,619,81.62l1.8-.79L622,82.64c-3.73.28-.79,2.36-5.12,1.47-1.76,3.36,2.92,5.42,3.45,8.43a.43.43,0,0,1,0,.17l0-.17c-.16-.31-.82-.16-1.34-.24-.79,1.81,1.13,2.87,3.08,3.93-1.17-.21-1.56-.63-2.55-.63,0,2.14,2.14,1.28,3.27,3.63-1.56-.64-2.36-.43-2.76.22a3.39,3.39,0,0,1,2.74.86c-7.44-1.72-3,2.66-8.9,1.58,1.58.1,4.84,3.74,7.81,2.69l-.56-.64c2-.08,1.24.8,1.4,1.46.46.46.67.89.12.26a.48.48,0,0,1-.12-.26,2,2,0,0,0-1.23-.71c2.5,3.34.19,6.85,2,10.63-.77-.33-2.09-1.86-2.72-.9-1.12,3.72,2.73,5.93,4.54,9.75-4.73.08-.63-4.1-5.14-4.31a60.67,60.67,0,0,0,4.87,12.58c-7,1.34,2.72,4.41-2.77,7,2.33-.18,3.11,1.22,3.11,2.71h0l-.06.22a5,5,0,0,1-.5,2l.5-2a1.77,1.77,0,0,0,0-.23c-1.87-.59-2,1-3.33.49,2.07,1.39,2.78,5.2-1.74,4.84,4.36.54-.33,2.78,2.72,4a4.86,4.86,0,0,1,2-1l-1.28,1.32a3.28,3.28,0,0,1-.71-.28c-1.71,1.56.76,3.58-.69,5.57,2.55-.52,1.44,1.66,2.06,2.68a2.75,2.75,0,0,1,.24.27,1,1,0,0,1-.24-.27.78.78,0,0,0-.69-.33c-2.43.48,1.94,2.5.46,3.58-1,.47-2.53-.29-2.81.56,2,.13,4,3.42,1.58,4.42,0-.53-.94-.61-1.68-1,3,5.73-1.59,11.26,2,17.2l-3.21-1.28c-4.5,3.13,5.22,2.77,4.49,5.51-1.15,3.74-3.1,7.46-4.57,11.18s-2.56,7.44-1.9,11.22c.9.65,1.21-.18,2.59-.11-.48.59-3.24.46-1.6,1.52h1.79c-5.17,2.8,2.14,10-5.65,11.6,2.47,3.5-2.65,5.18,1.17,9.5-1.72,1-2.89-1.76-3.52-.17l2.37,3.86c4.27,3.93-7.07,8.28-3.72,12.88l-.24-.21c-1.22-.22-2.79.53-2.43,1.26.85.33,1.34-.1,2.43-.41,1.72,4,1.75,4.83,1.91,7.86-1.73-1.44-1.69,1.07-4.24,1,1.6.92,2.67-.25,3.94,1.61,0,2.51-2.31,4.64-3.32,6.67,2.22,1,1.54,2,4.34,2.25,0,2.81,1.06,4.43.9,7.86l-1,.05c3.46,1.05-1.89,2.93.12,3.64a17.43,17.43,0,0,0-2.71-.46l1.08,1.61c-1-.77-4.35-1.3-4.76,0,2.42,1.42,1.69-.33,3.68.39l-3.26.32c.32,1,4,1.4,5,.19-.14,3.46,1.39,6.9.82,10l-2.12-.35c.78,1.73.75,4-1.12,5.06.62.05,1.76.47,2.46.19,2.69,1.89-2.63.48-.87,2l.15.13a4.43,4.43,0,0,0,.37.28l-.37-.28-.15-.13a3,3,0,0,0-1.94-.92l2.63,4.17c-1.58.05-5.09,2.65-3.67,4.41a2.76,2.76,0,0,0,2.26-.92l-.34-.45c.32.11.4.27.34.45l.81,1.12-3.67.94,3.26,1.58.7,0-.08.33-.62-.31-3.08.09c.64,1.21,4.6,1.6,4.35,2.59-1.87,3.71-2.95,3-5.79,5.7,5.9.12-.08,4.18,4.16,4.7-4.3,3.67-1.41,8.65-2.47,13.3l-.54-.35c-2.64,2.1,4.57,2,3.49,4.2l-.9-.49c-3,2.88.11,7.52,2.73,10-.91-.48-2.78-.11-2.53.71,1.19.65,4.08-.91,3,.62-.59-.33-1.86,0-1.88.36l3,1.28c-1.81,3.87-3.66,8.43-1.74,12.25-1,.78-2.09.31-3.11.2.8,3.07,3.43,6,4.13,8.79l-3.38.48c.08,1.38,5.25.55,2.32,2.51-.43.43-.28-1.16-1.82-1.57-2.42,2.91,3.41,1.44,3.18,4.09l-3.87-.46c-2.16,2.15,2.15,2.19,4.45,2.79,4.68,2.57-7.28,2.45-3.67,6.11,1.92.5,2.78-.37,4.7.13-.83,2.77,1.9,2.94,1.07,5.72-5.64,1.79-.08-1.39-5.34.51l1.18-2.15c-2.91,2-.86-1.57-4.23-1.1-.91,1.4,2.08,3.26,3.31,4.94-2.57.15-.42-2-3.84-1l1.1.83c-.76-.2-1.74-.18-1.7-.71-2.39.46-.08,1.06,0,1.91a26.49,26.49,0,0,0,5-.57,3.73,3.73,0,0,0-.9.29,3.28,3.28,0,0,1,2.27,2.52h61.73c-1.62-2.49-3.09-4.38-2.52-6.35a5,5,0,0,1,2.38.28c-2.61-1.56,5.15-4.15-.17-4.27l-.37.66c.63-3.45-3.36-7-4.25-10.51,3.12-1,.45,2,4.16,1.1,1.09-2.51-1.68-4.86-.74-7.57.41.41.78.3,1,.5,1.92-2.74-3.15.43-2.78-1.83,1.56.06,2-.07,2.73-.85l-2.56-.55a8.16,8.16,0,0,1,3.15.11c-3.38-.85-1.22-3.92-4.36-4.59.79-.23,3.74.23,4.92-.12.89-1.22-.39-2-1.6-2.75-1.6,0-1.56-.42-1.36-1a1,1,0,0,1,0-1.53c.44.48.17,1,0,1.53a7.39,7.39,0,0,0,1.36,1h0c2.17-.9,1.78-2.92,2.17-2.5,1-2.15-1.77-.29-3.73-1.87l-1.38,1.74-.76-3,1.55,1.16c1.2-1.4-1.54-2.77-1.5-4.39l-1.8.77-1.15-1.83c3.73-.24.81-2.38,5.13-1.41,1.8-3.36-2.81-5.52-3.27-8.57.15.32.8.18,1.33.28.83-1.82-1.09-2.92-3-4,1.17.23,1.54.67,2.54.69.08-2.15-2.12-1.33-3.2-3.74,1.55.68,2.36.49,2.77-.15a3.4,3.4,0,0,1-2.72-.94c7.4,1.93,3.07-2.61,8.93-1.36-1.58-.14-4.73-3.91-7.73-2.93l.53.66c-2,0-1.21-.84-1.34-1.51-.44-.49-.65-.93-.12-.28a.53.53,0,0,1,.12.28,2.09,2.09,0,0,0,1.2.75c-2.37-3.46,0-6.93-1.66-10.79.76.37,2,1.95,2.69,1,1.25-3.69-2.51-6.05-4.17-9.94,4.74.09.46,4.13,5,4.5A57.21,57.21,0,0,0,667,303.1c7-1.11-2.56-4.46,3-6.84-2.34.11-3.09-1.3-3.06-2.77h-.05l.06-.21a4.91,4.91,0,0,1,.54-2l-.54,2a1.55,1.55,0,0,0,0,.22c1.86.63,2-.92,3.34-.4-2-1.43-2.68-5.2,1.82-4.77-4.35-.61.38-2.74-2.65-4a4.77,4.77,0,0,1-2,1l1.29-1.28a3.61,3.61,0,0,1,.71.28c1.74-1.52-.7-3.52.74-5.46-2.56.5-1.46-1.63-2.08-2.63a.83.83,0,0,0,.69.32c2.43-.47-2-2.44-.48-3.49,1-.47,2.53.26,2.8-.57-2-.13-4.08-3.28-1.63-4.29,0,.52,1,.57,1.69.93-3.1-5.5,1.22-11.06-2.59-16.67l3.27,1.07c4.34-3.31-5.36-2.4-4.82-5.1,1.79-7.36,6.64-15.06,4.55-22.38-1-.55-1.19.3-2.57.38.41-.64,3.18-.8,1.44-1.67l-1.78.18c4.84-3.31-3.22-9.64,4.34-12.1-2.84-3.2,2.06-5.45-2.21-9.35,1.58-1.23,3.06,1.43,3.51-.23l-2.78-3.61c-4.66-3.51,6.16-9.1,2.4-13.4l.26.19c1.23.1,2.73-.8,2.31-1.51-.88-.25-1.33.23-2.38.65-2.08-3.9-2.18-4.76-2.59-7.84,1.84,1.33,1.6-1.24,4.16-1.37-1.67-.81-2.65.47-4.05-1.34-.24-2.57,2-4.94,2.87-7.07-2.27-.86-1.65-2-4.46-2.06-.16-2.9-1.28-4.51-1.25-8.08l1-.09c-3.51-1,1.79-3.08-.24-3.75a16.83,16.83,0,0,0,2.73.39l-1.13-1.62c1.06.76,4.39,1.2,4.76-.13-2.46-1.39-1.68.38-3.69-.3l3.26-.41c-.36-1-4-1.34-5-.07,0-3.56-1.52-7.08-1-10.26l2.13.34c-.79-1.76-.77-4.13,1.09-5.18-.62,0-1.76-.48-2.46-.2-2.67-1.94,2.63-.47.89-2.08a3.07,3.07,0,0,0,1.94,1l-2.61-4.29c1.58,0,5.12-2.64,3.73-4.45a2.73,2.73,0,0,0-2.27.91l.33.46c-.32-.12-.4-.28-.33-.46l-.79-1.16,3.68-.89-3.23-1.68h-.71l.09-.34.62.33,3.08,0c-.61-1.23-4.57-1.73-4.29-2.72,2-3.74,3-3,5.94-5.64-5.9-.3.22-4.23-4-4.9,4.43-3.55,1.74-8.69,3-13.34l.52.38c2.74-2-4.47-2.27-3.28-4.41l.87.54c3.15-2.75.28-7.58-2.21-10.2.88.54,2.77.27,2.57-.57-1.16-.72-4.13.69-3-.79.57.36,1.86.07,1.9-.26l-2.94-1.46c2-3.79,4.14-8.26,2.44-12.2,1-.73,2.1-.19,3.12,0-.62-3.12-3.08-6.23-3.61-9l3.4-.28c0-1.39-5.21-.86-2.18-2.66.46-.4.22,1.19,1.73,1.68,2.58-2.77-3.31-1.63-2.94-4.28l3.84.69c2.28-2-2-2.31-4.28-3.05-4.52-2.86,7.41-2,4-5.91-1.89-.61-2.8.21-4.68-.41,1-2.73-1.73-3-.74-5.79,5.73-1.45,0,1.4,5.36-.19l-1.3,2.08c3-1.79.77,1.63,4.16,1.35,1-1.35-1.89-3.39-3-5.14,2.57,0,.3,2,3.77,1.23l-1-.9c.76.24,1.73.29,1.66.81C681.81,38.11,679.54,37.38,679.48,36.52ZM617.2,58.6l-.83-1.34,2.36.32ZM613,397.19a15,15,0,0,0,2.49-.73C615.79,398.68,615,396.88,613,397.19Zm60-19.6.83,1.35-2.37-.33ZM671.86,37.37c-.19-2.24.52-.39,2.52-.58A14.68,14.68,0,0,0,671.86,37.37Z"/><rect class="cls-11" x="440" y="149" width="100" height="100" rx="15"/><rect class="cls-12" x="451.97" y="161" width="11.17" height="75.39"/><polygon class="cls-12" points="531.5 236.39 466.88 236.39 466.88 203.21 531.5 236.39"/><rect class="cls-12" x="466.89" y="161" width="55.85" height="11.17"/><rect class="cls-12" x="466.89" y="175.99" width="44.68" height="11.17"/><rect class="cls-12" x="466.89" y="192.04" width="33.51" height="11.17"/><text class="cls-13" transform="translate(469.45 169.47)">KAWANAMI</text><text class="cls-13" transform="translate(469.45 184.31)">MASATO</text></svg>