<svg xmlns="http://www.w3.org/2000/svg" viewBox="0 0 1130.55 883.15"><defs><style>.cls-1{fill:#ff94ac;}.cls-2{fill:#b4fffd;}.cls-3{fill:none;stroke:#000;stroke-miterlimit:10;stroke-width:6px;}.cls-4{font-size:150px;font-family:MicrosoftSansSerif, Microsoft Sans Serif;letter-spacing:0.1em;}</style></defs><title>works_web</title><g id="レイヤー_2" data-name="レイヤー 2"><g id="レイヤー_1-2" data-name="レイヤー 1"><circle class="cls-1" cx="579.46" cy="634.01" r="150"/><path class="cls-2" d="M835.43,378a149.51,149.51,0,0,0-106-43.93A150,150,0,0,1,579.36,484.2,150,150,0,1,0,835.43,378Z"/><rect class="cls-3" x="352.79" y="105.4" width="672.35" height="672.35" transform="translate(840.13 -362.68) rotate(67.99)"/><circle class="cls-2" cx="429.55" cy="484.11" r="150"/><path class="cls-1" d="M473.39,228.13a149.51,149.51,0,0,0-43.93,106A150,150,0,0,1,579.55,484.2,150,150,0,1,0,473.39,228.13Z"/><text class="cls-4" transform="translate(0 542.4)">WORKS</text></g></g></svg>