<svg xmlns="http://www.w3.org/2000/svg" viewBox="0 0 774.32 544.93"><defs><style>.cls-1{fill:none;stroke:#000;stroke-miterlimit:10;stroke-width:6px;}.cls-2{fill:#b4fffd;}.cls-3{fill:#ff94ac;}.cls-4{font-size:100px;font-family:MicrosoftSansSerif, Microsoft Sans Serif;letter-spacing:0.1em;}</style></defs><title>works_sp</title><g id="レイヤー_2" data-name="レイヤー 2"><g id="レイヤー_1-2" data-name="レイヤー 1"><rect class="cls-1" x="295.58" y="66.18" width="412.56" height="412.56" transform="matrix(0.37, 0.93, -0.93, 0.37, 566.36, -294.93)"/><circle class="cls-2" cx="274.02" cy="327.52" r="86.77"/><circle class="cls-3" cx="360.74" cy="414.24" r="86.77"/><path class="cls-3" d="M299.38,179.45A86.47,86.47,0,0,0,274,240.75a86.77,86.77,0,0,1,86.82,86.82,86.77,86.77,0,1,0-61.41-148.12Z"/><path class="cls-2" d="M508.81,266.17a86.54,86.54,0,0,0-61.31-25.42,86.76,86.76,0,0,1-86.82,86.82,86.77,86.77,0,1,0,148.13-61.4Z"/><text class="cls-4" transform="translate(0 370.02)">WORKS</text></g></g></svg>